<svg xmlns="http://www.w3.org/2000/svg" viewBox="0 0 750 500"><g id="freepik--background-complete--inject-41"><g><g><g><path d="M673.73,336.58h-180.75c-3.23,0-5.86-2.63-5.86-5.86V67.45c0-3.23,2.63-5.86,5.86-5.86h180.75c3.23,0,5.86,2.63,5.86,5.86V330.72c0,3.23-2.63,5.86-5.86,5.86ZM492.99,61.83c-3.09,0-5.61,2.52-5.61,5.61V330.72c0,3.09,2.52,5.61,5.61,5.61h180.75c3.09,0,5.61-2.52,5.61-5.61V67.45c0-3.09-2.52-5.61-5.61-5.61h-180.75Z" style="fill:#e0e0e0;"></path><path d="M465.31,336.58h-180.75c-3.23,0-5.86-2.63-5.86-5.86V67.45c0-3.23,2.63-5.86,5.86-5.86h180.75c3.23,0,5.86,2.63,5.86,5.86V330.72c0,3.23-2.63,5.86-5.86,5.86ZM284.56,61.83c-3.09,0-5.61,2.52-5.61,5.61V330.72c0,3.09,2.52,5.61,5.61,5.61h180.75c3.09,0,5.61-2.52,5.61-5.61V67.45c0-3.09-2.52-5.61-5.61-5.61h-180.75Z" style="fill:#e0e0e0;"></path></g><path d="M257.01,336.58H76.27c-3.23,0-5.86-2.63-5.86-5.86V67.45c0-3.23,2.63-5.86,5.86-5.86h180.75c3.23,0,5.86,2.63,5.86,5.86V330.72c0,3.23-2.63,5.86-5.86,5.86ZM76.27,61.83c-3.09,0-5.61,2.52-5.61,5.61V330.72c0,3.09,2.52,5.61,5.61,5.61h180.75c3.09,0,5.61-2.52,5.61-5.61V67.45c0-3.09-2.52-5.61-5.61-5.61H76.27Z" style="fill:#e0e0e0;"></path></g><rect y="397.65" width="750" height=".12" style="fill:#e0e0e0;"></rect></g><path d="M619.94,425.45c.31-3.74-.2-8.58-4.55-10.01-7.4-2.44-11.77-8.16-11.53-14.63,.24-6.47-7.53-12.77-13.36-6.71-5.83,6.07-5.06-4.67-12.84-7.28-7.78-2.61-14.38,3.73-12.24,9.5,2.14,5.78-5.54,9.4-14.73,4.48-9.19-4.92-19.31,4.03-17.36,11.02,1.95,6.99,.35,7.84-5.46,5.45-4.69-1.9-12.38,2.07-13.24,8.17h105.33Z" style="fill:#ebebeb;"></path><path d="M120.49,425.45c.35-2.97,.2-7.28-3.46-8.49-5.74-1.9-9.15-6.34-8.96-11.36s-5.84-9.92-10.37-5.23c-4.52,4.69-3.92-3.62-9.96-5.65-6.04-2.03-11.17,2.89-9.5,7.37,1.66,4.48-4.31,7.3-11.44,3.48-7.13-3.82-14.98,3.15-13.48,8.59,1.5,5.44,.27,6.03-4.24,4.22-3.83-1.53-10.18,1.92-10.33,7.06H120.49Z" style="fill:#ebebeb;"></path><path d="M100.02,425.45H234.29c1.9-6.3-2.99-13.86-8.32-14.93-6.54-1.31-13.07-12.81-13.41-20.13-.34-7.32-12.08-29.85-30.38-15.94-18.3,13.91-12.73,2.05-25.98-1.86s-21.6,7.33-15.78,15.77c0,0-13.31-3.33-18.79,9.09-5.48,12.42,0,20.13,0,20.13,0,0-16.81-.48-21.61,7.87Z" style="fill:#ebebeb;"></path><path d="M324.86,121.76c0-4.75,3.85-8.61,8.6-8.62,.84,0,1.67,.13,2.48,.37-.14-.87-.2-1.75-.2-2.64,0-10.06,8.16-18.22,18.22-18.22,1.12,0,2.24,.1,3.35,.3,4.57-7.52,14.36-9.91,21.88-5.34,4.69,2.85,7.58,7.91,7.66,13.39h.27c8.11,0,14.68,6.57,14.68,14.68s-6.57,14.68-14.68,14.68h-53.92c-4.65-.14-8.35-3.95-8.34-8.6Z" style="fill:#f5f5f5;"></path><path d="M72.96,62.64c0-2.17,1.74-3.93,3.91-3.93,.39,0,.78,.06,1.15,.17-.06-.4-.09-.8-.09-1.2,0-4.59,3.72-8.32,8.32-8.32h0c.51,0,1.03,.05,1.53,.14,2.09-3.43,6.56-4.52,9.99-2.43,2.14,1.3,3.46,3.61,3.49,6.11h.12c3.7,0,6.69,3,6.69,6.7,0,3.69-3,6.69-6.69,6.69h-24.55c-2.14-.04-3.86-1.78-3.86-3.92Z" style="fill:#f0f0f0;"></path><path d="M77.22,242.54c0-2.82,2.27-5.11,5.09-5.12,.51,0,1.01,.07,1.5,.22-.07-.52-.11-1.04-.12-1.57,0-5.98,4.84-10.82,10.82-10.82h0c.67,0,1.33,.06,1.99,.19,2.71-4.46,8.53-5.88,13-3.17,2.78,1.69,4.5,4.69,4.54,7.95h.15c4.81,0,8.71,3.91,8.7,8.72,0,4.81-3.9,8.7-8.7,8.7h-31.95c-2.79-.05-5.02-2.32-5.02-5.1Z" style="fill:#f0f0f0;"></path><path d="M609.99,250.94c0-2.91,2.35-5.28,5.26-5.29,.52,0,1.04,.07,1.55,.23-.08-.54-.12-1.08-.12-1.62,0-6.18,5.01-11.18,11.18-11.18h0c.69,0,1.38,.07,2.06,.19,2.81-4.61,8.82-6.08,13.43-3.27,2.87,1.75,4.65,4.85,4.7,8.21h.16c4.97,0,9,4.04,9,9.01,0,4.97-4.03,8.99-9,9h-33.02c-2.88-.05-5.19-2.4-5.19-5.28Z" style="fill:#f0f0f0;"></path><path d="M435.16,88.17c0-2.4,1.95-4.35,4.35-4.35,.42,0,.84,.06,1.25,.17-.06-.44-.09-.89-.09-1.33,0-5.09,4.13-9.22,9.22-9.22,.57,0,1.14,.05,1.7,.16,2.3-3.8,7.24-5.02,11.04-2.73,2.38,1.44,3.85,4.01,3.88,6.8h.14c4.1,0,7.42,3.33,7.42,7.42,0,4.09-3.32,7.41-7.42,7.42h-27.26c-2.36-.06-4.23-1.99-4.23-4.35Z" style="fill:#f5f5f5;"></path><path d="M390.05,157.82c0-2.25,1.82-4.07,4.07-4.07,.39,0,.79,.05,1.17,.16-.05-.41-.08-.83-.08-1.25,0-4.77,3.86-8.63,8.63-8.63,.53,0,1.06,.05,1.59,.15,2.15-3.56,6.78-4.7,10.34-2.55,2.23,1.35,3.61,3.76,3.64,6.36h.14c3.84,0,6.95,3.11,6.94,6.95,0,3.83-3.11,6.94-6.94,6.94h-25.52c-2.21-.06-3.96-1.86-3.96-4.07Z" style="fill:#e6e6e6;"></path><g><path d="M290.45,133.15c-1.37-1.17-3.08-2.72-2.49-4.36,.48-1.33,2.17-1.78,3.13-2.83,1.96-2.14,.13-5.63-2.17-7.39-2.3-1.76-5.27-3.11-6.22-5.86-.16-.74-.42-1.46-.77-2.14-1.38-2.06-4.59-.69-6.58,.77-.68,.5-1.5,.97-2.34,1.31-.29-1.15-.83-2.18-1.56-2.8-1.35-1.17-3.08-2.72-2.49-4.36,.48-1.35,2.17-1.78,3.14-2.83,1.94-2.14,.12-5.63-2.19-7.39s-5.27-3.11-6.21-5.86c-.17-.75-.43-1.47-.79-2.14-1.38-2.06-4.59-.72-6.59,.76-1.99,1.48-5.22,2.78-6.58,.69-.79-1.2-.33-2.91-1.09-4.13-1.27-2.04-4.49-1.07-6.32,.48-1.83,1.55-3.85,3.62-6.19,3.08,0,0-.02,0-.02,0,.6-.25,1.26-.46,1.82-.75,3-1.58,2.58-7.34,.31-9.27-1.37-1.17-3.08-2.7-2.49-4.35,.48-1.35,2.17-1.78,3.13-2.85,1.96-2.14,.13-5.65-2.17-7.39-2.3-1.75-5.27-3.11-6.22-5.86-.16-.74-.42-1.46-.77-2.14-1.38-2.06-4.61-.71-6.58,.77-1.98,1.48-5.22,2.77-6.58,.67-.77-1.2-.33-2.9-1.09-4.13-1.25-2.04-4.48-1.09-6.31,.48-1.83,1.56-3.85,3.62-6.19,3.08-2.04-.48-3.16-2.78-5.33-3.05-2.17-.26-3.9,1.96-4.43,4.08-.53,2.12-.49,4.46-1.65,6.34-.1-.02-.21-.04-.32-.05-1.47-1.05-2.79-2.2-3.37-3.86-.16-.74-.42-1.46-.77-2.14-1.38-2.06-4.61-.72-6.59,.76-1.98,1.48-5.22,2.78-6.59,.69-.77-1.2-.33-2.91-1.09-4.13-1.25-2.04-4.48-1.07-6.31,.48-1.83,1.55-3.85,3.62-6.19,3.06-2.04-.48-3.16-2.78-5.33-3.05-2.17-.26-3.9,1.96-4.43,4.08-.53,2.12-.49,4.46-1.65,6.34-3.16-.61-7.49-.49-8.23,2.6-.31,1.32,.25,2.57,1.03,3.74-.39,.22-.76,.46-1.08,.73-1.84,1.55-3.87,3.62-6.21,3.08-2.02-.48-3.13-2.78-5.32-3.05-2.19-.26-3.92,1.96-4.43,4.08-.51,2.12-.49,4.46-1.65,6.32-3.18-.59-7.49-.48-8.23,2.62-.49,2.04,1.09,3.93,2.39,5.6,1.3,1.66,2.39,4.08,1.04,5.73-2.18-.11-4.35,.43-6.22,1.56-1.89,1.21-2.64,3.61-1.78,5.68,.96,1.35,2.36,2.32,3.95,2.77,4.67,1.89,3.18,6.04,1.79,9.38-.16-.01-.31-.01-.48-.05-2.04-.48-3.16-2.78-5.33-3.05-2.17-.26-3.9,1.96-4.43,4.08-.53,2.12-.49,4.46-1.65,6.32-3.18-.59-7.49-.48-8.23,2.62-.49,2.04,1.1,3.93,2.39,5.6,1.28,1.66,2.37,4.08,1.04,5.73-2.19-.09-4.36,.49-6.22,1.65-1.89,1.21-2.64,3.6-1.79,5.68,.97,1.35,2.37,2.32,3.97,2.77,8.2,3.31-2.57,13.6,1.5,14.27,5.2,.87,11.33-.15,11.7,6.26,.05,1.04,.2,2.08,.46,3.09,.99,3.56,3.52,5.07,8.74,2.58,3.31-1.56,4.12-3.51,7.89-3.03,2.7,.31,4.66,2.21,7.64,1.96,.41,0,.82-.11,1.19-.3,.37-.24,.68-.57,.91-.95,2.65-3.77,4.72-2.24,9.05-2.42,.34,.02,.68-.08,.95-.28,.26-.27,.4-.63,.4-1,.11-1.11,0-2.22-.3-3.29-.22-.52-.28-1.09-.16-1.65,.21-.74,1.15-1.02,1.86-1.37,.27-.15,.53-.32,.78-.51,1.33-1.03,2.09-2.52,2.26-4.07,4.08,.38,7.88,.88,8.17,5.85,.04,1.05,.2,2.08,.48,3.09,.97,3.56,3.51,5.07,8.71,2.58,3.31-1.56,4.12-3.51,7.89-3.03,2.7,.31,4.66,2.21,7.64,1.96,.41,0,.82-.11,1.19-.3,.37-.24,.68-.57,.91-.95,2.65-3.77,4.72-2.24,9.05-2.42,.09,.01,.19,.02,.28,0,.65-.06,1.13-.64,1.07-1.29,.1-1.08,0-2.17-.3-3.21-.22-.52-.28-1.09-.16-1.65,.21-.74,1.15-1.04,1.86-1.37,.28-.15,.55-.33,.81-.53,.74-.58,1.29-1.31,1.67-2.11,1.38,.42,3.24,.15,5.7-1.03,3.33-1.55,4.13-3.51,7.9-3.01,2.7,.31,4.66,2.19,7.64,1.96,.41-.02,.82-.12,1.19-.31,.37-.25,.68-.57,.91-.95,.07-.1,.14-.19,.21-.28,.06,.62-.05,1.21-.46,1.71-1.73-.09-3.45,.34-4.94,1.23-1.5,.95-2.09,2.84-1.4,4.48,.76,1.06,1.86,1.82,3.11,2.17,6.45,2.6-2.02,10.7,1.19,11.23,4.1,.69,8.91-.12,9.22,4.94,.03,.82,.16,1.64,.36,2.44,.77,2.8,2.77,3.92,6.93,2.01,2.62-1.23,3.24-2.77,6.22-2.39,2.14,.28,3.67,1.74,6.01,1.55,.33,0,.65-.09,.94-.23,.28-.2,.53-.46,.71-.76,2.07-2.96,3.72-1.76,7.13-1.91,.27,0,.53-.07,.76-.21,.2-.22,.3-.5,.3-.79,.09-.85,.01-1.71-.21-2.54-.19-.41-.24-.87-.15-1.32,.21-.59,.91-.81,1.48-1.09,.21-.12,.41-.25,.6-.4,1.41-1.09,2-2.83,1.73-4.47,.75-.22,1.6-.31,2.74-.17,2.7,.31,4.66,2.21,7.64,1.96,.41,0,.82-.11,1.19-.3,.37-.25,.67-.58,.91-.95,2.63-3.77,4.72-2.24,9.05-2.42,.34,.02,.68-.08,.95-.28,.25-.27,.39-.63,.38-1,.11-1.08,.02-2.17-.28-3.21-.22-.52-.29-1.09-.18-1.65,.23-.74,1.15-1.04,1.88-1.37,.26-.15,.51-.31,.75-.49,2.61-2.02,3.1-5.77,1.08-8.38-.84-.95-2.14-1.78-1.83-3.16s2.16-1.6,3.41-2.26c3-1.58,2.58-7.34,.33-9.27Zm-143.2,18.07c-.19-.37-.28-.77-.17-1.24,.12-.54,.49-.9,.95-1.18-.19,.81-.47,1.63-.78,2.43Z" style="fill:#e6e6e6;"></path><path d="M135.74,153.07s10.82,15.31,14.55,20.17c3.74,4.86,22.41,35.1,24.94,55.1,.26,2.12,.54,3.97,.81,5.56-8.03,53.01-6.78,149.97-6.49,166.57h25.43c.23-18.72,2.39-189.83,3.19-195.05,.84-5.53,11.52-26.59,27.9-35.23,16.38-8.64,30.62-37.27,30.62-37.27h-5.24s-9.71,17.53-23.52,27.25c-1.98,1.37-4.06,2.6-6.21,3.69,.04-10.56-1.83-21.03-5.5-30.93l-2.83,2.6c3.82,15.64,3.29,25.65,2.16,31.39-5.22,2.44-10.03,5.67-14.27,9.56-14.34-18.64-22.39-61.26-22.39-61.26l-3.67,2.01c1.04,8.8,2.62,17.53,4.74,26.14,2.68,11.03,10.59,31.79,14.26,41.16-4.4,6.32-8.03,13.14-10.82,20.31-.39-.6-.85-1.16-1.38-1.65-9.33-8.45-26.88-48.3-26.88-48.3-4.25-9.27,2.24-33.6,2.24-33.6h-4.94l-2.19,21.27-12.31-13.43-2.24,1.86,13.05,16.81,6.72,21.29-17.53-19.43-2.21,3.41Z" style="fill:#ebebeb;"></path></g><g><path d="M652.4,168.58c-1.86-1.12-4.02-1.66-6.19-1.56-1.32-1.6-.26-4.06,1.05-5.7,1.3-1.64,2.86-3.52,2.37-5.57-.73-3.07-5.04-3.18-8.13-2.58-.87-2-1.44-4.13-1.69-6.3-.55-2.13-2.24-4.27-4.42-4.08-2.18,.19-3.29,2.56-5.29,3.03-.15,.04-.31,.03-.47,.04-1.39-3.34-2.92-7.51,1.77-9.39,1.58-.44,2.97-1.41,3.93-2.75,.85-2.07,.11-4.45-1.77-5.66-1.86-1.12-4.02-1.67-6.19-1.56-1.34-1.62-.26-4.06,1.02-5.7,1.28-1.64,2.88-3.54,2.39-5.57-.75-3.07-5.04-3.18-8.15-2.58-.86-2.01-1.43-4.13-1.69-6.3-.56-2.13-2.13-4.27-4.4-4.08-2.26,.19-3.29,2.56-5.29,3.03s-4.27-1.52-6.17-3.05c-.31-.25-.67-.48-1.04-.7,.76-1.16,1.29-2.4,.97-3.7-.73-3.07-5.04-3.18-8.13-2.58-.88-2.04-1.45-4.2-1.69-6.4-.55-2.13-2.24-4.27-4.42-4.08-2.18,.19-3.29,2.56-5.29,3.03-2.33,.56-4.27-1.52-6.17-3.05-1.9-1.54-5.02-2.5-6.25-.47-.77,1.22-.32,2.9-1.09,4.12-1.37,2.13-4.57,.77-6.57-.7-2.01-1.47-5.17-2.8-6.57-.75-.36,.67-.62,1.39-.77,2.13-.62,1.74-2.05,2.92-3.6,4.01-.86-2-1.43-4.11-1.68-6.27-.55-2.13-2.13-4.27-4.4-4.06-2.26,.21-3.29,2.54-5.29,3.01-2.01,.47-4.27-1.49-6.17-3.05-1.9-1.56-5.02-2.5-6.28-.47-.75,1.22-.3,2.92-1.09,4.12-1.34,2.13-4.57,.79-6.55-.68-1.99-1.47-5.19-2.82-6.6-.77-.35,.68-.61,1.39-.77,2.13-.94,2.73-3.88,4.08-6.17,5.83-2.28,1.75-4.12,5.23-2.13,7.36,.96,1.05,2.65,1.47,3.12,2.82,.6,1.66-1.11,3.18-2.48,4.27-2.24,1.9-2.67,7.64,.32,9.22,.52,.27,1.14,.47,1.7,.69-2.29,.46-4.21-1.54-6.08-3.06-1.9-1.54-5.02-2.52-6.28-.49-.75,1.22-.3,2.92-1.09,4.12-1.34,2.13-4.57,.79-6.57-.68-2.01-1.47-5.17-2.82-6.57-.77-.34,.68-.6,1.39-.77,2.13-.94,2.73-3.88,4.08-6.19,5.83-2.31,1.75-4.1,5.23-2.13,7.36,.94,1.05,2.63,1.47,3.12,2.82,.49,1.34-1.13,3.18-2.48,4.27-.75,.64-1.29,1.7-1.58,2.89-.83-.34-1.64-.82-2.31-1.31-1.99-1.47-5.19-2.82-6.57-.77-.36,.67-.63,1.39-.79,2.13-.94,2.73-3.88,4.08-6.17,5.83-2.28,1.75-4.12,5.23-2.13,7.36,.96,1.05,2.65,1.47,3.12,2.82,.6,1.66-1.11,3.16-2.48,4.27-2.13,1.92-2.67,7.66,.32,9.24,1.26,.64,3.1,.85,3.39,2.24,.3,1.39-.98,2.13-1.81,3.14-2,2.59-1.53,6.32,1.07,8.32,.24,.18,.49,.35,.75,.49,.73,.34,1.6,.62,1.86,1.39,.12,.56,.06,1.14-.17,1.66-.28,1.03-.38,2.11-.28,3.18,0,.37,.14,.73,.38,1,.28,.19,.61,.28,.94,.28,4.27,.19,6.4-1.34,9.03,2.41,.22,.38,.53,.7,.9,.94,.36,.2,.76,.3,1.17,.3,2.97,.26,4.89-1.6,7.6-1.94,1.12-.14,1.96-.05,2.69,.16-.23,1.6,.36,3.28,1.73,4.34,.19,.15,.4,.29,.62,.41,.56,.28,1.26,.49,1.47,1.09,.09,.45,.04,.91-.15,1.32-.22,.81-.29,1.66-.21,2.5-.07,.49,.28,.94,.77,1.01,.09,.01,.19,.01,.28,0,3.39,.15,5.02-1.05,7.09,1.9,.18,.29,.42,.55,.7,.75,.29,.15,.61,.23,.94,.23,2.33,.19,3.86-1.26,5.98-1.54,2.97-.36,3.59,1.15,6.19,2.37,4.16,2.09,6.15,.9,6.92-1.9,.2-.79,.32-1.6,.36-2.41,.3-5.02,5.1-4.27,9.18-4.91,3.18-.53-5.25-8.54,1.17-11.19,1.25-.33,2.34-1.09,3.1-2.13,.66-1.63,.07-3.5-1.41-4.46-1.47-.88-3.16-1.3-4.87-1.22-.42-.52-.53-1.13-.44-1.77,.05,.07,.1,.12,.15,.19,.23,.38,.53,.71,.9,.96,.37,.18,.78,.29,1.2,.3,2.97,.23,4.89-1.6,7.6-1.94,3.76-.49,4.55,1.45,7.86,3.01,2.45,1.23,4.31,1.53,5.69,1.12,.38,.78,.92,1.5,1.66,2.07,.25,.19,.51,.37,.79,.52,.73,.34,1.6,.62,1.86,1.39,.11,.56,.05,1.14-.17,1.66-.28,1.03-.38,2.11-.28,3.18,0,.37,.13,.73,.38,1,.28,.19,.6,.28,.94,.28,4.27,.19,6.4-1.34,9.01,2.41,.22,.38,.53,.7,.9,.94,.37,.19,.78,.3,1.2,.3,2.95,.26,4.89-1.6,7.6-1.94,3.76-.47,4.55,1.45,7.86,3.01,5.17,2.54,7.68,.98,8.67-2.56,.27-1,.43-2.04,.47-3.07,.3-5,4.04-5.47,8.17-5.84,.18,1.52,.93,2.97,2.23,3.98,.25,.19,.51,.37,.79,.52,.7,.34,1.58,.62,1.86,1.37,.11,.57,.05,1.15-.17,1.69-.29,1.03-.39,2.11-.3,3.18,0,.37,.14,.73,.38,1,.28,.19,.62,.29,.96,.28,4.27,.19,6.4-1.34,9.01,2.41,.22,.38,.53,.7,.9,.94,.36,.2,.76,.3,1.17,.3,2.97,.26,4.91-1.6,7.6-1.94,3.76-.47,4.55,1.45,7.86,3.01,5.17,2.58,7.68,1.09,8.67-2.45,.25-1.01,.4-2.04,.45-3.07,.38-6.4,6.4-5.38,11.66-6.23,4.06-.68-6.66-10.91,1.49-14.2,1.59-.43,2.98-1.41,3.93-2.75,.85-2.07,.11-4.45-1.77-5.66Zm-54.67,9.07c.47,.27,.84,.6,.96,1.11,.11,.46,0,.87-.2,1.25-.3-.77-.58-1.57-.76-2.36Z" style="fill:#e6e6e6;"></path><path d="M609.99,181.9s-10.78,15.24-14.49,20.07c-3.71,4.82-22.29,34.9-24.8,54.82-.28,2.13-.55,3.95-.81,5.55,7.98,52.72,6.75,149.19,6.4,165.71h-25.34c-.23-18.64-2.39-188.87-3.18-194.06-.83-5.51-11.42-26.45-27.75-35.05-16.33-8.6-30.4-37.12-30.4-37.12h5.21s9.67,17.44,23.48,27.11c1.98,1.35,4.04,2.58,6.17,3.67-.06-10.5,1.77-20.93,5.4-30.78l2.82,2.58c-3.8,15.56-3.29,25.62-2.13,31.23,5.19,2.43,9.99,5.64,14.22,9.52,14.26-18.55,22.26-60.94,22.26-60.94l3.67,2.01c-1.08,8.77-2.69,17.47-4.82,26.04-2.67,10.97-10.54,31.64-14.2,41.01,4.34,6.3,7.92,13.08,10.67,20.21,.39-.61,.85-1.16,1.39-1.64,9.29-8.41,26.75-48.07,26.75-48.07,4.27-9.22-2.24-33.43-2.24-33.43h4.89l2.13,21.18,12.25-13.36,2.24,1.86-12.79,16.76-6.7,21.18,17.46-19.32,2.24,3.29Z" style="fill:#ebebeb;"></path></g><path d="M31.15,422.91H718.71c7.66,0,13.87,4.64,13.87,10.35h0v15.58H17.28v-15.6c0-5.71,6.22-10.34,13.87-10.34Z" style="fill:#f0f0f0;"></path><g id="freepik--freepik--Streetlight--inject-443--inject-41"><polygon points="87.02 108.3 82.79 149.01 61.57 149.01 57.34 108.3 87.02 108.3" style="fill:#e0e0e0;"></polygon><rect x="68.24" y="140.26" width="7.89" height="276.59" style="fill:#e0e0e0;"></rect><polygon points="80.56 146.53 63.8 146.53 60.09 110.78 84.27 110.78 80.56 146.53" style="fill:#f0f0f0;"></polygon><polygon points="69.97 147.08 68.83 147.08 67.59 109.54 68.73 109.54 69.97 147.08" style="fill:#e0e0e0;"></polygon><path d="M72.18,95.22s-12.58,12.39-22.22,12.39l2.99,1.97h38.41l2.99-1.97c-9.59,.02-22.17-12.39-22.17-12.39Z" style="fill:#e0e0e0;"></path></g><g id="freepik--freepik--Streetlight--inject-443-2--inject-41"><polygon points="694.28 95.86 689.87 139 667.8 139 663.39 95.86 694.28 95.86" style="fill:#e0e0e0;"></polygon><rect x="674.73" y="129.73" width="8.21" height="293.18" style="fill:#e0e0e0;"></rect><polygon points="687.55 136.38 670.12 136.38 666.25 98.49 691.41 98.49 687.55 136.38" style="fill:#f0f0f0;"></polygon><polygon points="676.54 136.97 675.35 136.97 674.06 97.17 675.25 97.17 676.54 136.97" style="fill:#e0e0e0;"></polygon><path d="M678.83,81.99s-13.08,13.13-23.11,13.13l3.11,2.09h39.96l3.11-2.09c-9.98,.03-23.06-13.13-23.06-13.13Z" style="fill:#e0e0e0;"></path></g><g id="freepik--freepik--Bench--inject-443--inject-41"><polygon points="478.26 424.94 484.66 424.94 471.58 351.15 465.19 351.15 478.26 424.94" style="fill:#e0e0e0;"></polygon><polygon points="279.54 424.94 285.93 424.94 272.86 351.15 266.46 351.15 279.54 424.94" style="fill:#e0e0e0;"></polygon><rect x="223.91" y="388.05" width="251.02" height="6.47" style="fill:#e0e0e0;"></rect><polygon points="419.29 424.94 412.89 424.94 425.97 351.15 432.36 351.15 419.29 424.94" style="fill:#e0e0e0;"></polygon><polygon points="220.56 424.94 214.17 424.94 227.24 351.15 233.63 351.15 220.56 424.94" style="fill:#e0e0e0;"></polygon><polygon points="278.56 348.28 284.92 348.28 295.57 289.07 289.21 289.07 278.56 348.28" style="fill:#e0e0e0;"></polygon><polygon points="463.07 348.28 469.44 348.28 480.09 289.07 473.73 289.07 463.07 348.28" style="fill:#e0e0e0;"></polygon><polygon points="370.82 348.28 377.17 348.28 387.83 289.07 381.46 289.07 370.82 348.28" style="fill:#e0e0e0;"></polygon><polygon points="267.56 293.11 492.84 293.11 494.83 282.02 269.56 282.02 267.56 293.11" style="fill:#e0e0e0;"></polygon><polygon points="263.95 313.16 489.23 313.16 491.23 302.07 265.95 302.07 263.95 313.16" style="fill:#e0e0e0;"></polygon><polygon points="260.34 333.2 485.62 333.2 487.62 322.12 262.34 322.12 260.34 333.2" style="fill:#e0e0e0;"></polygon><rect x="212.82" y="346.54" width="271.14" height="7.66" style="fill:#e0e0e0;"></rect></g></g><g id="freepik--Shadow--inject-41"><path d="M657.2,451.69c0,3.39-126.35,6.13-282.2,6.13s-282.2-2.75-282.2-6.13,126.35-6.13,282.2-6.13,282.2,2.75,282.2,6.13Z" style="fill:#f5f5f5;"></path></g><g id="freepik--Bike_Parking--inject-41"><g><g><path d="M614.82,447.82h-5v-82.02c0-19.26-15.67-34.92-34.92-34.92s-34.93,15.67-34.93,34.92v82.02h-5v-82.02c0-22.01,17.91-39.92,39.93-39.92s39.92,17.91,39.92,39.92v82.02Z" style="fill:#263238;"></path><path d="M614.82,447.82h-5v-82.02c0-19.26-15.67-34.92-34.92-34.92s-34.93,15.67-34.93,34.92v82.02h-5v-82.02c0-22.01,17.91-39.92,39.93-39.92s39.92,17.91,39.92,39.92v82.02Z" style="fill:#fff; opacity:.1;"></path></g><g><path d="M631.75,447.82h-5v-82.02c0-19.26-15.67-34.92-34.93-34.92s-34.93,15.67-34.93,34.92v82.02h-5v-82.02c0-22.01,17.91-39.92,39.93-39.92s39.93,17.91,39.93,39.92v82.02Z" style="fill:#263238;"></path><path d="M631.75,447.82h-5v-82.02c0-19.26-15.67-34.92-34.93-34.92s-34.93,15.67-34.93,34.92v82.02h-5v-82.02c0-22.01,17.91-39.92,39.93-39.92s39.93,17.91,39.93,39.92v82.02Z" style="fill:#fff; opacity:.2;"></path></g></g></g><g id="freepik--Plants--inject-41"><g><path d="M674.08,428.49c-.58-.97-1.86-2.16-2.76-2.84-.9-.68-2.13-1.02-3.18-.59-1.33,.54-1.94,2.18-1.76,3.6,.19,1.43,.87,3.23,1.68,4.42,3.46,5.07,6.66,9.71,12.01,13.48,0-6.29-2.79-12.7-5.99-18.07Z" style="fill:#407BFF;"></path><path d="M691.71,429.36c-1.2-.65-3.42,.27-4.51,1.09-2.16,1.62-3.48,3.32-4.8,5.68-1.67,2.99-1.87,7.2-2.08,9.87,4.23-3.43,8.54-6.96,11.44-11.57,.51-.81,.97-1.67,1.07-2.62,.09-.95-.28-1.99-1.12-2.45Z" style="fill:#407BFF;"></path><path d="M680.71,449.24c-.12,0-.22-.08-.24-.2-1-4.63-2.78-9.02-5.28-13.05-.07-.12-.04-.27,.08-.34,.12-.07,.27-.04,.34,.08,2.53,4.08,4.32,8.52,5.34,13.21,.03,.13-.06,.27-.19,.3-.02,0-.04,0-.05,0Z" style="fill:#263238;"></path><path d="M680.15,446.65s-.06,0-.08-.01c-.13-.05-.2-.19-.15-.32,1.14-3.13,2.79-6.01,4.92-8.57,.09-.11,.25-.12,.35-.03,.11,.09,.12,.25,.03,.35-2.09,2.51-3.72,5.34-4.84,8.42-.04,.1-.13,.17-.24,.17Z" style="fill:#263238;"></path></g><g><path d="M66.67,427.83c-.58-.97-1.86-2.16-2.76-2.84-.9-.68-2.13-1.02-3.18-.59-1.33,.54-1.94,2.18-1.76,3.6,.19,1.43,.87,3.23,1.68,4.42,3.46,5.07,6.66,9.71,12.01,13.48,0-6.29-2.79-12.7-5.99-18.07Z" style="fill:#407BFF;"></path><path d="M84.3,428.7c-1.2-.65-3.42,.27-4.51,1.09-2.16,1.62-3.48,3.32-4.8,5.68-1.67,2.99-1.87,7.2-2.08,9.87,4.23-3.43,8.54-6.96,11.44-11.57,.51-.81,.97-1.67,1.07-2.62,.09-.95-.28-1.99-1.12-2.45Z" style="fill:#407BFF;"></path><path d="M73.29,448.58c-.12,0-.22-.08-.24-.2-1-4.63-2.78-9.02-5.28-13.05-.07-.12-.04-.27,.08-.34,.12-.07,.27-.04,.34,.08,2.53,4.08,4.32,8.52,5.34,13.21,.03,.13-.06,.27-.19,.3-.02,0-.04,0-.05,0Z" style="fill:#263238;"></path><path d="M72.74,446s-.06,0-.09-.01c-.13-.05-.2-.19-.15-.32,1.13-3.13,2.79-6.01,4.92-8.57,.09-.11,.25-.12,.35-.03,.11,.09,.12,.25,.03,.35-2.09,2.51-3.72,5.34-4.84,8.42-.04,.1-.13,.17-.23,.17Z" style="fill:#263238;"></path></g></g><g id="freepik--Sign--inject-41"><g><g><rect x="497.03" y="188.38" width="6.4" height="259.44" style="fill:#263238;"></rect><rect x="497.03" y="188.38" width="6.4" height="259.44" style="fill:#fff; opacity:.6;"></rect></g><rect x="497.03" y="201.33" width="6.4" height="3.72" style="opacity:.3;"></rect><rect x="467.33" y="112.52" width="65.6" height="88.81" rx="5.37" ry="5.37" style="fill:#407BFF;"></rect><path d="M526.02,197.18h-51.57c-1.65,0-2.99-1.34-2.99-2.99V119.57c0-1.65,1.34-2.99,2.99-2.99h51.57c1.65,0,2.99,1.34,2.99,2.99v74.62c0,1.65-1.34,2.99-2.99,2.99Zm-51.57-80.1c-1.37,0-2.49,1.12-2.49,2.49v74.62c0,1.37,1.12,2.49,2.49,2.49h51.57c1.37,0,2.49-1.12,2.49-2.49V119.57c0-1.37-1.12-2.49-2.49-2.49h-51.57Z" style="fill:#fff;"></path><g><path d="M507.44,130.73c1.81,.82,3.2,1.98,4.18,3.48,.98,1.5,1.46,3.29,1.46,5.34s-.49,3.81-1.46,5.32c-.98,1.52-2.37,2.68-4.18,3.48-1.81,.81-3.94,1.21-6.39,1.21h-5.58v7.64h-6.41v-27.71h12c2.45,0,4.58,.41,6.39,1.23Zm-2.35,12.37c1-.83,1.5-2.01,1.5-3.54s-.5-2.75-1.5-3.58c-1-.83-2.47-1.25-4.39-1.25h-5.23v9.62h5.23c1.93,0,3.39-.42,4.39-1.25Z" style="fill:#fff;"></path><g><path d="M489.87,187.88c-4.04,0-7.33-3.29-7.33-7.33s3.29-7.33,7.33-7.33,7.33,3.29,7.33,7.33-3.29,7.33-7.33,7.33Zm0-13.66c-3.49,0-6.33,2.84-6.33,6.33s2.84,6.33,6.33,6.33,6.33-2.84,6.33-6.33-2.84-6.33-6.33-6.33Z" style="fill:#fff;"></path><path d="M512.25,187.88c-4.04,0-7.33-3.29-7.33-7.33s3.29-7.33,7.33-7.33,7.33,3.29,7.33,7.33-3.29,7.33-7.33,7.33Zm0-13.66c-3.49,0-6.33,2.84-6.33,6.33s2.84,6.33,6.33,6.33,6.33-2.84,6.33-6.33-2.84-6.33-6.33-6.33Z" style="fill:#fff;"></path><path d="M512.25,181.05c-.19,0-.37-.11-.46-.29l-4.29-9.51h-11.29l-5.86,8.81h9.72c.28,0,.5,.22,.5,.5s-.22,.5-.5,.5h-10.65c-.18,0-.35-.1-.44-.26-.09-.16-.08-.36,.02-.51l6.53-9.81c.09-.14,.25-.22,.42-.22h11.88c.2,0,.37,.12,.46,.29l4.43,9.81c.11,.25,0,.55-.25,.66-.07,.03-.14,.04-.21,.04Z" style="fill:#fff;"></path><path d="M507.83,171.24c-.2,0-.38-.12-.46-.31l-1.6-3.82c-.11-.25,.01-.54,.26-.65,1.33-.57,3.5-1.5,3.67-1.59,.25-.12,.55-.02,.67,.22,.12,.25,.02,.55-.22,.67-.2,.1-2.29,1-3.26,1.42l1.41,3.36c.11,.25-.01,.55-.27,.65-.06,.03-.13,.04-.19,.04Z" style="fill:#fff;"></path><path d="M500.07,181.05s-.05,0-.08,0c-.17-.03-.32-.14-.38-.3-1.98-4.66-5.03-11.74-5.4-12.39-.11-.13-.15-.31-.09-.48,.09-.26,.37-.4,.63-.32,.28,.09,.4,.13,5.47,12.06l7.48-8.65c.18-.21,.5-.23,.7-.05,.21,.18,.23,.5,.05,.71l-8,9.26c-.1,.11-.23,.17-.38,.17Z" style="fill:#fff;"></path><path d="M491.89,167.32h0c0,.39,.32,.71,.71,.71h5.08c.39,0,.71-.32,.71-.71h0c0-.39-.32-.71-.71-.71h-5.08c-.39,0-.71,.32-.71,.71Z" style="fill:#fff;"></path></g></g><polygon points="532.93 121.56 467.33 154.19 467.33 168.03 532.93 135.4 532.93 121.56" style="fill:#fff; opacity:.2;"></polygon><polygon points="533.04 140.44 467.43 173.07 467.43 180.55 533.04 148.44 533.04 140.44" style="fill:#fff; opacity:.2;"></polygon></g></g><g id="freepik--Character--inject-41"><g><g><g><path d="M331.11,189.56l3.45,26.95,27.01,14.94-7.41,7.41-26.81-7.85c-4.66-1.29-8.13-5.18-8.88-9.95l-4.06-25.68,16.71-5.82Z" style="fill:#e9b376;"></path><path d="M330.16,168.89c-2.58-5.89-8.39-6.89-10.05-6.83-4.64,.18-.85,8.87-2.9,13.03-4.39,8.64-.12,30.2-.12,30.2l22.76-3.73c-2.31-12.46-6.65-25.27-9.7-32.68Z" style="fill:#263238;"></path><polygon points="324.93 204.52 325.29 185.97 330.16 203.28 324.93 204.52" style="opacity:.3;"></polygon></g><g><path d="M252.73,189c-6.96,7.69-8.74,19.3-9.71,29.67-.96,10.23-.93,20.55,.11,30.77,.26,2.6,.65,5.26,1.95,7.46,2.82,4.76,8.78,5.81,14.02,6.41,5.08,.58,10.92,.89,14.5-3,2.82-3.06,3.27-7.73,3.55-12.01,1.14-17.01,1.8-36.08,2.8-53.68,.38-6.64-4.55-12.41-10.77-12.23-6.24,.19-12.95,2.73-16.46,6.61Z" style="fill:#407BFF;"></path><g style="opacity:.3;"><path d="M252.73,189c-6.96,7.69-8.74,19.3-9.71,29.67-.96,10.23-.93,20.55,.11,30.77,.26,2.6,.65,5.26,1.95,7.46,2.82,4.76,8.78,5.81,14.02,6.41,5.08,.58,10.92,.89,14.5-3,2.82-3.06,3.27-7.73,3.55-12.01,1.14-17.01,1.8-36.08,2.8-53.68,.38-6.64-4.55-12.41-10.77-12.23-6.24,.19-12.95,2.73-16.46,6.61Z" style="fill:#fff;"></path></g><path d="M273.56,235.48l-31.21-3.54c-.06,5.84,.2,11.68,.78,17.5,.26,2.6,.65,5.26,1.95,7.46,2.82,4.76,8.78,5.81,14.02,6.41,5.08,.58,10.92,.89,14.5-3,.89-.97,1.53-2.11,2.02-3.33l-2.06-21.49Z" style="fill:#fff; opacity:.3;"></path></g><g><polygon points="334.53 414.22 342.71 436.28 350.12 433.89 347.56 410.6 334.53 414.22" style="fill:#e9b376;"></polygon><g><path d="M341.91,445.56l6.72-.05s1.35-.73,2.15-.64c.8,.09,3.57,.6,3.57,.6l17.84-.13c-.15-.75-.33-1.41-.53-2-.25-.72-.54-1.33-.86-1.84-1.12-1.8-2.63-2.43-4.27-2.52-2.5-.14-10.4-5.33-10.4-5.33,0,0-2.86-.98-3.04-4.01-.07-1.14-1.76-2.51-2.56-2.62-1.63-.22-2.53,.82-2.76,2.45l-.26,1.9-3.77-.56s-3.85-1.9-3.65-.03c.11,1.07,.79,5.83,1.23,9.6,.1,.88,.2,1.71,.28,2.44h0c.19,1.62,.31,2.74,.31,2.74Z" style="fill:#263238;"></path><path d="M372.18,445.33l-17.84,.13s-2.77-.51-3.57-.6c-.8-.09-2.15,.64-2.15,.64l-6.72,.05s-.13-1.11-.31-2.74l30.05,.51c.21,.59,.39,1.25,.53,2Z" style="fill:#e0e0e0;"></path><path d="M360.05,435.57c-.08-.08-.21-.09-.31-.02-.44,.3-.81,.71-1.06,1.24-.13,.28,.27,.54,.4,.26,.22-.46,.54-.83,.93-1.09,.13-.09,.15-.27,.04-.37h0Z" style="fill:#fff;"></path><path d="M358.62,434.74c-.08-.08-.21-.09-.31-.02-.44,.3-.81,.71-1.06,1.24-.13,.27,.27,.54,.4,.26,.22-.46,.54-.83,.93-1.09,.13-.09,.15-.27,.04-.38h0Z" style="fill:#fff;"></path><path d="M357.15,433.97c-.08-.08-.21-.09-.31-.02-.44,.3-.81,.71-1.06,1.24-.13,.28,.27,.54,.4,.26,.22-.46,.54-.83,.93-1.09,.13-.09,.15-.27,.04-.38h0Z" style="fill:#fff;"></path></g></g><g><polygon points="255.07 399.06 244.46 420.06 251.26 423.86 266.59 406.15 255.07 399.06" style="fill:#e9b376;"></polygon><g><path d="M237.12,425.78l4.61,4.89s1.46,.49,1.93,1.14c.47,.65,1.99,3.02,1.99,3.02l12.23,12.98c.45-.62,.81-1.2,1.1-1.75,.36-.67,.61-1.3,.76-1.88,.55-2.04-.01-3.58-1.06-4.84-1.6-1.93-3.17-11.24-3.17-11.24,0,0-1.23-2.76,.87-4.95,.79-.82,.65-3,.18-3.66-.95-1.35-2.32-1.3-3.67-.36l-1.57,1.1-2.16-3.15s-1.22-4.11-2.46-2.69c-.71,.81-3.73,4.55-6.2,7.43-.58,.67-1.12,1.31-1.6,1.87h0c-1.06,1.24-1.79,2.09-1.79,2.09Z" style="fill:#263238;"></path><path d="M257.88,447.82l-12.23-12.98s-1.51-2.38-1.99-3.02c-.48-.65-1.93-1.14-1.93-1.14l-4.61-4.89s.73-.85,1.79-2.09l20.07,22.37c-.29,.55-.66,1.14-1.1,1.75Z" style="fill:#e0e0e0;"></path><path d="M256.78,432.28c0-.12-.08-.21-.19-.24-.52-.12-1.07-.11-1.62,.07-.29,.09-.21,.56,.08,.47,.49-.15,.98-.17,1.43-.06,.15,.03,.3-.07,.3-.23h0Z" style="fill:#fff;"></path><path d="M256.41,430.68c0-.12-.08-.21-.19-.24-.52-.12-1.07-.11-1.62,.07-.29,.09-.21,.56,.08,.47,.49-.15,.98-.17,1.43-.06,.15,.03,.3-.07,.3-.23h0Z" style="fill:#fff;"></path><path d="M255.98,429.08c0-.12-.08-.21-.19-.24-.52-.12-1.07-.11-1.62,.07-.29,.09-.21,.56,.08,.47,.49-.15,.98-.17,1.43-.06,.15,.03,.3-.07,.3-.23h0Z" style="fill:#fff;"></path></g></g><g><path d="M312,340.03c-.62,1.99-1.21,3.79-1.73,5.35-5.51,15.94-48.07,76.45-48.07,76.45l-17.43-13.23s24.95-52.21,39.9-70.35c0,0,.66-26.5,2.53-46.33,6.29,16.58,14.59,32.68,24.8,48.12Z" style="fill:#407BFF;"></path><path d="M312,340.03c-.62,1.99-1.21,3.79-1.73,5.35-5.51,15.94-48.07,76.45-48.07,76.45l-17.43-13.23s24.95-52.21,39.9-70.35c0,0,.66-26.5,2.53-46.33,6.29,16.58,14.59,32.68,24.8,48.12Z" style="opacity:.4;"></path><path d="M351.61,418.55l-18.11,5.43c-17.04-47.44-24.53-80.68-24.53-80.68-.69-1.11-1.37-2.21-2.03-3.29-9.5-15.45-17.22-31.56-23.07-48.15h0c-3.96-6.65-6.28-14.17-6.61-21.9-.69-16.02,4.42-26.16,4.42-26.16l6.39-3.23h.13l39.94,7.16s-3.22,11.33-7.02,31.05l14.51,56.51,15.98,83.25Z" style="fill:#407BFF;"></path><path d="M351.61,418.55l-18.11,5.43c-17.04-47.44-24.53-80.68-24.53-80.68-.69-1.11-1.37-2.21-2.03-3.29-9.5-15.45-17.22-31.56-23.07-48.15h0c-3.96-6.65-6.28-14.17-6.61-21.9-.69-16.02,4.42-26.16,4.42-26.16l6.39-3.23h.13l39.94,7.16s-3.22,11.33-7.02,31.05l14.51,56.51,15.98,83.25Z" style="opacity:.3;"></path><path d="M277.19,262.91v4.42s8.06,1.5,22.64,3.05c14.58,1.55,23.11-.69,23.11-.69l.8-3.76-46.56-3.02Z" style="opacity:.3;"></path></g><path d="M276.25,177.39l-3.88,84.73c18.35,6.01,38.26,6.62,57.93,2.83,0,0,1.21-4.18-.52-6.19-1.16-1.35-2.87-49.15-3.69-76.03-.05-2.29,2.78-11.86,.82-17.05-1.37-3.62-7.25-3.67-8.85-3.74h-22.48c-1.5-.02-13.37,.99-15.64,2.33-3.88,2.29-3.79,6.28-3.68,13.12Z" style="fill:#263238;"></path><polygon points="274.71 207.79 279.4 207.96 281.13 190.12 275.06 204.19 274.71 207.79" style="opacity:.3;"></polygon><g><path d="M295.08,111.91c.5-.41,1.21-.53,1.84-.37s1.18,.57,1.57,1.09l-4.01,1.03c-.17-.63,.09-1.33,.6-1.74Z" style="fill:#407BFF;"></path><path d="M314.68,121.27l1.6,2.32s4.64-.91,3.7,3.45c1.45,.96,1.85,2.92,.88,4.37-.32,.48-.76,.86-1.27,1.1,0,0-.28,7.21-6.64,2.76s-4.06-13.86-4.06-13.86l5.79-.14Z" style="fill:#263238;"></path><g><g><g><path d="M294.17,161.71s.89-6.4-2.86-17.51c0-.01,.58-.3,.58-.31-.52-1.55-1.06-2.99-1.56-4.23-.01-.04-.01-.05-.01-.05l15.79,8.84c-.2,3.61,1.39,10.5,2.29,13.4,0,0,2.17,5.23-4.89,5.77-5.16,.39-9.34-5.92-9.34-5.92Z" style="fill:#e9b376;"></path><path d="M306.6,153.5l-8.94-1.61c.92,2.72,3.5,5.88,9.67,5.87,0,0-.75-3.05-.73-4.26Z" style="opacity:.2;"></path></g><g><path d="M315.59,121.42c1.97,3.48,2.95,11.28-2.79,9.89-5.74-1.38-.59-15.87,2.79-9.89Z" style="fill:#263238;"></path><path d="M285.59,131.26l-.26,3.46s-5.67,.27-2.83,5.66c0,0-3.39,6.31,3.25,6.21,0,0,.72,5.6,6.08,1.9s5.46-13.78,5.46-13.78l-2.39-10.17-7.05,4.18-2.26,2.54Z" style="fill:#263238;"></path><path d="M289.87,132.15c1.46,9.71,2.09,15.21,7.47,19.74,8.09,6.81,19.49,1.41,20.96-8.57,1.32-8.98-1.29-23.34-11.2-26.29-9.76-2.9-18.69,5.41-17.23,15.12Z" style="fill:#e9b376;"></path><path d="M286.74,140.63c1,2.44,3.04,4.19,5.06,4.98,3.04,1.19,4.91-1.46,4.37-4.51-.49-2.75-2.67-6.67-5.86-6.56-3.15,.11-4.71,3.3-3.57,6.1Z" style="fill:#e9b376;"></path><path d="M304.09,133.99c.09,1,.69,1.76,1.34,1.69,.65-.06,1.11-.93,1.02-1.92-.09-1-.69-1.76-1.34-1.69-.65,.06-1.11,.93-1.02,1.92Z" style="fill:#263238;"></path><path d="M313.9,133.74c.09,1,.69,1.76,1.34,1.69,.65-.06,1.11-.93,1.02-1.92-.09-1-.69-1.76-1.34-1.69-.65,.06-1.11,.93-1.02,1.92Z" style="fill:#263238;"></path><path d="M310.67,132.79s3.6,4.68,4.79,6.61c-1.28,1.38-3.72,1.01-3.72,1.01l-1.07-7.63Z" style="fill:#d58745;"></path><path d="M301.23,129.24c.16,.05,.33,.01,.46-.11,1.54-1.43,3.22-1.05,3.24-1.05,.25,.06,.51-.09,.57-.35,.06-.25-.09-.5-.34-.56-.09-.02-2.2-.5-4.11,1.28-.19,.18-.2,.47-.02,.66,.06,.06,.13,.1,.2,.13Z" style="fill:#263238;"></path></g><path d="M293.44,140.51c-.12,0-.22-.08-.24-.2-.16-.79-.53-1.53-1.06-2.13-.35-.39-.91-.88-1.62-.99-.64-.1-1.3,.18-1.56,.67-.07,.12-.22,.16-.34,.1-.12-.07-.16-.22-.1-.34,.37-.67,1.23-1.05,2.08-.92,.87,.13,1.52,.7,1.92,1.16,.59,.67,1,1.49,1.18,2.36,.03,.14-.06,.27-.2,.29-.02,0-.03,0-.05,0Z" style="opacity:.2;"></path></g><g><path d="M302.18,140.97l8.61,2.61c-.47,.95-.95,1.91-1.65,2.7-.7,.79-1.61,1.15-2.67,1.21-1.51,.09-2.96-.72-3.64-2.08-.67-1.36-.74-2.93-.65-4.44Z"></path><path d="M310.1,143.37s-.55,1.09-1.07,1.26-6.88-2.08-6.88-2.08l.03-1.58,7.92,2.4Z" style="fill:#fff;"></path><path d="M307.55,147.3s-.48-1.48-2.25-2.13c-1.78-.64-2.68-.25-2.68-.25,0,0,.58,1.76,2.25,2.32,1.67,.56,2.68,.06,2.68,.06Z" style="fill:#de5753;"></path></g></g><g><path d="M289.84,135.63s.21,5.07,3.55,4.43c3.34-.64,.12-6.38,1.46-8.34,1.71-2.13,2.24-4.98,1.4-7.58-1.12-2.88-7.55,5.02-7.55,5.02l1.14,6.47Z" style="fill:#263238;"></path><path d="M285.53,135.53c8.66-7.83,19.99-12.04,31.65-11.77,0,0-7.08-17.09-21.97-10.67-14.46,6.24-9.68,22.44-9.68,22.44Z" style="fill:#407BFF;"></path></g><path d="M317.99,128.64c.09-.03,.16-.08,.22-.15,.16-.2,.14-.5-.06-.66-2-1.65-4.05-.99-4.15-.98-.25,.08-.38,.34-.31,.59,.08,.25,.34,.38,.58,.31,.08-.03,1.68-.51,3.28,.81,.13,.1,.29,.13,.43,.08Z" style="fill:#263238;"></path><path d="M317.18,123.76s12.43-9.39-.18-11.8c-12.61-2.41-23.07,17.59-23.07,17.59h0c7.12-3.9,15.13-5.9,23.25-5.79Z" style="fill:#407BFF;"></path></g><g><path d="M308.15,191.28l-2.18-21.77-.19-1.86-.73,.07c.21,.88-.31,1.76-1.17,2.01l-1.22,.14c-1.78,.19-3.03,2.34-2.8,4.8,.23,2.46,1.89,4.33,3.67,4.08l1.24-.14c.76-.08,1.46,.69,1.55,1.74,.1,1.05-.42,1.96-1.17,2.04l-1.24,.14c-1.8,.19-3.05,2.37-2.82,4.86,.23,2.49,1.9,4.38,3.7,4.19l1.25-.14c.76-.08,1.46,.71,1.56,1.77l.73-.08-.19-1.85Z" style="fill:#407BFF;"></path><path d="M302.29,187.34c.18,1.78,1.27,3.2,2.38,3.08l-2.38-3.08Z" style="fill:#fff;"></path><path d="M301.03,174.56c.18,1.76,1.27,3.14,2.38,3.02l-2.38-3.02Z" style="fill:#fff;"></path></g><path d="M239.04,231.22h-.01c-.14,0-.24-.12-.24-.26,.29-6.5,.77-13.07,1.42-19.54,.01-.14,.15-.24,.27-.22,.14,.01,.24,.14,.22,.27-.65,6.46-1.13,13.02-1.42,19.51,0,.13-.12,.24-.25,.24Z" style="fill:#407BFF;"></path></g><g><path d="M452.16,447.82h-5v-82.02c0-19.26-15.67-34.92-34.93-34.92s-34.93,15.67-34.93,34.92v82.02h-5v-82.02c0-22.01,17.91-39.92,39.93-39.92s39.93,17.91,39.93,39.92v82.02Z" style="fill:#263238;"></path><path d="M452.16,447.82h-5v-82.02c0-19.26-15.67-34.92-34.93-34.92s-34.93,15.67-34.93,34.92v82.02h-5v-82.02c0-22.01,17.91-39.92,39.93-39.92s39.93,17.91,39.93,39.92v82.02Z" style="fill:#fff; opacity:.3;"></path></g><g><g><path d="M352.37,228.35l8.74,3.26,5.97,.17s4.39,1.76,4.78,3.39c.39,1.63-.63,5.15-.63,5.15,0,0-.43,3.18-3.46,2.74,0,0-.14,3.02-3.62,2.6,0,0,1.03,2.35-2.33,1.48-3.36-.87-4.92-3.01-6.07-4.75-1.15-1.74-2.44-3.39-2.44-3.39l-11.48-5.57,10.54-5.09Z" style="fill:#e9b376;"></path><g><path d="M365.41,271.22c-1.11,0-2.16-.69-2.55-1.8-.51-1.41,.23-2.96,1.64-3.47l5.15-1.84c2.79-1,5-3.04,6.22-5.73,1.22-2.7,1.3-5.7,.22-8.46-2.08-5.29-7.96-8.09-13.38-6.38l-31.89,10.1c-1.43,.45-2.95-.34-3.41-1.77-.45-1.43,.34-2.95,1.77-3.4l31.89-10.1c8.13-2.57,16.94,1.63,20.06,9.56,1.63,4.14,1.51,8.64-.32,12.69-1.84,4.05-5.15,7.1-9.34,8.6l-5.15,1.84c-.3,.11-.61,.16-.91,.16Z" style="fill:#407BFF;"></path><g style="opacity:.2;"><path d="M365.41,271.22c-1.11,0-2.16-.69-2.55-1.8-.51-1.41,.23-2.96,1.64-3.47l5.15-1.84c2.79-1,5-3.04,6.22-5.73,1.22-2.7,1.3-5.7,.22-8.46-2.08-5.29-7.96-8.09-13.38-6.38l-31.89,10.1c-1.43,.45-2.95-.34-3.41-1.77-.45-1.43,.34-2.95,1.77-3.4l31.89-10.1c8.13-2.57,16.94,1.63,20.06,9.56,1.63,4.14,1.51,8.64-.32,12.69-1.84,4.05-5.15,7.1-9.34,8.6l-5.15,1.84c-.3,.11-.61,.16-.91,.16Z"></path></g></g><path d="M364.08,234.27l-.34,6.84c-.02,.45-.04,.91,.14,1.32,.35,.77,1.35,1.07,2.17,.85s1.47-.83,2-1.49c1.39-1.71,2.23-3.86,2.37-6.05l-6.35-1.47Z" style="fill:#e9b376;"></path></g><g><g id="freepik--freepik--Character--inject-280--inject-41"><g><polygon points="333.56 435.74 332.68 435.27 361.4 381.46 298.24 381.46 298.24 380.46 363.06 380.46 333.56 435.74" style="fill:#263238;"></polygon><polygon points="420.62 391.77 361.44 381.02 392.27 329.1 393.13 329.61 363.04 380.3 420.79 390.78 420.62 391.77" style="fill:#263238;"></polygon><path d="M382.86,435.68l-21.07-54.78c-9.61-13.09-34.64-47.1-35.78-48.14l.59-.81c.95,.63,30.19,40.44,36.04,48.41l.06,.12,21.09,54.84-.93,.36Z" style="fill:#263238;"></path></g><g><polygon points="133.97 435.74 133.08 435.27 161.8 381.46 98.64 381.46 98.64 380.46 163.47 380.46 133.97 435.74" style="fill:#263238;"></polygon><polygon points="221.02 391.77 161.85 381.02 192.67 329.1 193.53 329.61 163.44 380.3 221.2 390.78 221.02 391.77" style="fill:#263238;"></polygon><path d="M183.27,435.68l-21.07-54.78c-9.61-13.09-34.64-47.1-35.78-48.14l.59-.81c.95,.63,30.19,40.44,36.04,48.41l.06,.12,21.09,54.84-.93,.36Z" style="fill:#263238;"></path></g><path d="M161.39,322.5c32.29,0,58.47,26.18,58.47,58.47s-26.18,58.47-58.47,58.47-58.47-26.18-58.47-58.47c.03-32.28,26.19-58.43,58.47-58.47m0-8.39c-36.92,0-66.86,29.92-66.87,66.85,0,36.92,29.92,66.86,66.85,66.87,36.92,0,66.86-29.92,66.87-66.85h0c0-36.94-29.93-66.87-66.86-66.87h.01Z" style="fill:#263238;"></path><path d="M161.39,324.99c30.91,0,55.97,25.05,55.98,55.96,0,30.91-25.05,55.97-55.96,55.98-30.91,0-55.97-25.05-55.98-55.96h0c.03-30.91,25.06-55.94,55.96-55.98m0-8.03c-35.34,0-63.99,28.65-63.99,63.99s28.65,63.99,63.99,63.99,63.99-28.65,63.99-63.99-28.65-63.99-63.99-63.99Z" style="fill:#407BFF;"></path><path d="M362.23,322.5c32.29,0,58.47,26.17,58.48,58.45s-26.17,58.47-58.45,58.48c-32.29,0-58.47-26.17-58.48-58.45h0c.03-32.29,26.19-58.44,58.47-58.48m0-8.39c-36.92,0-66.86,29.93-66.86,66.86s29.93,66.86,66.86,66.86,66.86-29.93,66.86-66.86-29.93-66.86-66.86-66.86h0Z" style="fill:#263238;"></path><path d="M362.23,324.99c30.91,0,55.97,25.05,55.98,55.96,0,30.91-25.05,55.97-55.96,55.98-30.91,0-55.97-25.05-55.98-55.96h0c.03-30.91,25.06-55.94,55.96-55.98m0-8.03c-35.34,0-63.99,28.65-63.99,63.99s28.65,63.99,63.99,63.99,63.99-28.65,63.99-63.99-28.65-63.99-63.99-63.99Z" style="fill:#407BFF;"></path><circle cx="362.23" cy="380.96" r="10.31" transform="translate(-130.61 198.06) rotate(-26.08)" style="fill:#263238;"></circle><path d="M161.38,373.79h0c.66,0,1.31,.09,1.94,.27h.23l90.4,18.02c6.64,1.72,10.62,8.5,8.9,15.14-1.42,5.49-6.38,9.31-12.05,9.3-1.01,0-2.02-.12-3-.37l-88.24-28.33h-.12c-3.81-1.08-6.03-5.05-4.94-8.86,.87-3.07,3.67-5.2,6.86-5.22m0-3.15c-5.7-.08-10.39,4.48-10.46,10.18-.06,4.75,3.12,8.93,7.71,10.13l88.33,28.33c1.26,.32,2.56,.48,3.86,.48,8.6,0,15.56-6.99,15.55-15.59,0-7.11-4.83-13.31-11.72-15.07l-90.48-18.09c-.9-.26-1.84-.39-2.78-.39h-.01Z" style="fill:#263238;"></path><path d="M161.38,373.79h0c.66,0,1.31,.09,1.94,.27h.23l90.4,18.02c6.64,1.72,10.62,8.5,8.9,15.14-1.42,5.49-6.38,9.31-12.05,9.3-1.01,0-2.02-.12-3-.37l-88.24-28.33h-.12c-3.81-1.08-6.03-5.05-4.94-8.86,.87-3.07,3.67-5.2,6.86-5.22m0-3.15c-5.7-.08-10.39,4.48-10.46,10.18-.06,4.75,3.12,8.93,7.71,10.13l88.33,28.33c1.26,.32,2.56,.48,3.86,.48,8.6,0,15.56-6.99,15.55-15.59,0-7.11-4.83-13.31-11.72-15.07l-90.48-18.09c-.9-.26-1.84-.39-2.78-.39h-.01Z" style="fill:#fff; opacity:.3;"></path><path d="M250.81,407.3c-.15,.01-.3,.01-.45,0-1.09-.16-2.02-.87-2.45-1.89l-56.01-132.72c-.67-1.6,.08-3.45,1.68-4.12,1.6-.67,3.45,.08,4.12,1.68l53.98,127.86,86.02-105.26c1.14-1.31,3.13-1.45,4.44-.31,1.26,1.09,1.45,2.98,.43,4.3l-89.29,109.31c-.6,.74-1.51,1.16-2.47,1.15Z" style="fill:#263238;"></path><path d="M250.81,407.3c-.15,.01-.3,.01-.45,0-1.09-.16-2.02-.87-2.45-1.89l-56.01-132.72c-.67-1.6,.08-3.45,1.68-4.12,1.6-.67,3.45,.08,4.12,1.68l53.98,127.86,86.02-105.26c1.14-1.31,3.13-1.45,4.44-.31,1.26,1.09,1.45,2.98,.43,4.3l-89.29,109.31c-.6,.74-1.51,1.16-2.47,1.15Z" style="fill:#fff; opacity:.6;"></path><polygon points="191.6 272.05 192.65 274.46 198.97 273.26 198.04 271.05 191.6 272.05" style="opacity:.3;"></polygon><path d="M161.39,383.06c-1.16,0-2.1-.93-2.1-2.09,0-.31,.07-.62,.2-.91l42.1-88.88c.44-1.07,1.67-1.58,2.74-1.14,1.07,.44,1.58,1.67,1.14,2.74-.03,.07-.06,.13-.09,.2l-42.09,88.88c-.35,.74-1.09,1.21-1.9,1.21Z" style="fill:#263238;"></path><path d="M161.39,383.06c-1.16,0-2.1-.93-2.1-2.09,0-.31,.07-.62,.2-.91l42.1-88.88c.44-1.07,1.67-1.58,2.74-1.14,1.07,.44,1.58,1.67,1.14,2.74-.03,.07-.06,.13-.09,.2l-42.09,88.88c-.35,.74-1.09,1.21-1.9,1.21Z" style="fill:#fff; opacity:.6;"></path><path d="M362.23,384.11c-1.44,0-2.7-.98-3.05-2.37l-25.26-98.3-130.15,11.77c-1.74,.16-3.27-1.13-3.43-2.86-.16-1.74,1.13-3.27,2.86-3.43l132.81-12.01c1.54-.14,2.95,.85,3.34,2.35l25.93,100.89c.43,1.68-.58,3.4-2.27,3.83-.25,.08-.52,.13-.79,.14Z" style="fill:#263238;"></path><path d="M362.23,384.11c-1.44,0-2.7-.98-3.05-2.37l-25.26-98.3-130.15,11.77c-1.74,.16-3.27-1.13-3.43-2.86-.16-1.74,1.13-3.27,2.86-3.43l132.81-12.01c1.54-.14,2.95,.85,3.34,2.35l25.93,100.89c.43,1.68-.58,3.4-2.27,3.83-.25,.08-.52,.13-.79,.14Z" style="fill:#fff; opacity:.6;"></path><path d="M336.87,283.79c-1.56,.23-3.06-.84-3.52-2.5l-7.61-27.75c-.51-1.84,.43-3.74,2.1-4.25,1.67-.51,3.43,.57,3.94,2.41l7.68,27.76c.51,1.84-.44,3.74-2.1,4.25h0c-.15,.05-.31,.08-.47,.1Z" style="fill:#263238;"></path><path d="M336.87,283.79c-1.56,.23-3.06-.84-3.52-2.5l-7.61-27.75c-.51-1.84,.43-3.74,2.1-4.25,1.67-.51,3.43,.57,3.94,2.41l7.68,27.76c.51,1.84-.44,3.74-2.1,4.25h0c-.15,.05-.31,.08-.47,.1Z" style="fill:#fff; opacity:.6;"></path><path d="M347.97,246.01c.24,1.35-.59,2.67-1.95,3.1l-22.65,7.13c-1.5,.48-3.1-.3-3.58-1.73s.36-2.98,1.86-3.46l22.65-7.19c1.5-.47,3.1,.3,3.57,1.74h0c.04,.13,.08,.27,.1,.41Z" style="fill:#263238;"></path><path d="M347.97,246.01c.24,1.35-.59,2.67-1.95,3.1l-22.65,7.13c-1.5,.48-3.1-.3-3.58-1.73s.36-2.98,1.86-3.46l22.65-7.19c1.5-.47,3.1,.3,3.57,1.74h0c.04,.13,.08,.27,.1,.41Z" style="fill:#fff; opacity:.4;"></path><path d="M173.21,271.61c4.7,4.91,29.34-.58,36.61-2.07,5.78-1.19,10.06-1.34,7.66-6.81-1.97-4.48-16-2.66-25.46-2.56-2.42,.03-4.84-.2-7.17-.86-9.85-2.77-20.35,1.14-11.63,12.3Z" style="fill:#407BFF;"></path><path d="M241.53,439.7c-1.16,0-2.1-.94-2.1-2.1,0-.19,.03-.38,.08-.56l18.55-66.9c.36-1.1,1.55-1.7,2.65-1.34,1.03,.34,1.64,1.41,1.39,2.46l-18.55,66.86c-.24,.92-1.06,1.57-2.01,1.57Z" style="fill:#263238;"></path><path d="M265.28,372.81h-18.54c-1.16,0-2.1-.94-2.1-2.1s.94-2.1,2.1-2.1h18.54c1.16,0,2.1,.94,2.1,2.1s-.94,2.1-2.1,2.1Z" style="fill:#263238;"></path><path d="M254.86,439.7h-18.53c-1.16,0-2.1-.94-2.1-2.1s.94-2.1,2.1-2.1h18.53c1.16,0,2.1,.94,2.1,2.1s-.94,2.1-2.1,2.1h0Z" style="fill:#263238;"></path></g><path d="M161.39,370.65c5.7,0,10.31,4.62,10.31,10.31s-4.62,10.31-10.31,10.31-10.31-4.62-10.31-10.31,4.62-10.31,10.31-10.31Z" style="fill:#263238;"></path><path d="M250.81,388.59c-8.6,0-15.57,6.97-15.57,15.57s6.97,15.57,15.57,15.57,15.57-6.97,15.57-15.57h0c0-8.59-6.95-15.56-15.55-15.57h-.02Z" style="fill:#263238;"></path><path d="M250.86,394.76c-5.19,0-9.4,4.21-9.4,9.4s4.21,9.4,9.4,9.4,9.4-4.21,9.4-9.4h0c0-5.19-4.2-9.39-9.39-9.4h-.01Z" style="fill:#fff; opacity:.4;"></path><path d="M173.21,271.61c4.7,4.91,29.34-.58,36.61-2.07,5.78-1.19,10.06-1.34,7.66-6.81-1.97-4.48-16-2.66-25.46-2.56-2.42,.03-4.84-.2-7.17-.86-9.85-2.77-20.35,1.14-11.63,12.3Z" style="opacity:.3;"></path></g><g><path d="M334.57,281.33c-1.18,0-2.26-.77-2.61-1.96-.41-1.44,.42-2.94,1.86-3.36l5.25-1.51c2.85-.82,5.18-2.71,6.58-5.33,1.4-2.62,1.66-5.61,.76-8.43-1.74-5.41-7.43-8.58-12.95-7.22l-34.08,9.03c-1.45,.38-2.93-.48-3.32-1.93-.38-1.45,.48-2.93,1.93-3.32l34.12-9.04c8.32-2.06,16.85,2.69,19.46,10.81,1.36,4.23,.96,8.72-1.13,12.64-2.09,3.92-5.59,6.76-9.86,7.99l-5.25,1.51c-.25,.07-.5,.11-.75,.11Z" style="fill:#407BFF;"></path><g style="opacity:.2;"><path d="M334.57,281.33c-1.18,0-2.26-.77-2.61-1.96-.41-1.44,.42-2.94,1.86-3.36l5.25-1.51c2.85-.82,5.18-2.71,6.58-5.33,1.4-2.62,1.66-5.61,.76-8.43-1.74-5.41-7.43-8.58-12.95-7.22l-34.08,9.03c-1.45,.38-2.93-.48-3.32-1.93-.38-1.45,.48-2.93,1.93-3.32l34.12-9.04c8.32-2.06,16.85,2.69,19.46,10.81,1.36,4.23,.96,8.72-1.13,12.64-2.09,3.92-5.59,6.76-9.86,7.99l-5.25,1.51c-.25,.07-.5,.11-.75,.11Z"></path></g></g><g><path d="M90.51,371.8s-.02,0-.04,0c-.14-.02-.23-.15-.21-.28,2.11-15.01,9.27-29.35,19.17-38.36,.1-.09,.26-.09,.35,.02,.09,.1,.09,.26-.02,.35-9.81,8.93-16.91,23.16-19.01,38.06-.02,.12-.12,.21-.25,.21Z" style="fill:#407BFF;"></path><path d="M111.09,332.42c-.07,0-.14-.03-.19-.08-.09-.1-.08-.26,.02-.35l1.22-1.08c.1-.09,.26-.08,.35,.02,.09,.1,.08,.26-.02,.35l-1.22,1.08s-.11,.06-.17,.06Z" style="fill:#407BFF;"></path></g></g><g><path d="M469.1,447.82h-5v-82.02c0-19.26-15.67-34.92-34.93-34.92s-34.92,15.67-34.92,34.92v82.02h-5v-82.02c0-22.01,17.91-39.92,39.92-39.92s39.93,17.91,39.93,39.92v82.02Z" style="fill:#263238;"></path><path d="M469.1,447.82h-5v-82.02c0-19.26-15.67-34.92-34.93-34.92s-34.92,15.67-34.92,34.92v82.02h-5v-82.02c0-22.01,17.91-39.92,39.92-39.92s39.93,17.91,39.93,39.92v82.02Z" style="fill:#fff; opacity:.4;"></path></g></g><g><path d="M306.52,242.39l11.02,8.88,5.6-.36s4.71,4.19,4.82,5.94c.11,1.75-1.56,5.18-1.56,5.18,0,0-1.01,3.19-4.05,2.2,0,0-.68,3.08-4.19,2.03,0,0,.64,2.6-2.66,1.1-3.29-1.5-4.52-3.97-5.39-5.97-.87-2-1.91-3.92-1.91-3.92l-10.51-8.3,8.83-6.79Z" style="fill:#e9b376;"></path><path d="M291.68,163.2c.16,.01-7.68,1.25-9.52,3.69-4.38,5.8-9.76,15.08-15.74,30.53l22.6,8.98,5.76-25.96c-.88-10.07-3.1-17.23-3.1-17.23Z" style="fill:#263238;"></path><path d="M271.67,199.5s-7.04,26.41-3.99,30.7c2.92,4.1,41.49,27.43,41.49,27.43l7.31-7.4-33.1-26.03,3.87-18.5-15.58-6.19Z" style="fill:#e9b376;"></path><g><path d="M287.49,164.19s5.05-1.42,6.28,9.51c2.76,24.48-8.21,43.32-8.21,43.32l-2.18,7.16,2.18,1.88s5.32-3.94,10.51-17.54c5.19-13.6,7.15-41.22-1.88-46.19,0,0-4.53-1.34-6.69,1.85Z" style="fill:#407BFF;"></path><path d="M287.49,164.19s5.05-1.42,6.28,9.51c2.76,24.48-8.21,43.32-8.21,43.32l-2.18,7.16,2.18,1.88s5.32-3.94,10.51-17.54c5.19-13.6,7.15-41.22-1.88-46.19,0,0-4.53-1.34-6.69,1.85Z" style="fill:#fff; opacity:.3;"></path></g></g></g></svg>
