<svg xmlns="http://www.w3.org/2000/svg" viewBox="0 0 500 500"><g id="freepik--background-simple--inject-74"><path d="M273.59,16.87c43.48,8.75,92.89,32.93,113.09,74.87,30.53,63.36,85.44,62.72,99.55,182.71a244,244,0,0,1,.7,52.75,205.25,205.25,0,0,1-4.18,25.52C465.69,426.87,409.44,473.13,345,486.55c-84.78,17.66-135-35.42-165.08-70.34S50,349.4,35.2,231.55a235.7,235.7,0,0,1-.75-54.21c4.36-41.15,21.55-85,52.33-113.85q3.47-3.24,7.15-6.28C141.83,17.56,214.31,4.94,273.59,16.87Z" style="fill:#92E3A9"></path><path d="M273.59,16.87c43.48,8.75,92.89,32.93,113.09,74.87,30.53,63.36,85.44,62.72,99.55,182.71a244,244,0,0,1,.7,52.75,205.25,205.25,0,0,1-4.18,25.52C465.69,426.87,409.44,473.13,345,486.55c-84.78,17.66-135-35.42-165.08-70.34S50,349.4,35.2,231.55a235.7,235.7,0,0,1-.75-54.21c4.36-41.15,21.55-85,52.33-113.85q3.47-3.24,7.15-6.28C141.83,17.56,214.31,4.94,273.59,16.87Z" style="fill:#fff;opacity:0.7000000000000001"></path></g><g id="freepik--Bushes--inject-74"><path d="M184.2,217.58c-.11-5.09-3.27-15.47-9.06-18.67-6.12-3.35-11.3,3.16-22.31,7.93s-8-3.67-20-9.91c-12.09-6.05-13.16,3.34-17.57,5.82-4.59,2.61-8.23-5.14-9.74-8-2.9-5.6-6.17-10.33-12.69-13-10.08-4.18-26.38-.75-29,10.57-.8,3.38.91,8.89-2.26,11.33C56.9,207.26,42.53,207.9,44,216.42a12.46,12.46,0,0,0,3.92,7,6,6,0,0,1,1.22,2.68c-.08,1.35-3.6-.79-5.49,1.3a10.31,10.31,0,0,0-2.13,4.17A382.6,382.6,0,0,1,184.2,217.58Z" style="fill:#92E3A9"></path><path d="M78.5,192.68a4.8,4.8,0,0,0,1,3,10,10,0,0,0,2.31,2S82.14,194.88,78.5,192.68Z" style="fill:#fff"></path><path d="M66.45,210.37a5.52,5.52,0,0,0,3.22.51,10.94,10.94,0,0,0,2.91-1S70.15,208.3,66.45,210.37Z" style="fill:#fff"></path><path d="M51.78,211.81a5.56,5.56,0,0,0,3.25.39A11,11,0,0,0,57.92,211S55.42,209.6,51.78,211.81Z" style="fill:#fff"></path><path d="M65.92,217.72a5.5,5.5,0,0,0,3.2-.44,10.52,10.52,0,0,0,2.42-1.83S68.76,214.69,65.92,217.72Z" style="fill:#fff"></path><path d="M51.32,219.35a5.47,5.47,0,0,0,3.19-.56,10.56,10.56,0,0,0,2.37-1.92S54.06,216.22,51.32,219.35Z" style="fill:#fff"></path><path d="M75.63,216.47a5.35,5.35,0,0,0,2.77-1.63,9.8,9.8,0,0,0,1.5-2.61S77,212.61,75.63,216.47Z" style="fill:#fff"></path><path d="M57,225.74A5.31,5.31,0,0,0,59.67,224,10.12,10.12,0,0,0,61,221.3S58.19,221.82,57,225.74Z" style="fill:#fff"></path><path d="M67.38,196.59a5.1,5.1,0,0,0,2.3,2.23,10.76,10.76,0,0,0,3,.79S71.72,197,67.38,196.59Z" style="fill:#fff"></path><path d="M97.46,190.33a5.6,5.6,0,0,0-2.79,1.83,9.42,9.42,0,0,0-1.34,2.73S96.24,194.26,97.46,190.33Z" style="fill:#fff"></path><path d="M104.88,198.49a5.58,5.58,0,0,0-3.23.77,9.9,9.9,0,0,0-2.24,2.11S102.3,201.76,104.88,198.49Z" style="fill:#fff"></path><path d="M105.41,208.69a5.24,5.24,0,0,0-3.06-1,10,10,0,0,0-3,.62S101.49,210.12,105.41,208.69Z" style="fill:#fff"></path><path d="M99.29,215a5,5,0,0,0-2.49-2,9.66,9.66,0,0,0-3-.42S95.16,215,99.29,215Z" style="fill:#fff"></path><path d="M93.45,199a5.45,5.45,0,0,0-2.71,1.86,9.32,9.32,0,0,0-1.28,2.73S92.31,203,93.45,199Z" style="fill:#fff"></path><path d="M63.43,202.11a5.36,5.36,0,0,0,2.8,1.65,11,11,0,0,0,3.14.09S67.74,201.53,63.43,202.11Z" style="fill:#fff"></path><path d="M88,189.21a5.06,5.06,0,0,0-1.48,2.87,8.88,8.88,0,0,0,.26,3S89.07,193.15,88,189.21Z" style="fill:#fff"></path><path d="M81.58,185.23a4.63,4.63,0,0,0,0,3.15,9.45,9.45,0,0,0,1.68,2.5S84.46,188.26,81.58,185.23Z" style="fill:#fff"></path><path d="M69.52,189.08a4.84,4.84,0,0,0,1.69,2.69A10.51,10.51,0,0,0,74,193.2S73.68,190.41,69.52,189.08Z" style="fill:#fff"></path><path d="M124.87,200.58a2.89,2.89,0,0,0,.35,1.8,5.69,5.69,0,0,0,1.18,1.3A3.3,3.3,0,0,0,124.87,200.58Z" style="fill:#fff"></path><path d="M116.93,209.93a3,3,0,0,0,1.78.53,6.06,6.06,0,0,0,1.72-.39A3.43,3.43,0,0,0,116.93,209.93Z" style="fill:#fff"></path><path d="M116.1,214.12a3,3,0,0,0,1.85,0,5.73,5.73,0,0,0,1.5-.87A3.39,3.39,0,0,0,116.1,214.12Z" style="fill:#fff"></path><path d="M121.72,214.1a3,3,0,0,0,1.69-.75,5.84,5.84,0,0,0,1-1.4A3.39,3.39,0,0,0,121.72,214.1Z" style="fill:#fff"></path><path d="M118.4,202.06a3,3,0,0,0,1.14,1.46,6.05,6.05,0,0,0,1.65.66S120.8,202.6,118.4,202.06Z" style="fill:#fff"></path><path d="M135.61,200.36a3.18,3.18,0,0,0-1.67.9,5.62,5.62,0,0,0-.89,1.5A3.53,3.53,0,0,0,135.61,200.36Z" style="fill:#fff"></path><path d="M139.38,205.46a3.14,3.14,0,0,0-1.87.28,5.67,5.67,0,0,0-1.37,1.1A3.54,3.54,0,0,0,139.38,205.46Z" style="fill:#fff"></path><path d="M139.18,211.39a3,3,0,0,0-1.7-.75,5.82,5.82,0,0,0-1.74.2A3.48,3.48,0,0,0,139.18,211.39Z" style="fill:#fff"></path><path d="M135.35,214.69a3,3,0,0,0-1.32-1.28,5.51,5.51,0,0,0-1.69-.41A3.42,3.42,0,0,0,135.35,214.69Z" style="fill:#fff"></path><path d="M132.89,205.17a3,3,0,0,0-1.64.92,5.53,5.53,0,0,0-.87,1.5A3.48,3.48,0,0,0,132.89,205.17Z" style="fill:#fff"></path><path d="M115.82,205a3.07,3.07,0,0,0,1.45,1.16,6.25,6.25,0,0,0,1.76.28S118.27,204.94,115.82,205Z" style="fill:#fff"></path><path d="M130.4,199.17a2.92,2.92,0,0,0-1,1.57,5.48,5.48,0,0,0,0,1.73A3.34,3.34,0,0,0,130.4,199.17Z" style="fill:#fff"></path><path d="M127,196.48a2.84,2.84,0,0,0-.15,1.82,5.54,5.54,0,0,0,.79,1.55A3.24,3.24,0,0,0,127,196.48Z" style="fill:#fff"></path><path d="M120.1,197.89a2.83,2.83,0,0,0,.76,1.67,6.14,6.14,0,0,0,1.46,1S122.32,199,120.1,197.89Z" style="fill:#fff"></path><path d="M167.9,204.11a2.9,2.9,0,0,0,.16,1.82,5.8,5.8,0,0,0,1,1.42A3.32,3.32,0,0,0,167.9,204.11Z" style="fill:#fff"></path><path d="M159.06,212.54a3.07,3.07,0,0,0,1.71.73,6.16,6.16,0,0,0,1.74-.21A3.43,3.43,0,0,0,159.06,212.54Z" style="fill:#fff"></path><path d="M161.37,204.88a2.92,2.92,0,0,0,1,1.57,5.89,5.89,0,0,0,1.56.84S163.67,205.68,161.37,204.88Z" style="fill:#fff"></path><path d="M178.53,205a3.13,3.13,0,0,0-1.74.72,5.52,5.52,0,0,0-1,1.4A3.54,3.54,0,0,0,178.53,205Z" style="fill:#fff"></path><path d="M181.7,210.52a3.06,3.06,0,0,0-1.87.08,5.59,5.59,0,0,0-1.48,1A3.54,3.54,0,0,0,181.7,210.52Z" style="fill:#fff"></path><path d="M180.87,216.39a3.07,3.07,0,0,0-1.6-.92,5.57,5.57,0,0,0-1.75,0A3.46,3.46,0,0,0,180.87,216.39Z" style="fill:#fff"></path><path d="M175.33,209.53a3.11,3.11,0,0,0-1.72.74,5.53,5.53,0,0,0-1,1.4A3.46,3.46,0,0,0,175.33,209.53Z" style="fill:#fff"></path><path d="M158.5,207.47a3,3,0,0,0,1.31,1.31,6.08,6.08,0,0,0,1.7.47S160.92,207.73,158.5,207.47Z" style="fill:#fff"></path><path d="M173.51,203.3a3,3,0,0,0-1.15,1.46,5.6,5.6,0,0,0-.21,1.71A3.32,3.32,0,0,0,173.51,203.3Z" style="fill:#fff"></path><path d="M170.47,200.26a2.86,2.86,0,0,0-.35,1.8,5.92,5.92,0,0,0,.61,1.62A3.21,3.21,0,0,0,170.47,200.26Z" style="fill:#fff"></path><path d="M163.48,200.92a2.89,2.89,0,0,0,.58,1.74,5.93,5.93,0,0,0,1.32,1.17S165.56,202.21,163.48,200.92Z" style="fill:#fff"></path><path d="M80.06,222.34l3.76-.68c-1-2.7-2.08-5.4-3.15-8.1q3.45-3.76,7-7.45-4.29,2.82-8.46,5.75-2.39-5.75-4.85-11.46,3.18,10.68,6.22,21.4c-2-.36-3.92-.71-5.9-1.05q-5.58-1-11.24-1.75,6.45,1.81,12.75,3.85Z" style="fill:#a1a1a1"></path><path d="M126.37,205.16q-2.33,5.68-4.49,11.4l2.15.07c.36-1.1.72-2.19,1.09-3.28q2.85-.69,5.72-1.34-2.7-.44-5.43-.81C125.73,209.18,126,207.17,126.37,205.16Z" style="fill:#a1a1a1"></path><path d="M165.23,210.13c.94,2,1.86,4.07,2.76,6.1l.69-3.19C167.54,212.06,166.39,211.1,165.23,210.13Z" style="fill:#a1a1a1"></path><path d="M170.58,216.58c.22-1.44.45-2.87.67-4.31,1.35-.9,2.71-1.78,4.08-2.66l-3.72.4c.32-2,.65-4.09,1-6.13q-2.35,6.17-4.6,12.35l1.28.28Z" style="fill:#a1a1a1"></path><path d="M349.08,221c.69-4.79-.62-15-5.54-18.92-5.2-4.1-11.08,1.18-22.14,3.91s-6.92-4.71-17.12-12.44c-10.36-7.57-12.84,1.05-17.37,2.67-4.7,1.73-6.89-6.11-7.85-9-1.83-5.7-4.14-10.64-9.83-14.15-8.77-5.51-24.59-4.88-28.81,5.31-1.28,3-.55,8.47-3.91,10.26-5,2.6-18.55.93-18.56,9.14a11.87,11.87,0,0,0,2.56,7.15,5.48,5.48,0,0,1,.72,2.7c-.28,1.24-3.24-1.32-5.34.35a9.63,9.63,0,0,0-2.65,3.56A363.38,363.38,0,0,1,349.08,221Z" style="fill:#92E3A9"></path><path d="M254,180.93a4.54,4.54,0,0,0,.43,3,9.41,9.41,0,0,0,1.84,2.23S257.1,183.56,254,180.93Z" style="fill:#fff"></path><path d="M240,195.59a5.23,5.23,0,0,0,2.94,1,10,10,0,0,0,2.89-.52S243.76,194.23,240,195.59Z" style="fill:#fff"></path><path d="M226,194.62a5.28,5.28,0,0,0,3,.87,10.32,10.32,0,0,0,2.89-.62S229.76,193.12,226,194.62Z" style="fill:#fff"></path><path d="M238.31,202.38a5.14,5.14,0,0,0,3.06.09,9.65,9.65,0,0,0,2.55-1.33S241.44,200,238.31,202.38Z" style="fill:#fff"></path><path d="M224.38,201.61a5.18,5.18,0,0,0,3.08,0,9.92,9.92,0,0,0,2.52-1.42S227.44,199.11,224.38,201.61Z" style="fill:#fff"></path><path d="M247.6,202.75a5.16,5.16,0,0,0,2.85-1.09,9.45,9.45,0,0,0,1.81-2.2S249.51,199.36,247.6,202.75Z" style="fill:#fff"></path><path d="M228.7,208.48a4.94,4.94,0,0,0,2.76-1.23,9.47,9.47,0,0,0,1.68-2.29S230.42,205,228.7,208.48Z" style="fill:#fff"></path><path d="M243,182.83a4.84,4.84,0,0,0,1.81,2.46,10.4,10.4,0,0,0,2.71,1.21S247,183.88,243,182.83Z" style="fill:#fff"></path><path d="M272.17,181.73a5.33,5.33,0,0,0-2.91,1.27,9.07,9.07,0,0,0-1.69,2.34S270.4,185.21,272.17,181.73Z" style="fill:#fff"></path><path d="M277.82,190.54a5.27,5.27,0,0,0-3.14.21,9.39,9.39,0,0,0-2.43,1.62S274.89,193.19,277.82,190.54Z" style="fill:#fff"></path><path d="M276.71,200.17a5,5,0,0,0-2.71-1.43,9.36,9.36,0,0,0-2.91.1S272.81,200.89,276.71,200.17Z" style="fill:#fff"></path><path d="M270,205.07a4.82,4.82,0,0,0-2-2.25,9.25,9.25,0,0,0-2.75-.86S266.11,204.46,270,205.07Z" style="fill:#fff"></path><path d="M267,189.25a5.14,5.14,0,0,0-2.83,1.31,8.89,8.89,0,0,0-1.63,2.36S265.34,192.76,267,189.25Z" style="fill:#fff"></path><path d="M238.44,187.37a5,5,0,0,0,2.36,2,10.22,10.22,0,0,0,2.93.58S242.57,187.51,238.44,187.37Z" style="fill:#fff"></path><path d="M263.52,179.19a4.8,4.8,0,0,0-1.84,2.45,8.51,8.51,0,0,0-.22,2.81S263.87,183,263.52,179.19Z" style="fill:#fff"></path><path d="M258.1,174.44a4.43,4.43,0,0,0-.45,3,9.45,9.45,0,0,0,1.17,2.61S260.32,177.73,258.1,174.44Z" style="fill:#fff"></path><path d="M246.2,176.14a4.63,4.63,0,0,0,1.16,2.79,10.25,10.25,0,0,0,2.37,1.77S249.88,178,246.2,176.14Z" style="fill:#fff"></path><path d="M296.21,195.65a2.74,2.74,0,0,0,0,1.74,5.56,5.56,0,0,0,.9,1.4A3.1,3.1,0,0,0,296.21,195.65Z" style="fill:#fff"></path><path d="M287.29,203.15a3,3,0,0,0,1.59.78,5.79,5.79,0,0,0,1.68-.09A3.32,3.32,0,0,0,287.29,203.15Z" style="fill:#fff"></path><path d="M285.85,206.94a2.92,2.92,0,0,0,1.74.28,5.51,5.51,0,0,0,1.55-.58A3.25,3.25,0,0,0,285.85,206.94Z" style="fill:#fff"></path><path d="M291.12,207.82a2.87,2.87,0,0,0,1.7-.44,5.31,5.31,0,0,0,1.18-1.15A3.21,3.21,0,0,0,291.12,207.82Z" style="fill:#fff"></path><path d="M289.92,196a2.83,2.83,0,0,0,.84,1.54,5.82,5.82,0,0,0,1.44.89S292.08,196.9,289.92,196Z" style="fill:#fff"></path><path d="M306.3,197.14a2.93,2.93,0,0,0-1.7.59,5,5,0,0,0-1.08,1.26A3.34,3.34,0,0,0,306.3,197.14Z" style="fill:#fff"></path><path d="M309,202.51a3,3,0,0,0-1.79,0,5.35,5.35,0,0,0-1.46.81A3.39,3.39,0,0,0,309,202.51Z" style="fill:#fff"></path><path d="M307.9,208a2.84,2.84,0,0,0-1.47-1,5.54,5.54,0,0,0-1.67-.09A3.32,3.32,0,0,0,307.9,208Z" style="fill:#fff"></path><path d="M303.79,210.52a2.75,2.75,0,0,0-1-1.4,5.14,5.14,0,0,0-1.52-.66A3.24,3.24,0,0,0,303.79,210.52Z" style="fill:#fff"></path><path d="M303,201.22a2.9,2.9,0,0,0-1.67.6,5.34,5.34,0,0,0-1.06,1.27A3.31,3.31,0,0,0,303,201.22Z" style="fill:#fff"></path><path d="M287,198.31a2.88,2.88,0,0,0,1.18,1.32,5.78,5.78,0,0,0,1.6.54A3.27,3.27,0,0,0,287,198.31Z" style="fill:#fff"></path><path d="M301.61,195.21a2.82,2.82,0,0,0-1.18,1.31,5.14,5.14,0,0,0-.29,1.61A3.18,3.18,0,0,0,301.61,195.21Z" style="fill:#fff"></path><path d="M298.87,192.15a2.7,2.7,0,0,0-.43,1.68,5.17,5.17,0,0,0,.49,1.58A3,3,0,0,0,298.87,192.15Z" style="fill:#fff"></path><path d="M292.16,192.38a2.73,2.73,0,0,0,.45,1.69,5.84,5.84,0,0,0,1.21,1.18S294.08,193.72,292.16,192.38Z" style="fill:#fff"></path><path d="M335.94,205.76a2.74,2.74,0,0,0-.14,1.73,5.54,5.54,0,0,0,.73,1.49A3.1,3.1,0,0,0,335.94,205.76Z" style="fill:#fff"></path><path d="M326.33,212.26a2.87,2.87,0,0,0,1.48.94,5.48,5.48,0,0,0,1.66.09A3.23,3.23,0,0,0,326.33,212.26Z" style="fill:#fff"></path><path d="M329.7,205.45a2.8,2.8,0,0,0,.66,1.62,5.91,5.91,0,0,0,1.32,1A3.22,3.22,0,0,0,329.7,205.45Z" style="fill:#fff"></path><path d="M345.74,208.31a3,3,0,0,0-1.74.4,5.24,5.24,0,0,0-1.2,1.14A3.31,3.31,0,0,0,345.74,208.31Z" style="fill:#fff"></path><path d="M347.85,213.94a3,3,0,0,0-1.77-.22,5.48,5.48,0,0,0-1.53.65A3.31,3.31,0,0,0,347.85,213.94Z" style="fill:#fff"></path><path d="M346.14,219.31a2.87,2.87,0,0,0-1.35-1.12,5.64,5.64,0,0,0-1.64-.27A3.25,3.25,0,0,0,346.14,219.31Z" style="fill:#fff"></path><path d="M342,212a2.94,2.94,0,0,0-1.72.42,5.31,5.31,0,0,0-1.18,1.15A3.29,3.29,0,0,0,342,212Z" style="fill:#fff"></path><path d="M326.61,207.42a2.85,2.85,0,0,0,1,1.44,5.86,5.86,0,0,0,1.52.71A3.28,3.28,0,0,0,326.61,207.42Z" style="fill:#fff"></path><path d="M341.32,205.89a2.8,2.8,0,0,0-1.3,1.18,5.24,5.24,0,0,0-.47,1.57A3.15,3.15,0,0,0,341.32,205.89Z" style="fill:#fff"></path><path d="M339,202.56a2.68,2.68,0,0,0-.61,1.63,5.2,5.2,0,0,0,.31,1.62A3.07,3.07,0,0,0,339,202.56Z" style="fill:#fff"></path><path d="M332.31,202.07a2.78,2.78,0,0,0,.26,1.73,5.52,5.52,0,0,0,1.06,1.3S334.05,203.61,332.31,202.07Z" style="fill:#fff"></path><path d="M250.82,208.94c1.21,0,2.41,0,3.62,0-.54-2.7-1.1-5.4-1.66-8.09q3.81-3,7.76-5.87-4.46,2-8.83,4.06-1.32-5.76-2.72-11.5,1.27,10.5,2.43,21c-1.77-.65-3.56-1.29-5.35-1.91q-5.07-1.78-10.25-3.43,5.75,2.73,11.33,5.62Z" style="fill:#a1a1a1"></path><path d="M296.89,200.18q-3.08,4.95-6,10l2,.4,1.53-2.9c1.85-.13,3.71-.25,5.57-.35q-2.46-.83-4.95-1.62Q296,202.92,296.89,200.18Z" style="fill:#a1a1a1"></path><path d="M332.49,211q.83,3.08,1.62,6.15c.38-1,.76-1.93,1.15-2.89Q333.88,212.61,332.49,211Z" style="fill:#a1a1a1"></path><path d="M336.48,217.86c.43-1.31.87-2.62,1.31-3.93,1.4-.63,2.82-1.24,4.24-1.85l-3.55-.21,1.89-5.58q-3.18,5.39-6.26,10.84l1.15.46Z" style="fill:#a1a1a1"></path></g><g id="freepik--Ground--inject-74"><path d="M452.14,312.59s28.61,7.15,22.65,9.54-39.35,8.34-41.13,8.94-41.14,10.73-36.37,10.13,62,6,55.44,12.52-70.94,13.12-79.88,16.69S321,396.05,318.6,397.24s68.56,7.15,63.79,10.73-20.27,8.35-36.37,13.71-33.38,13.71-39.94,14.9S197,434.2,187.45,435.39s-48.28-4.77-48.28-4.77l69.75-38.15,51.74-17.92,23.55-13.92,45.72-21.21s51.84-23.47,76.3-26.83A176.55,176.55,0,0,1,452.14,312.59Z" style="fill:#92E3A9"></path><path d="M25.55,228.94s45.15-8.39,66.28-11,57.89-6.95,78.73-8.39,46.9-2.61,72.66-2.9,74.68,4,74.68,4,69.85,10.53,87.75,14.1,78.1,17.46,78.1,17.46,9.27,13.89,7.53,15.34-11.29,0-11.29,0,.29,2.6-1.45,3.76-4.34.58-4.34.58l-12.44-1.74s-229.25-26.34-230.12-26.34-122.15,30.68-122.15,30.68l52.68,51.53,24,11.08-30.67,4.26-28.94,9-31.35,6.67-19,5.49L45.81,366.72l-5.76-1.93L36.42,351s6.64-7.06,7.88-10.38,4.16-12.45,4.16-13.7,2.07-8.3,2.07-8.3,2.49-1.66-1.24-3.32-12-5.4-12.87-7.89-4.15-9.55-4.15-11.21,19.92-15.36,19.92-15.36l-16.6-9.54s17.43-12,20.34-12.46,10-5.81,6.64-8.3-39.44-.83-39.44-.83l-7.47-7.89,20.76-7.47Z" style="fill:#92E3A9"></path><path d="M6.83,385.32l33.22-20.53s8.39-3.22,9.68-3.54,6.45,0,7.74-.65,10-4.52,10-4.52l6.13-5.8,4.84-3.23,8.07-1.61,8.71,1.61,7.74-2.9,7.09-1.29,6.46-1.29s-3.55-1,5.16-1.62S133,338.34,133,338.34l3.55-4.19s2.26-3.87,4.84-3.87h5.8L153,329s-1.29-.33,3.87-.33,3.87-.64,7.1-1-7.1.32,3.22-.33,19-.22,19-.22L223,314.79l10.33-1,9.35-1.29,18.07-.64,6.45-5.81,6.77-3.22,6.78-1.94s7.1-1.61,9-2.26l1.94-.64s9.35-.33,10.32-.33S319.1,299,319.1,299L41.34,377.38Z" style="fill:#263238;stroke:#263238;stroke-linecap:round;stroke-linejoin:round"></path><polyline points="89.29 259.07 57.59 249.02 38.66 249.02 34.29 249.02" style="fill:none;stroke:#263238;stroke-linecap:round;stroke-linejoin:round"></polyline><path d="M39.5,226s117.26-20.88,212.42-19.65S470.49,238.9,470.49,238.9" style="fill:none;stroke:#263238;stroke-linecap:round;stroke-linejoin:round"></path></g><g id="freepik--Clouds--inject-74"><path d="M423.07,84.77s-8.33-15.68-25-18.62-23,15.19-27.44,19.6-5.88-3.92-13.72-3.43-9.8,5.39-11.27,7.84-6.92-5.63-10.07-4.53S331,90.21,331,90.21L319.7,92.12H447.57s1-8.33-7.35-10.29S426.5,85.75,423.07,84.77Z" style="fill:none;stroke:#263238;stroke-linecap:round;stroke-linejoin:round"></path><path d="M83.93,77.78S80.29,70.92,73,69.63s-10.08,6.65-12,8.58-2.57-1.72-6-1.5-4.29,2.35-4.93,3.43-3-2.46-4.41-2a3.83,3.83,0,0,0-2,2L38.7,81h56a4.13,4.13,0,0,0-3.21-4.5C87.79,75.64,85.43,78.21,83.93,77.78Z" style="fill:none;stroke:#263238;stroke-linecap:round;stroke-linejoin:round"></path><path d="M132.72,45.55s-4.42-8.33-13.27-9.89-12.23,8.06-14.57,10.41-3.13-2.09-7.29-1.83-5.2,2.87-6,4.17-3.68-3-5.35-2.41a4.7,4.7,0,0,0-2.44,2.43l-6,1h67.92a5,5,0,0,0-3.9-5.47C137.4,42.94,134.54,46.07,132.72,45.55Z" style="fill:none;stroke:#263238;stroke-linecap:round;stroke-linejoin:round"></path></g><g id="freepik--Mountains--inject-74"><path d="M249.26,82.94c36,28.32,79.6,65.18,79.6,65.18s39.45,6.86,46.88,10.29,78.91,76,78.91,76" style="fill:none;stroke:#263238;stroke-linecap:round;stroke-linejoin:round"></path><path d="M36.11,139.54s156.09-88.63,167-88.63c3.85,0,20.83,12.26,41.13,28.07" style="fill:none;stroke:#263238;stroke-linecap:round;stroke-linejoin:round"></path><path d="M381.1,182.14c2.51,3.28,4.36,6,4.36,6" style="fill:none;stroke:#263238;stroke-linecap:round;stroke-linejoin:round"></path><path d="M331.15,152.12s8,8,14.29,10.29,22.3,5.72,27.45,10.29a61.24,61.24,0,0,1,6.3,7" style="fill:none;stroke:#263238;stroke-linecap:round;stroke-linejoin:round"></path></g><g id="freepik--Trees--inject-74"><path d="M188.75,116.92c0,24.68-14.6,44.68-32.61,44.68s-32.6-20-32.6-44.68S138.14,7.45,156.14,7.45,188.75,92.25,188.75,116.92Z" style="fill:#92E3A9"></path><polygon points="174.42 129.83 164.55 133.49 166.53 127.54 161.81 134.5 157.1 136.24 156.76 116.73 173.91 93.94 164.72 103.13 166.28 96.74 161.88 105.97 156.67 111.19 156.14 80.7 154.28 125.17 138.02 107.94 146.95 120.08 138.53 119.14 148.93 122.77 154.08 129.77 153.18 151.21 147.19 147.14 153 155.65 150.24 211.5 158.57 210.62 157.16 139.35 174.42 129.83" style="fill:#263238"></polygon><path d="M174.08,80.8a7.09,7.09,0,0,1-5.93,8,7.09,7.09,0,0,1,5.93-8Z" style="fill:#fff"></path><path d="M183.91,94.6a7.09,7.09,0,0,1-5.93,8,7.07,7.07,0,0,1,5.93-8Z" style="fill:#fff"></path><path d="M183.9,121.48a7.07,7.07,0,0,1-8.26,5.5,7.07,7.07,0,0,1,8.26-5.5Z" style="fill:#fff"></path><path d="M129.94,121.48a7.07,7.07,0,0,0,8.26,5.5,7.09,7.09,0,0,0-8.26-5.5Z" style="fill:#fff"></path><path d="M172.55,110.32a7.07,7.07,0,0,1-5.93,8,7.09,7.09,0,0,1,5.93-8Z" style="fill:#fff"></path><path d="M170,65.78A8.31,8.31,0,0,1,168.67,71a8.33,8.33,0,0,1-4.59,2.77,8.34,8.34,0,0,1,1.33-5.19A8.34,8.34,0,0,1,170,65.78Z" style="fill:#fff"></path><path d="M164.15,77.23a8.37,8.37,0,0,1-1.33,5.2,8.34,8.34,0,0,1-4.6,2.77,7.09,7.09,0,0,1,5.93-8Z" style="fill:#fff"></path><path d="M178.05,68.89a8.37,8.37,0,0,1-1.33,5.2,8.34,8.34,0,0,1-4.6,2.77,8.34,8.34,0,0,1,1.34-5.2A8.33,8.33,0,0,1,178.05,68.89Z" style="fill:#fff"></path><path d="M132.89,68.89a8.29,8.29,0,0,0,1.33,5.2,8.33,8.33,0,0,0,4.59,2.77,8.29,8.29,0,0,0-1.33-5.2A8.33,8.33,0,0,0,132.89,68.89Z" style="fill:#fff"></path><path d="M171.28,51.78A8.31,8.31,0,0,1,169.94,57a8.29,8.29,0,0,1-4.59,2.77,8.3,8.3,0,0,1,1.34-5.19A8.29,8.29,0,0,1,171.28,51.78Z" style="fill:#fff"></path><path d="M168.4,36.91a8.26,8.26,0,0,1,0,5.36,8.29,8.29,0,0,1-3.75,3.83,8.34,8.34,0,0,1,0-5.36A8.29,8.29,0,0,1,168.4,36.91Z" style="fill:#fff"></path><path d="M147.79,33a8.37,8.37,0,0,1,3.6,4,8.35,8.35,0,0,1-.22,5.36,8.26,8.26,0,0,1-3.6-4A8.27,8.27,0,0,1,147.79,33Z" style="fill:#fff"></path><path d="M157.4,50.8a8.33,8.33,0,0,1,1.74,5.08,8.33,8.33,0,0,1-2.31,4.83,8.29,8.29,0,0,1-1.74-5.07A8.31,8.31,0,0,1,157.4,50.8Z" style="fill:#fff"></path><path d="M156.89,24.33a8.29,8.29,0,0,1,1.74,5.07,8.27,8.27,0,0,1-2.31,4.84,8.29,8.29,0,0,1-1.74-5.07A8.34,8.34,0,0,1,156.89,24.33Z" style="fill:#fff"></path><path d="M135.31,80.8a7.09,7.09,0,0,0,5.93,8,7.07,7.07,0,0,0-5.93-8Z" style="fill:#fff"></path><path d="M129.71,97.09a7.09,7.09,0,0,0,5.93,8,7.07,7.07,0,0,0-5.93-8Z" style="fill:#fff"></path><path d="M144.58,103a7.07,7.07,0,0,0,5.93,8,7.09,7.09,0,0,0-5.93-8Z" style="fill:#fff"></path><path d="M148.64,80.43a8.34,8.34,0,0,0-.2,5.36,8.32,8.32,0,0,0,3.6,4,8.32,8.32,0,0,0,.21-5.36A8.31,8.31,0,0,0,148.64,80.43Z" style="fill:#fff"></path><path d="M138.12,140.5a7.1,7.1,0,0,0,7.45-6.56,7.06,7.06,0,0,0-7.45,6.56Z" style="fill:#fff"></path><path d="M167,137.2a7.08,7.08,0,0,0,8.43,5.24A7.09,7.09,0,0,0,167,137.2Z" style="fill:#fff"></path><path d="M141.47,65.78A8.31,8.31,0,0,0,142.81,71a8.33,8.33,0,0,0,4.59,2.77,8.34,8.34,0,0,0-1.33-5.19A8.34,8.34,0,0,0,141.47,65.78Z" style="fill:#fff"></path><path d="M141.42,52.54a8.34,8.34,0,0,0,1.34,5.2,8.35,8.35,0,0,0,4.59,2.76A8.34,8.34,0,0,0,146,55.31,8.34,8.34,0,0,0,141.42,52.54Z" style="fill:#fff"></path><path d="M479.62,133.9c0,24.67-14.6,44.67-32.61,44.67s-32.6-20-32.6-44.67S429,24.42,447,24.42,479.62,109.22,479.62,133.9Z" style="fill:#92E3A9"></path><polygon points="465.3 146.81 455.42 150.46 457.4 144.51 452.68 151.47 447.97 153.21 447.63 133.7 464.79 110.91 455.6 120.11 457.15 113.71 452.75 122.95 447.54 128.16 447.01 97.67 445.15 142.14 428.89 124.91 437.82 137.05 429.4 136.12 439.8 139.74 444.95 146.74 444.05 168.18 438.06 164.12 443.87 172.62 441.11 231.94 449.44 233.81 448.03 156.33 465.3 146.81" style="fill:#263238"></polygon><path d="M465,97.77a7.09,7.09,0,0,1-5.93,8,7.09,7.09,0,0,1,5.93-8Z" style="fill:#fff"></path><path d="M474.78,111.57a7.09,7.09,0,0,1-5.93,8,7.07,7.07,0,0,1,5.93-8Z" style="fill:#fff"></path><path d="M474.77,138.45a7.07,7.07,0,0,1-8.26,5.51,7.1,7.1,0,0,1,8.26-5.51Z" style="fill:#fff"></path><path d="M420.81,138.45a7.07,7.07,0,0,0,8.26,5.51,7.1,7.1,0,0,0-8.26-5.51Z" style="fill:#fff"></path><path d="M463.42,127.3a7.07,7.07,0,0,1-5.93,8,7.09,7.09,0,0,1,5.93-8Z" style="fill:#fff"></path><path d="M460.88,82.75a7.09,7.09,0,0,1-5.93,8,7.07,7.07,0,0,1,5.93-8Z" style="fill:#fff"></path><path d="M455,94.2a7.07,7.07,0,0,1-5.93,8,7.09,7.09,0,0,1,5.93-8Z" style="fill:#fff"></path><path d="M468.92,85.86a7.07,7.07,0,0,1-5.93,8,7.09,7.09,0,0,1,5.93-8Z" style="fill:#fff"></path><path d="M423.76,85.86a7.08,7.08,0,0,0,5.92,8,7.08,7.08,0,0,0-5.92-8Z" style="fill:#fff"></path><path d="M462.15,68.75a8.31,8.31,0,0,1-1.34,5.19,8.29,8.29,0,0,1-4.59,2.77,8.31,8.31,0,0,1,1.34-5.19A8.29,8.29,0,0,1,462.15,68.75Z" style="fill:#fff"></path><path d="M459.27,53.88a8.26,8.26,0,0,1,0,5.36,8.29,8.29,0,0,1-3.75,3.83,8.34,8.34,0,0,1,0-5.36A8.29,8.29,0,0,1,459.27,53.88Z" style="fill:#fff"></path><path d="M438.66,50a8.36,8.36,0,0,1,3.6,4,8.32,8.32,0,0,1-.22,5.35,8.26,8.26,0,0,1-3.6-4A8.27,8.27,0,0,1,438.66,50Z" style="fill:#fff"></path><path d="M448.27,67.78A8.29,8.29,0,0,1,450,72.85a8.31,8.31,0,0,1-2.31,4.84A8.33,8.33,0,0,1,446,72.61,8.33,8.33,0,0,1,448.27,67.78Z" style="fill:#fff"></path><path d="M447.76,41.3a8.32,8.32,0,0,1,1.74,5.07,8.27,8.27,0,0,1-2.31,4.84,8.29,8.29,0,0,1-1.74-5.07A8.34,8.34,0,0,1,447.76,41.3Z" style="fill:#fff"></path><path d="M426.18,97.77a7.09,7.09,0,0,0,5.93,8,7.07,7.07,0,0,0-5.93-8Z" style="fill:#fff"></path><path d="M420.58,114.06a7.09,7.09,0,0,0,5.93,8,7.07,7.07,0,0,0-5.93-8Z" style="fill:#fff"></path><path d="M435.45,120a7.07,7.07,0,0,0,5.93,8,7.09,7.09,0,0,0-5.93-8Z" style="fill:#fff"></path><path d="M439.51,97.4a7.1,7.1,0,0,0,3.4,9.33,7.08,7.08,0,0,0-3.4-9.33Z" style="fill:#fff"></path><path d="M429,157.47a7.1,7.1,0,0,0,7.45-6.56,7.06,7.06,0,0,0-7.45,6.56Z" style="fill:#fff"></path><path d="M457.87,154.18a7.08,7.08,0,0,0,8.43,5.23,7.07,7.07,0,0,0-8.43-5.23Z" style="fill:#fff"></path><path d="M432.34,82.75a7.09,7.09,0,0,0,5.93,8,7.07,7.07,0,0,0-5.93-8Z" style="fill:#fff"></path><path d="M432.29,69.51a8.34,8.34,0,0,0,1.34,5.2,8.33,8.33,0,0,0,4.59,2.77,8.37,8.37,0,0,0-1.33-5.2A8.34,8.34,0,0,0,432.29,69.51Z" style="fill:#fff"></path><path d="M124.13,155.12c0,16-9.48,29-21.17,29s-21.16-13-21.16-29S91.28,84.06,103,84.06,124.13,139.1,124.13,155.12Z" style="fill:#92E3A9"></path><polygon points="114.83 163.49 108.42 165.86 109.71 162.01 106.64 166.52 103.59 167.65 103.37 154.99 114.5 140.2 108.53 146.16 109.54 142.02 106.69 148.01 103.31 151.39 102.97 131.6 101.75 160.46 91.2 149.28 97 157.16 91.53 156.56 98.28 158.91 101.63 163.45 101.04 177.37 97.15 174.73 100.92 180.25 99.13 217.44 104.54 216.49 103.62 169.67 114.83 163.49" style="fill:#263238"></polygon><path d="M114.61,131.67a5.43,5.43,0,0,1-.87,3.37,5.34,5.34,0,0,1-3,1.79,5.39,5.39,0,0,1,.86-3.37A5.45,5.45,0,0,1,114.61,131.67Z" style="fill:#fff"></path><path d="M121,140.63a4.59,4.59,0,0,1-3.84,5.17,4.58,4.58,0,0,1,3.84-5.17Z" style="fill:#fff"></path><path d="M121,158.07a4.59,4.59,0,0,1-5.36,3.58,4.59,4.59,0,0,1,5.36-3.58Z" style="fill:#fff"></path><path d="M86,158.07a4.61,4.61,0,0,0,5.37,3.58A4.6,4.6,0,0,0,86,158.07Z" style="fill:#fff"></path><path d="M113.61,150.83a4.59,4.59,0,0,1-3.84,5.17,4.59,4.59,0,0,1,3.84-5.17Z" style="fill:#fff"></path><path d="M112,121.92a4.59,4.59,0,0,1-3.85,5.17,4.61,4.61,0,0,1,3.85-5.17Z" style="fill:#fff"></path><path d="M108.16,129.35a4.59,4.59,0,0,1-3.85,5.17,4.61,4.61,0,0,1,3.85-5.17Z" style="fill:#fff"></path><path d="M117.18,123.94a4.59,4.59,0,0,1-3.84,5.17,4.59,4.59,0,0,1,3.84-5.17Z" style="fill:#fff"></path><path d="M87.87,123.94a4.61,4.61,0,0,0,3.85,5.17,4.61,4.61,0,0,0-3.85-5.17Z" style="fill:#fff"></path><path d="M112.79,112.83a4.61,4.61,0,0,1-3.85,5.17,4.61,4.61,0,0,1,3.85-5.17Z" style="fill:#fff"></path><path d="M110.92,103.18a4.59,4.59,0,0,1-2.43,6,4.61,4.61,0,0,1,2.43-6Z" style="fill:#fff"></path><path d="M97.54,100.66a4.59,4.59,0,0,1,2.2,6,4.58,4.58,0,0,1-2.2-6Z" style="fill:#fff"></path><path d="M103.78,112.2a5.43,5.43,0,0,1,1.13,3.29,5.37,5.37,0,0,1-1.5,3.14,4.6,4.6,0,0,1,.37-6.43Z" style="fill:#fff"></path><path d="M103.45,95a4.6,4.6,0,0,1-.37,6.43A5.43,5.43,0,0,1,102,98.16,5.37,5.37,0,0,1,103.45,95Z" style="fill:#fff"></path><path d="M89.44,131.67a5.43,5.43,0,0,0,.87,3.37,5.34,5.34,0,0,0,3,1.79,5.39,5.39,0,0,0-.86-3.37A5.45,5.45,0,0,0,89.44,131.67Z" style="fill:#fff"></path><path d="M85.81,142.24a4.61,4.61,0,0,0,3.85,5.17,4.61,4.61,0,0,0-3.85-5.17Z" style="fill:#fff"></path><path d="M95.46,146.08a4.61,4.61,0,0,0,3.85,5.17,4.61,4.61,0,0,0-3.85-5.17Z" style="fill:#fff"></path><path d="M98.1,131.43a4.58,4.58,0,0,0,2.2,6,4.58,4.58,0,0,0-2.2-6Z" style="fill:#fff"></path><path d="M91.26,170.41a4.6,4.6,0,0,0,4.84-4.25,4.6,4.6,0,0,0-4.84,4.25Z" style="fill:#fff"></path><path d="M110,168.28a5.41,5.41,0,0,0,2,2.82,5.49,5.49,0,0,0,3.44.58,4.61,4.61,0,0,0-5.48-3.4Z" style="fill:#fff"></path><path d="M93.44,121.92a4.61,4.61,0,0,0,3.85,5.17,4.61,4.61,0,0,0-3.85-5.17Z" style="fill:#fff"></path><path d="M93.41,113.33a4.61,4.61,0,0,0,3.85,5.17,4.59,4.59,0,0,0-3.85-5.17Z" style="fill:#fff"></path><path d="M312.57,142.12c0,16-9.47,29-21.16,29s-21.16-13-21.16-29,9.48-71.06,21.16-71.06S312.57,126.1,312.57,142.12Z" style="fill:#92E3A9"></path><polygon points="303.28 150.5 296.87 152.87 298.16 149.01 295.09 153.53 292.03 154.66 291.82 141.99 302.95 127.2 296.98 133.17 297.99 129.02 295.14 135.01 291.75 138.4 291.41 118.61 290.2 147.47 279.65 136.29 285.45 144.16 279.98 143.56 286.73 145.91 290.07 150.46 289.49 164.37 285.6 161.73 289.37 167.25 287.58 208.24 292.98 208.24 292.07 156.68 303.28 150.5" style="fill:#263238"></polygon><path d="M303.05,118.67a4.59,4.59,0,0,1-3.84,5.17,4.59,4.59,0,0,1,3.84-5.17Z" style="fill:#fff"></path><path d="M309.43,127.63a4.61,4.61,0,0,1-3.85,5.17,4.61,4.61,0,0,1,3.85-5.17Z" style="fill:#fff"></path><path d="M309.43,145.08a4.6,4.6,0,0,1-5.36,3.57,4.6,4.6,0,0,1,5.36-3.57Z" style="fill:#fff"></path><path d="M274.4,145.08a4.6,4.6,0,0,0,5.37,3.57,4.61,4.61,0,0,0-5.37-3.57Z" style="fill:#fff"></path><path d="M302.06,137.83a4.57,4.57,0,0,1-3.85,5.17,4.61,4.61,0,0,1,3.85-5.17Z" style="fill:#fff"></path><path d="M300.41,108.92a4.61,4.61,0,0,1-3.85,5.17,4.61,4.61,0,0,1,3.85-5.17Z" style="fill:#fff"></path><path d="M296.61,116.36a4.59,4.59,0,0,1-3.85,5.16,4.59,4.59,0,0,1,3.85-5.16Z" style="fill:#fff"></path><path d="M305.63,110.94a4.61,4.61,0,0,1-3.85,5.17,4.61,4.61,0,0,1,3.85-5.17Z" style="fill:#fff"></path><path d="M276.32,110.94a4.59,4.59,0,0,0,3.85,5.17,4.61,4.61,0,0,0-3.85-5.17Z" style="fill:#fff"></path><path d="M301.24,99.83a4.59,4.59,0,0,1-3.85,5.17,4.61,4.61,0,0,1,3.85-5.17Z" style="fill:#fff"></path><path d="M299.37,90.18a4.59,4.59,0,0,1-2.43,6,4.59,4.59,0,0,1,2.43-6Z" style="fill:#fff"></path><path d="M286,87.66a4.58,4.58,0,0,1,2.19,6.06A4.61,4.61,0,0,1,286,87.66Z" style="fill:#fff"></path><path d="M292.23,99.2a4.61,4.61,0,0,1-.37,6.44,4.61,4.61,0,0,1,.37-6.44Z" style="fill:#fff"></path><path d="M291.9,82A5.43,5.43,0,0,1,293,85.31a5.37,5.37,0,0,1-1.5,3.14A4.6,4.6,0,0,1,291.9,82Z" style="fill:#fff"></path><path d="M277.89,118.67a4.61,4.61,0,0,0,3.85,5.17,4.61,4.61,0,0,0-3.85-5.17Z" style="fill:#fff"></path><path d="M274.26,129.24a4.59,4.59,0,0,0,3.85,5.17,4.61,4.61,0,0,0-3.85-5.17Z" style="fill:#fff"></path><path d="M283.91,133.08a4.59,4.59,0,0,0,3.84,5.17,4.59,4.59,0,0,0-3.84-5.17Z" style="fill:#fff"></path><path d="M286.54,118.43a4.6,4.6,0,0,0,2.21,6,4.58,4.58,0,0,0-2.21-6Z" style="fill:#fff"></path><path d="M279.71,157.42a4.6,4.6,0,0,0,4.84-4.26,4.6,4.6,0,0,0-4.84,4.26Z" style="fill:#fff"></path><path d="M298.46,155.28a4.59,4.59,0,0,0,5.47,3.4,4.59,4.59,0,0,0-5.47-3.4Z" style="fill:#fff"></path><path d="M281.89,108.92a4.61,4.61,0,0,0,3.85,5.17,4.61,4.61,0,0,0-3.85-5.17Z" style="fill:#fff"></path><path d="M281.86,100.33a4.59,4.59,0,0,0,3.85,5.17,4.61,4.61,0,0,0-3.85-5.17Z" style="fill:#fff"></path><path d="M241.6,154.07c0,13.19-7.8,23.87-17.42,23.87s-17.42-10.68-17.42-23.87,7.8-58.51,17.42-58.51S241.6,140.88,241.6,154.07Z" style="fill:#92E3A9"></path><polygon points="233.95 160.97 228.68 162.92 229.73 159.74 227.21 163.46 224.69 164.39 224.51 153.96 233.68 141.79 228.77 146.7 229.6 143.28 227.25 148.22 224.46 151 224.18 134.71 223.18 158.47 214.5 149.27 219.27 155.75 214.77 155.25 220.33 157.19 223.08 160.93 222.6 172.39 219.4 170.22 222.5 174.76 221.03 206.71 225.48 206.71 224.72 166.06 233.95 160.97" style="fill:#263238"></polygon><path d="M233.77,134.76A3.8,3.8,0,0,1,230.6,139a3.78,3.78,0,0,1,3.17-4.26Z" style="fill:#fff"></path><path d="M239,142.14a3.8,3.8,0,0,1-3.17,4.25,3.78,3.78,0,0,1,3.17-4.25Z" style="fill:#fff"></path><path d="M239,156.5a3.78,3.78,0,0,1-4.42,2.94A3.8,3.8,0,0,1,239,156.5Z" style="fill:#fff"></path><path d="M210.18,156.5a3.76,3.76,0,0,0,4.41,2.94,3.78,3.78,0,0,0-4.41-2.94Z" style="fill:#fff"></path><path d="M233,150.54a3.78,3.78,0,0,1-3.17,4.26,3.8,3.8,0,0,1,3.17-4.26Z" style="fill:#fff"></path><path d="M231.59,126.73a3.78,3.78,0,0,1-3.17,4.26,3.8,3.8,0,0,1,3.17-4.26Z" style="fill:#fff"></path><path d="M228.46,132.86a3.78,3.78,0,0,1-3.17,4.25,3.8,3.8,0,0,1,3.17-4.25Z" style="fill:#fff"></path><path d="M235.89,128.4a3.76,3.76,0,0,1-3.17,4.25,3.78,3.78,0,0,1,3.17-4.25Z" style="fill:#fff"></path><path d="M211.75,128.4a3.78,3.78,0,0,0,3.17,4.25,3.78,3.78,0,0,0-3.17-4.25Z" style="fill:#fff"></path><path d="M232.27,119.25a3.78,3.78,0,0,1-3.17,4.26,3.8,3.8,0,0,1,3.17-4.26Z" style="fill:#fff"></path><path d="M230.73,111.31a3.77,3.77,0,0,1-2,4.91,4.49,4.49,0,0,1,0-2.87A4.44,4.44,0,0,1,230.73,111.31Z" style="fill:#fff"></path><path d="M219.71,109.23a3.77,3.77,0,0,1,1.81,5,3.8,3.8,0,0,1-1.81-5Z" style="fill:#fff"></path><path d="M224.85,118.73a3.8,3.8,0,0,1-.3,5.3,3.8,3.8,0,0,1,.3-5.3Z" style="fill:#fff"></path><path d="M224.58,104.58a3.8,3.8,0,0,1-.3,5.3,4.46,4.46,0,0,1-.94-2.71A4.51,4.51,0,0,1,224.58,104.58Z" style="fill:#fff"></path><path d="M213.05,134.76a3.78,3.78,0,0,0,3.17,4.26,3.8,3.8,0,0,0-3.17-4.26Z" style="fill:#fff"></path><path d="M210.06,143.47a3.78,3.78,0,0,0,3.16,4.25,3.78,3.78,0,0,0-3.16-4.25Z" style="fill:#fff"></path><path d="M218,146.63a3.78,3.78,0,0,0,3.17,4.25,3.78,3.78,0,0,0-3.17-4.25Z" style="fill:#fff"></path><path d="M220.17,134.56a4.48,4.48,0,0,0-.11,2.87,4.42,4.42,0,0,0,1.93,2.12,3.8,3.8,0,0,0-1.82-5Z" style="fill:#fff"></path><path d="M214.55,166.67a4.45,4.45,0,0,0,2.71-.94,4.51,4.51,0,0,0,1.27-2.57,3.78,3.78,0,0,0-4,3.51Z" style="fill:#fff"></path><path d="M230,164.91a4.5,4.5,0,0,0,1.68,2.32,4.45,4.45,0,0,0,2.83.47,4.5,4.5,0,0,0-1.68-2.32A4.45,4.45,0,0,0,230,164.91Z" style="fill:#fff"></path><path d="M216.34,126.73a4.44,4.44,0,0,0,.72,2.78,4.4,4.4,0,0,0,2.45,1.48,3.78,3.78,0,0,0-3.17-4.26Z" style="fill:#fff"></path><path d="M216.31,119.66a3.8,3.8,0,0,0,3.17,4.26,3.78,3.78,0,0,0-3.17-4.26Z" style="fill:#fff"></path><path d="M422.88,185.13c0,11.26-6.66,20.39-14.88,20.39s-14.87-9.13-14.87-20.39,6.66-50,14.87-50S422.88,173.87,422.88,185.13Z" style="fill:#92E3A9"></path><polygon points="416.35 191.03 411.84 192.69 412.75 189.98 410.59 193.15 408.44 193.95 408.29 185.04 416.12 174.64 411.92 178.84 412.63 175.92 410.62 180.14 408.24 182.51 408 168.6 407.15 188.89 399.73 181.03 403.81 186.57 399.97 186.15 404.71 187.8 407.06 191 406.65 200.78 403.92 198.92 406.57 202.81 405.65 224.8 409.11 225.46 408.47 195.37 416.35 191.03" style="fill:#263238"></polygon><path d="M416.19,168.64a3.24,3.24,0,0,1-2.71,3.64,3.85,3.85,0,0,1,.61-2.37A3.8,3.8,0,0,1,416.19,168.64Z" style="fill:#fff"></path><path d="M420.67,175a3.21,3.21,0,0,1-2.7,3.63,3.23,3.23,0,0,1,2.7-3.63Z" style="fill:#fff"></path><path d="M420.67,187.21a3.22,3.22,0,0,1-3.77,2.51,3.24,3.24,0,0,1,3.77-2.51Z" style="fill:#fff"></path><path d="M396,187.21a3.23,3.23,0,0,0,3.77,2.51,3.24,3.24,0,0,0-3.77-2.51Z" style="fill:#fff"></path><path d="M415.49,182.12a3.23,3.23,0,0,1-2.7,3.63,3.23,3.23,0,0,1,2.7-3.63Z" style="fill:#fff"></path><path d="M414.33,161.79a3.23,3.23,0,0,1-2.7,3.63,3.23,3.23,0,0,1,2.7-3.63Z" style="fill:#fff"></path><path d="M411.66,167a3.23,3.23,0,0,1-2.71,3.63,3.23,3.23,0,0,1,2.71-3.63Z" style="fill:#fff"></path><path d="M418,163.21a3.25,3.25,0,0,1-2.7,3.64,3.25,3.25,0,0,1,2.7-3.64Z" style="fill:#fff"></path><path d="M397.39,163.21a3.24,3.24,0,0,0,2.71,3.64,3.85,3.85,0,0,0-.61-2.37A3.8,3.8,0,0,0,397.39,163.21Z" style="fill:#fff"></path><path d="M414.91,155.4a3.23,3.23,0,0,1-2.7,3.63,3.23,3.23,0,0,1,2.7-3.63Z" style="fill:#fff"></path><path d="M413.6,148.61a3.24,3.24,0,0,1-1.71,4.2,3.83,3.83,0,0,1,0-2.45A3.79,3.79,0,0,1,413.6,148.61Z" style="fill:#fff"></path><path d="M404.19,146.84a3.23,3.23,0,0,1,1.54,4.26,3.83,3.83,0,0,1-1.64-1.82A3.76,3.76,0,0,1,404.19,146.84Z" style="fill:#fff"></path><path d="M408.58,155a3.24,3.24,0,0,1-.26,4.52,3.82,3.82,0,0,1-.8-2.32A3.78,3.78,0,0,1,408.58,155Z" style="fill:#fff"></path><path d="M408.35,142.87a3.84,3.84,0,0,1,.79,2.32,3.8,3.8,0,0,1-1.05,2.21,3.23,3.23,0,0,1,.26-4.53Z" style="fill:#fff"></path><path d="M398.5,168.64a3.25,3.25,0,0,0,2.7,3.64,3.25,3.25,0,0,0-2.7-3.64Z" style="fill:#fff"></path><path d="M395.94,176.08a3.77,3.77,0,0,0,.61,2.37,3.82,3.82,0,0,0,2.1,1.26,3.23,3.23,0,0,0-2.71-3.63Z" style="fill:#fff"></path><path d="M402.73,178.78a3.23,3.23,0,0,0,2.7,3.63,3.23,3.23,0,0,0-2.7-3.63Z" style="fill:#fff"></path><path d="M404.58,168.48a3.79,3.79,0,0,0-.09,2.44,3.73,3.73,0,0,0,1.64,1.81,3.22,3.22,0,0,0-1.55-4.25Z" style="fill:#fff"></path><path d="M399.78,195.89a3.76,3.76,0,0,0,2.31-.8,3.81,3.81,0,0,0,1.09-2.19,3.79,3.79,0,0,0-2.32.8A3.83,3.83,0,0,0,399.78,195.89Z" style="fill:#fff"></path><path d="M413,194.39a3.79,3.79,0,0,0,1.43,2,3.83,3.83,0,0,0,2.42.41,3.73,3.73,0,0,0-1.44-2A3.8,3.8,0,0,0,413,194.39Z" style="fill:#fff"></path><path d="M401.31,161.79a3.77,3.77,0,0,0,.61,2.37,3.82,3.82,0,0,0,2.1,1.26,3.86,3.86,0,0,0-.61-2.37A3.82,3.82,0,0,0,401.31,161.79Z" style="fill:#fff"></path><path d="M401.29,155.75a3.23,3.23,0,0,0,2.7,3.63,3.23,3.23,0,0,0-2.7-3.63Z" style="fill:#fff"></path></g><g id="freepik--River--inject-74"><path d="M25.19,478.32c4.68-2.24,49.35-26.43,50.35-27.43,1.46-1.45,6.31-8.24,6.31-8.24s156.26-61.15,162.08-62.12,38.82-19.41,40.28-19.9,28.34-13.16,28.34-13.16l69.68-36.82-51.44-15S257,313.56,252.67,315s-29.14,2.85-29.14,2.85l-37.35,9.28L161.92,333s-4.85,4.86-6.79,6.31S128,345.11,128,345.11l-14.07,3.39L74.57,363.06,6.83,385.32" style="fill:#fff;stroke:#263238;stroke-linecap:round;stroke-linejoin:round"></path><line x1="227.53" y1="320.59" x2="227.53" y2="364.43" style="fill:none;stroke:#263238;stroke-linecap:round;stroke-linejoin:round"></line><line x1="222.53" y1="323.92" x2="222.53" y2="332.8" style="fill:none;stroke:#263238;stroke-linecap:round;stroke-linejoin:round"></line><line x1="185.9" y1="332.24" x2="185.9" y2="357.22" style="fill:none;stroke:#263238;stroke-linecap:round;stroke-linejoin:round"></line><line x1="192.56" y1="353.33" x2="192.56" y2="377.75" style="fill:none;stroke:#263238;stroke-linecap:round;stroke-linejoin:round"></line><line x1="200.89" y1="326.14" x2="200.89" y2="338.35" style="fill:none;stroke:#263238;stroke-linecap:round;stroke-linejoin:round"></line><line x1="208.1" y1="331.69" x2="208.1" y2="341.12" style="fill:none;stroke:#263238;stroke-linecap:round;stroke-linejoin:round"></line><line x1="215.87" y1="323.92" x2="215.87" y2="331.13" style="fill:none;stroke:#263238;stroke-linecap:round;stroke-linejoin:round"></line><line x1="213.1" y1="351.67" x2="213.1" y2="383.3" style="fill:none;stroke:#263238;stroke-linecap:round;stroke-linejoin:round"></line><line x1="300.24" y1="308.38" x2="300.24" y2="317.26" style="fill:none;stroke:#263238;stroke-linecap:round;stroke-linejoin:round"></line><line x1="283.59" y1="323.36" x2="283.59" y2="337.79" style="fill:none;stroke:#263238;stroke-linecap:round;stroke-linejoin:round"></line><line x1="74.9" y1="396.62" x2="74.9" y2="409.94" style="fill:none;stroke:#263238;stroke-linecap:round;stroke-linejoin:round"></line><line x1="83.23" y1="397.73" x2="83.23" y2="402.73" style="fill:none;stroke:#263238;stroke-linecap:round;stroke-linejoin:round"></line><line x1="106.54" y1="401.06" x2="106.54" y2="412.72" style="fill:none;stroke:#263238;stroke-linecap:round;stroke-linejoin:round"></line><line x1="126.52" y1="396.07" x2="126.52" y2="399.95" style="fill:none;stroke:#263238;stroke-linecap:round;stroke-linejoin:round"></line><line x1="140.82" y1="397.19" x2="140.82" y2="402.73" style="fill:none;stroke:#263238;stroke-linecap:round;stroke-linejoin:round"></line><line x1="117.64" y1="401.62" x2="117.64" y2="407.17" style="fill:none;stroke:#263238;stroke-linecap:round;stroke-linejoin:round"></line><line x1="83.23" y1="409.39" x2="83.23" y2="423.82" style="fill:none;stroke:#263238;stroke-linecap:round;stroke-linejoin:round"></line></g><g id="freepik--Bridge--inject-74"><path d="M473.71,267.74l-1.68-1.2-6.75-6.26-2.17-1.93H458.3l-3.62-1.69s-5.3-1.68-6.74-1.68-2.41.48-3.85.48-7-3.37-7-3.37-5.3-2.65-6-2.89a18.82,18.82,0,0,0-2.41-.49s-11.8-5.05-12.77-5.3-4.09-1-5.54-1.44l-2.16-.72s-5.78-1.93-9.16-3.13-6-2.17-7.7-2.65a25.89,25.89,0,0,0-3.14-.49c-1-.24-6-2.16-6-2.16l-3.61-1.69s-10.36-3.37-13-3.85a33.91,33.91,0,0,0-5.3-.48,46.16,46.16,0,0,0-5.78-1c-1.44,0-7.46-2.89-8.19-3.13a44.84,44.84,0,0,0-5.3-.24s-6-1.69-6.74-1.69a20.76,20.76,0,0,1-3.13-.72l-4.82-1.93h-3.13l-3.61-.24-5.78-2.65-10.48,2-2.29,5,139.22,46.49,24.57,8.91" style="fill:#263238;stroke:#263238;stroke-linecap:round;stroke-linejoin:round"></path><path d="M263.51,252l-11.6,5.18-9.13,6.67-2.71,3.2-2,4-3.45,5.43s-.5-.49-1.73,2.72a23.93,23.93,0,0,1-2.47,4.93l-2.47,3.7-1,3.7-.25,2.72-.25,4.93s-1.23,5.93-1,7.9a40.74,40.74,0,0,1,.24,4.2l-.24,5.18s-1.24,1.48-2,1.48-13.08,2.47-13.08,2.47a77.77,77.77,0,0,0-7.65,1.72,56.1,56.1,0,0,1-6.41,2.47,33.86,33.86,0,0,1-6.42,1.73c-2.47.25-9.28-.89-9.28-.89l-6-2.07.25-13.08s-1.23-28.63,9.62-43.19,29.4-19.36,43.08-21.77S263.51,252,263.51,252Z" style="fill:#263238;stroke:#263238;stroke-linecap:round;stroke-linejoin:round"></path><path d="M468.39,275.55s-56.57-23.22-110.51-39-106-25.47-157.33-17.6S89.29,259.07,89.29,259.07l5.25,2.62,9.74,6.74,6,9.37a50,50,0,0,1,6.37,6c3.37,3.75,9.74,9.74,9.74,9.74l4.49,10.87s15,7.49,16.11,7.49,10.86,8.61,10.86,8.61l10.87,2.63,12,2.24v-2.62l-3-2.62,3.74-2.62V299.9s.38-5.62.75-9.74,14.89-30.4,38.59-37.08c24.67-7,51.32.74,68.92,15.73s27.35,43.45,27.35,43.45l2.25,3s-.38,6.37-.38,7.49.75,4.12.75,6,.38,8.25.38,8.25-5.25,1.12-7.12,2.62a15.87,15.87,0,0,0-3.37,4.49l3,3.37s6.57-2.52,30.72-14.23c30.38-14.73,55.07-19.48,85-20.23s40.46,1.5,40.46,1.5" style="fill:#b2b2b2;stroke:#263238;stroke-linecap:round;stroke-linejoin:round"></path><path d="M133.44,294.33l-7.06-.8,4.49,10.87s15,7.49,16.11,7.49,10.86,8.61,10.86,8.61l10.87,2.63,12,2.24v-2.62l-3-2.62,3.74-2.62V306.24l-5.24-3.34L162,296.15H149.6l-10-1.12" style="fill:none;stroke:#263238;stroke-linecap:round;stroke-linejoin:round"></path><path d="M300.46,261c-11.65-11.16-23.6-15.31-38.59-18.68s-29.71-1.81-43.19,1.94-26,13-32,20.46-13.11,22.85-9.74,25.47c1.73,1.35,3.56,2.7,4.93,3.69.1-1.24.21-2.53.31-3.69.38-4.12,14.89-30.4,38.59-37.08,24.67-7,51.32.74,68.92,15.73,11.1,9.44,19.06,24.23,23.44,33.89l1.29.2s5.86-3.49,9.08-5.28c2.19-1.22-2-8.81-4.61-14.81S309,269.11,300.46,261Z" style="fill:#b2b2b2;stroke:#263238;stroke-linecap:round;stroke-linejoin:round"></path><path d="M177.14,282.48a18.58,18.58,0,0,1,3.15,2.29,8.39,8.39,0,0,0,3.43,1.86" style="fill:none;stroke:#263238;stroke-linecap:round;stroke-linejoin:round"></path><path d="M184,284.92a43.9,43.9,0,0,0-3.44-3,4.68,4.68,0,0,1-1.57-1.14l-.72-.72" style="fill:none;stroke:#263238;stroke-linecap:round;stroke-linejoin:round"></path><path d="M187.58,279.48s-1.43,0-3.72-2.43l-2.29-2.44h0l-1-.71" style="fill:none;stroke:#263238;stroke-linecap:round;stroke-linejoin:round"></path><path d="M188.21,277l-2.54-2.36s-1.45-.36-1.82-1.09a23.24,23.24,0,0,0-1.63-2.36" style="fill:none;stroke:#263238;stroke-linecap:round;stroke-linejoin:round"></path><polyline points="186.69 264.69 189.48 268.69 192.39 270.14 193.66 271.23" style="fill:none;stroke:#263238;stroke-linecap:round;stroke-linejoin:round"></polyline><polygon points="198.02 267.24 194.39 263.06 193.12 261.61 192.21 259.79 194.75 257.07 200.2 264.51 198.02 267.24" style="fill:none;stroke:#263238;stroke-linecap:round;stroke-linejoin:round"></polygon><path d="M206,259.79s-1.82-3.09-2.18-3.63a9.48,9.48,0,0,1-.73-1.64l-.72-1.81" style="fill:none;stroke:#263238;stroke-linecap:round;stroke-linejoin:round"></path><polyline points="206.92 249.08 210.19 254.52 211.46 257.25" style="fill:none;stroke:#263238;stroke-linecap:round;stroke-linejoin:round"></polyline><line x1="213.45" y1="245.99" x2="216.72" y2="254.34" style="fill:none;stroke:#263238;stroke-linecap:round;stroke-linejoin:round"></line><polyline points="218.68 244.23 221.63 249.08 222.17 250.89 222.53 252.53" style="fill:none;stroke:#263238;stroke-linecap:round;stroke-linejoin:round"></polyline><path d="M228.89,250.53l-1.27-3.63v-1.64a12.77,12.77,0,0,0-.36-2.36" style="fill:none;stroke:#263238;stroke-linecap:round;stroke-linejoin:round"></path><polyline points="235.97 240.9 236.34 245.99 236.52 247.99 236.7 249.8" style="fill:none;stroke:#263238;stroke-linecap:round;stroke-linejoin:round"></polyline><polyline points="245.42 240.18 245.23 243.26 245.05 245.08 244.33 247.08 244.51 250.35" style="fill:none;stroke:#263238;stroke-linecap:round;stroke-linejoin:round"></polyline><path d="M253,240.72s-1.27,4-1.27,4.54-.18,3.27-.18,3.27l-.73,2.36,1.46.36s1.81-5.44,1.81-6-.36-.36,0-1.63l.37-1.27h0" style="fill:none;stroke:#263238;stroke-linecap:round;stroke-linejoin:round"></path><path d="M263.39,242.9a56.18,56.18,0,0,0-2.17,5.45v1.82l-.91,2.72" style="fill:none;stroke:#263238;stroke-linecap:round;stroke-linejoin:round"></path><path d="M270.84,256.52l.36-2.54,1.64-2.18s.36-.18.72-2.36a6.33,6.33,0,0,1,1.82-3.45" style="fill:none;stroke:#263238;stroke-linecap:round;stroke-linejoin:round"></path><path d="M276.83,246.71l-1.27,2.73a22.57,22.57,0,0,1-.91,2.54c-.36.73-1.45,4.18-1.45,4.18l-.54,1.63" style="fill:none;stroke:#263238;stroke-linecap:round;stroke-linejoin:round"></path><polyline points="277.92 259.97 281.01 254.71 283.73 250.53 284.46 249.08" style="fill:none;stroke:#263238;stroke-linecap:round;stroke-linejoin:round"></polyline><line x1="289" y1="252.53" x2="282.83" y2="263.6" style="fill:none;stroke:#263238;stroke-linecap:round;stroke-linejoin:round"></line><polyline points="288.64 267.42 294.08 261.06 294.45 258.7 295.54 257.25" style="fill:none;stroke:#263238;stroke-linecap:round;stroke-linejoin:round"></polyline><line x1="299.17" y1="259.97" x2="289.7" y2="268.81" style="fill:none;stroke:#263238;stroke-linecap:round;stroke-linejoin:round"></line><path d="M294.81,273.77s2.91-3.45,3.27-4a11.22,11.22,0,0,1,2.54-1.64l1.82-1.81,1.81-1.64" style="fill:none;stroke:#263238;stroke-linecap:round;stroke-linejoin:round"></path><path d="M305.71,266.33l-4.54,4.54a12.9,12.9,0,0,1-1.64,1.63,33.39,33.39,0,0,0-2.72,3.27" style="fill:none;stroke:#263238;stroke-linecap:round;stroke-linejoin:round"></path><line x1="302.08" y1="282.49" x2="314.24" y2="275.59" style="fill:none;stroke:#263238;stroke-linecap:round;stroke-linejoin:round"></line><path d="M303,284.49l2.36-1.45s3.27-1.82,3.82-2.18,5.26-.55,5.26-.55l2-1.81" style="fill:none;stroke:#263238;stroke-linecap:round;stroke-linejoin:round"></path><line x1="320.24" y1="286.3" x2="306.98" y2="291.03" style="fill:none;stroke:#263238;stroke-linecap:round;stroke-linejoin:round"></line><path d="M309.88,295.38l5.45-2.36a12.16,12.16,0,0,1,2.55-2,26.43,26.43,0,0,1,4.17-1.64" style="fill:none;stroke:#263238;stroke-linecap:round;stroke-linejoin:round"></path><path d="M300.46,261c-11.65-11.16-23.6-15.31-38.59-18.68s-29.71-1.81-43.19,1.94-26,13-32,20.46-13.11,22.85-9.74,25.47c1.73,1.35,3.56,2.7,4.93,3.69.1-1.24.21-2.53.31-3.69.38-4.12,14.89-30.4,38.59-37.08,24.67-7,51.32.74,68.92,15.73,11.1,9.44,19.06,24.23,23.44,33.89l1.29.2s5.86-3.49,9.08-5.28c2.19-1.22-2-8.81-4.61-14.81S309,269.11,300.46,261Z" style="fill:none;stroke:#263238;stroke-linecap:round;stroke-linejoin:round"></path><path d="M443.23,274.62l5.76-6.69s2.15-2.3,1.39-3a7.54,7.54,0,0,0-4.61-2.08l-2.08,4.38Z" style="fill:none;stroke:#263238;stroke-linecap:round;stroke-linejoin:round"></path><path d="M90.79,261.42l6.76,3.33,4.38-.92,2.08-1.39.46-3.68a22,22,0,0,0-1.23-1.89l3.3,2.81,3-.69,2.76-.93,1.62-2.76v-3.69s-8.53.46-12,4.15C101.24,256,90.94,258.09,90.79,261.42Z" style="fill:#263238;stroke:#263238;stroke-linecap:round;stroke-linejoin:round"></path><path d="M329,226l-3.92-1.15-3.92.92-1.84-2.54H314L310.1,221l-3.69-.23-1.61-1.15c-.46-1.39-5.08-3.23-5.08-3.23l-6.22,1.38s-1.15-2.77-3-2.3a23.6,23.6,0,0,0-4.61,2.07l-4.15-1.15-4.84.92h-3.46c-.69,0-3.91-.23-4.61-.23s-3.68-4.15-4.38-.69a19,19,0,0,0-4.15-.46l-2.07.69s-1.84-.23-3.46-.46a37.5,37.5,0,0,0-4.15-.23s-2.53-.93-4.15.92c-.23-.69-3.46-.92-5.3-1.15s-5.3-.23-6.45-.23h-9.23l-.69,3.68A2.09,2.09,0,0,0,223,217a56.75,56.75,0,0,0-6.23-.46,15.78,15.78,0,0,0-4.84.46,21.63,21.63,0,0,0-3.92,2.3s-.23-.92-2.07-.92a14.26,14.26,0,0,0-5.07.92,41.13,41.13,0,0,1-3.92,1.39l-3.23,2.07a16.3,16.3,0,0,0-6.45-.69c-1.16.23-5.54,2.08-6.23,2.08a24.16,24.16,0,0,0-3,.46c-1.39.23-3.69.92-3.69.92s-1.62,1.38-1.39,2.3c-1.84-.92-6.45-1.15-7.14-.69s-4.38,1.85-5.07,2.54-6.92.46-6,3c-1.15,0-6.22.92-6.91,1.38s-2.77,2.07-2.77,2.07l-4.38,2.77a8.1,8.1,0,0,0-6.92-.23c-1.15.69-3.92,2.07-3.92,2.07s-4.38,1.39-4.84,2.31a3.61,3.61,0,0,0,0,1.95c-.33-.38-1-.63-2.25-.34-3,.69-9.68,3.69-9.22,5.31l2.07,3.22a5,5,0,0,0,1.85.69c.69,0,3.92-.23,3.92-.23a4.4,4.4,0,0,0,2.3-.23c.69-.46,2.54-3.92,2.54-3.92l4.84,1.16,3-.69s1.85-.24,2.31-.93a11.09,11.09,0,0,1,2.3-1.84,4.3,4.3,0,0,0,1.62-1.85,12.76,12.76,0,0,0,.69-3.91c0-.84,1.9-1.11.32-2.2,1.23.76,4.06,2.57,4.06,3.12s.69,4.84.69,4.84l4.38.92,3,.69s3-1.15,3.69-2.07a18.7,18.7,0,0,0,2.3-4.15,15.78,15.78,0,0,0,.23-2.77l4.61,2.54s3.46,1.38,4.38.69a39.57,39.57,0,0,0,3.23-3.23l1.61-.46,2.54-3.69,6.92,2.54,3.22-.69s4.15-1.16,5.31-1.62,2.76-1.15,3.22-2.07,1.16-7.61,1.16-7.61l3.92,3.23s4.14,1.15,4.84,1.15,4.15-3.69,4.15-3.69l5.07,1.15a18.58,18.58,0,0,0,3.69,0,46.52,46.52,0,0,1,5.3-.23l2.3-3,2.31,4.15s5.53-.23,8.53-.23a53.73,53.73,0,0,0,7.37-.46,8.29,8.29,0,0,0,2.54-.93l5.53,1.16,9.46,1.84,3.68-.92s6.92.23,7.61.23,5.07.23,6,.23,3.92.46,3.92.46a5.56,5.56,0,0,0,3.2-3.37l-.2,2.68s5.07,1.15,5.76,1.15c.15,0,.51,0,1,.09a2.61,2.61,0,0,0,.89.6l0-.49c1.62.2,3.66.49,3.66.49h2.07a7.53,7.53,0,0,1,2.31.69,16.54,16.54,0,0,0,1.61.93l1.84.69s1.16,3,1.62,4.15,1.15.92,1.84,1.38,3,.23,3,.23l3.23-.69,5.07,2.07h6.68l3-1.15,3.46-5.3.92-4.61-2.3-2.77Zm-155.84,2.77a.39.39,0,0,1,0-.29l.65,1.71A6.86,6.86,0,0,1,173.16,228.79Z" style="fill:#263238;stroke:#263238;stroke-linecap:round;stroke-linejoin:round"></path><path d="M447.26,265.21c0-.92-2.07-3.23-2.07-3.23a6.42,6.42,0,0,0-2.31-1.15,22.18,22.18,0,0,0-4.15-.69,1.66,1.66,0,0,0-1.61,1.38,9.54,9.54,0,0,0-1.15-3.46s-3.23-1.61-3.92-1.84-.23-.46-2.08-.92,0-.46-1.84-.46a32.68,32.68,0,0,0-3.6.22A4.71,4.71,0,0,0,424,253c-1.38-2.53-1.15-2.76-2.77-3.69s-5.07-.46-5.76,0c-.5.34-1.24.91-1.61,1.2v-2.12s-2.77-1.84-3.69-2.3-5.07-.7-5.07-.7-1.62-.46-2.77-.69-2.54-.46-2.54-.46l-1.61.46-.92,2.31-.46-4.38L394.93,241h-3.69l-4.38,1.85c0-1.15-1.38-3.46-1.38-3.46s-3.46-.92-4.61-1.15-5.3-1.15-6-.69a9.4,9.4,0,0,0-.92,2.73c0-1.81.68-2.28-.7-3.43a6.65,6.65,0,0,0-3.69-1.15s-4.84-1.15-5.53.46a13.76,13.76,0,0,0-3-2.53,5.36,5.36,0,0,0-3.46-1.15c-.92,0-4.61,2.07-4.61,2.07-.23-1.15-.46-2.54-1.85-2.77a41.91,41.91,0,0,0-4.61-.23s-.69-2.07-2.76.93c0-.7-.47-3.46-1.16-3.69a25.89,25.89,0,0,0-4.15-.7,51.45,51.45,0,0,0-5.53,1.85l-1.61,8.53a8.11,8.11,0,0,0,2.07,2.3c.92.46,3.23,3.46,3.23,3.46s3.23-1.84,3.69-2.76l3.46,2.07s2.53,2.54,3.22,2.08,2.31,0,2.77-1.16l1.84,3,2.31,2.3,2.53,1.85,3.46-1.85,3.46,3.92s3.69,1.16,4.38,1.39,1.84-.46,2.54-1.39a19.12,19.12,0,0,0,1.38-3.17c-.15.68-.23,1.1-.23,1.1l.46,3.92L374,257.6l4.85,3.46s3-.69,3.68-3l3,3,3.46.92,3.92-2.76,3.23-4.38-1.16,5.53,1.62,5.76s6,2.77,6.68,2.77a26.11,26.11,0,0,0,4.15-1.62l2.54,3.23,6.91,2.08,3.92-1.62,5.3,3.46s3.23.69,4.15.23l3,3.92,6.92,1.15,4.61-2.76.46-7.38S447.26,266.13,447.26,265.21Zm-62.7-15.91a18.88,18.88,0,0,0,.83-1.72c-.81,2.63-1.76,5.8-2.35,8C383.48,253.23,383.9,250.45,384.56,249.3Z" style="fill:#263238;stroke:#263238;stroke-linecap:round;stroke-linejoin:round"></path><path d="M460.4,271.43l-2.3-1.84c-3.23-1.15-6.23-2.31-6.23-2.31s-3.45,7.38-5.3,8.53L444.73,277l-.23,5.3,8.07,5.07,3.68-6.68,4.61-4.62Z" style="fill:#263238;stroke:#263238;stroke-linecap:round;stroke-linejoin:round"></path><path d="M89.29,259.07l6.76,3.33,4.38-.92,2.08-1.38.46-3.69s-1.84-3.23-2.54-3S89.45,255.74,89.29,259.07Z" style="fill:#b2b2b2;stroke:#263238;stroke-linecap:round;stroke-linejoin:round"></path><path d="M100.43,253.41l4.61,3.92,3-.69,2.77-.92,1.61-2.77v-3.69S103.89,249.72,100.43,253.41Z" style="fill:#6b6b6b;stroke:#263238;stroke-linecap:round;stroke-linejoin:round"></path><path d="M112,247.65l2.08,3.22a5,5,0,0,0,1.84.7c.69,0,3.92-.23,3.92-.23a4.33,4.33,0,0,0,2.3-.24c.7-.46,2.54-3.91,2.54-3.91l-.92-3.23s.46-2.31-2.54-1.62S111.5,246,112,247.65Z" style="fill:#b2b2b2;stroke:#263238;stroke-linecap:round;stroke-linejoin:round"></path><path d="M123.72,244l.92,3.23,4.84,1.15,3-.69s1.84-.23,2.3-.93a11.08,11.08,0,0,1,2.31-1.84A4.32,4.32,0,0,0,138.7,243a12.87,12.87,0,0,0,.69-3.92c0-.93,2.31-1.16-.23-2.54a8.08,8.08,0,0,0-6.91-.23c-1.16.69-3.92,2.08-3.92,2.08s-4.38,1.38-4.84,2.3S123.72,244,123.72,244Z" style="fill:#6b6b6b;stroke:#263238;stroke-linecap:round;stroke-linejoin:round"></path><path d="M139.16,236.58s4.61,2.77,4.61,3.46.7,4.84.7,4.84l4.38.92,3,.69s3-1.15,3.69-2.07a18.76,18.76,0,0,0,2.31-4.15,15.78,15.78,0,0,0,.23-2.77s-2.77-3.92-2.77-4.61-.92-2.53-2.07-2.53-6.23.92-6.92,1.38-2.77,2.07-2.77,2.07Z" style="fill:#b2b2b2;stroke:#263238;stroke-linecap:round;stroke-linejoin:round"></path><path d="M158.07,237.5l4.61,2.54s3.46,1.38,4.38.69a40.73,40.73,0,0,0,3.22-3.23l1.62-.46,2.53-3.69L173.05,229a11,11,0,0,1-1.38-2.53c-.23-.92,1.61,0-.23-.92s-6.46-1.16-7.15-.7-4.38,1.85-5.07,2.54-6.92.46-6,3S158.07,237.5,158.07,237.5Z" style="fill:#6b6b6b;stroke:#263238;stroke-linecap:round;stroke-linejoin:round"></path><path d="M171.44,225.52l3,7.83,6.92,2.54,3.23-.69s4.15-1.15,5.3-1.62,2.77-1.15,3.23-2.07,1.15-7.61,1.15-7.61-.46-2.76-2.08-3.46a16.3,16.3,0,0,0-6.45-.69c-1.15.23-5.53,2.08-6.22,2.08a24,24,0,0,0-3,.46c-1.38.23-3.69.92-3.69.92S171.21,224.59,171.44,225.52Z" style="fill:#6b6b6b;stroke:#263238;stroke-linecap:round;stroke-linejoin:round"></path><path d="M194.26,223.9l3.92,3.23s4.15,1.15,4.84,1.15,4.15-3.69,4.15-3.69l.46-4.84L206.48,217s-.23-.93-2.08-.93a14.24,14.24,0,0,0-5.07.93c-.92.46-3.92,1.38-3.92,1.38l-3.23,2.07Z" style="fill:#b2b2b2;stroke:#263238;stroke-linecap:round;stroke-linejoin:round"></path><path d="M207.17,224.59l5.07,1.16a19.39,19.39,0,0,0,3.69,0,46.52,46.52,0,0,1,5.3-.23l2.31-3-.23-5.76a2.1,2.1,0,0,0-1.85-2.08,56.57,56.57,0,0,0-6.22-.46,15.71,15.71,0,0,0-4.84.46,21.13,21.13,0,0,0-3.92,2.31S206,223,207.17,224.59Z" style="fill:#b2b2b2;stroke:#263238;stroke-linecap:round;stroke-linejoin:round"></path><path d="M223.54,222.52l2.3,4.15s5.53-.23,8.53-.23a53.78,53.78,0,0,0,7.38-.46,8,8,0,0,0,2.53-.93s.47-5.3.7-6.22a14,14,0,0,0,0-4.38c-.23-.69-3.46-.92-5.31-1.15s-5.3-.23-6.45-.23H224l-.69,3.69Z" style="fill:#b2b2b2;stroke:#263238;stroke-linecap:round;stroke-linejoin:round"></path><path d="M245,214.45l-.7,10.6,5.54,1.16,9.45,1.84,3.69-.92s.46-9.68.69-10.37.92-2.31-.69-2.77a19.06,19.06,0,0,0-4.15-.46l-2.08.69s-1.84-.23-3.46-.46a37.36,37.36,0,0,0-4.14-.23S246.59,212.61,245,214.45Z" style="fill:#b2b2b2;stroke:#263238;stroke-linecap:round;stroke-linejoin:round"></path><path d="M263,227.13s6.91.23,7.6.23,5.08.23,6,.23,3.92.46,3.92.46a5.55,5.55,0,0,0,3.22-3.46,53.1,53.1,0,0,0,1.62-7.14,5.72,5.72,0,0,0-.92-2.31L280.25,214l-4.84.92H272c-.69,0-3.92-.23-4.61-.23s-3.69-4.15-4.38-.69S263,227.13,263,227.13Z" style="fill:#6b6b6b;stroke:#263238;stroke-linecap:round;stroke-linejoin:round"></path><path d="M284.4,215.14l-.93,12.22s5.08,1.15,5.77,1.15,5.53.69,5.53.69h2.07s2.54-2.53,3-3.91,2.54-3.92,3-5.08.92-1.61.46-3-5.07-3.23-5.07-3.23L292,215.37s-1.15-2.76-3-2.3A23.29,23.29,0,0,0,284.4,215.14Z" style="fill:#6b6b6b;stroke:#263238;stroke-linecap:round;stroke-linejoin:round"></path><path d="M292,215.37s-1.38,9.92-2.07,11.53,1.15,2.3,1.15,2.3" style="fill:#b2b2b2;stroke:#263238;stroke-linecap:round;stroke-linejoin:round"></path><path d="M304.91,218.37l3.69.23,3.92,2.31h5.3l1.85,2.53-1.39,3.69-3,5.53-3,3.92-3.23.69s-2.3.23-3-.23-1.39-.23-1.85-1.38-1.61-4.15-1.61-4.15l-1.85-.69a17.85,17.85,0,0,1-1.61-.92,7.35,7.35,0,0,0-2.31-.7l6.46-12Z" style="fill:#b2b2b2;stroke:#263238;stroke-linecap:round;stroke-linejoin:round"></path><polygon points="319.67 223.44 323.59 222.52 327.5 223.67 329.12 224.82 331.42 227.59 330.5 232.2 327.04 237.5 324.05 238.66 320.59 238.66 317.36 238.66 312.29 236.58 315.29 232.66 319.67 223.44" style="fill:#b2b2b2;stroke:#263238;stroke-linecap:round;stroke-linejoin:round"></polygon><path d="M331.42,227.59l-1.61,8.53a8.16,8.16,0,0,0,2.08,2.31c.92.46,3.22,3.45,3.22,3.45s3.23-1.84,3.69-2.76a26.11,26.11,0,0,0,2.08-4.84c.46-1.85,1.38-3.46,1.38-4.15s-.46-3.46-1.15-3.69a26.23,26.23,0,0,0-4.15-.69A51.9,51.9,0,0,0,331.42,227.59Z" style="fill:#919191;stroke:#263238;stroke-linecap:round;stroke-linejoin:round"></path><path d="M342.26,230.13l-3.46,9,3.46,2.07s2.53,2.54,3.23,2.08,2.3,0,2.76-1.16.92-2.07,1.39-3,1.61-3,1.61-3.92.46-1.85.23-3-.46-2.53-1.84-2.77a42,42,0,0,0-4.61-.23S344.33,227.13,342.26,230.13Z" style="fill:#b2b2b2;stroke:#263238;stroke-linecap:round;stroke-linejoin:round"></path><path d="M351.48,232.2l-3.23,9.91,1.85,3,2.3,2.31,2.54,1.84,3.46-1.84,2.3-5.08,1.62-5.3.23-3.23a14,14,0,0,0-3-2.53,5.36,5.36,0,0,0-3.46-1.15C355.17,230.13,351.48,232.2,351.48,232.2Z" style="fill:#919191;stroke:#263238;stroke-linecap:round;stroke-linejoin:round"></path><path d="M362.55,233.81l-4.15,13.61,3.45,3.92s3.69,1.15,4.38,1.38,1.85-.46,2.54-1.38,2.54-6.46,2.54-6.46a52.09,52.09,0,0,0,1.15-6.92c0-1.84.69-2.3-.69-3.45a6.63,6.63,0,0,0-3.69-1.16S363.24,232.2,362.55,233.81Z" style="fill:#b2b2b2;stroke:#263238;stroke-linecap:round;stroke-linejoin:round"></path><path d="M369.92,249.26l.46,3.92,2.08,2.07,4.84,3.46s3-.69,3.69-3,1.15-7.15,2.07-8.77,2.31-5.3,2.31-6.45S384,237,384,237s-3.45-.92-4.61-1.15-5.3-1.15-6-.69S369.92,249.26,369.92,249.26Z" style="fill:#919191;stroke:#263238;stroke-linecap:round;stroke-linejoin:round"></path><path d="M381,255.72l3,3,3.46.92,3.92-2.76,3.23-4.38,1.15-7.84-.46-4.38-1.84-1.61h-3.69l-4.38,1.84S381,254.33,381,255.72Z" style="fill:#919191;stroke:#263238;stroke-linecap:round;stroke-linejoin:round"></path><path d="M394.59,252.49,393.44,258l1.61,5.76s6,2.77,6.69,2.77a26.2,26.2,0,0,0,4.15-1.61s2.53-5.08,3.22-7.15,3.23-7.15,3.23-7.15V246s-2.77-1.84-3.69-2.3-5.07-.69-5.07-.69-1.61-.47-2.77-.7-2.53-.46-2.53-.46l-1.62.46-.92,2.31Z" style="fill:#b2b2b2;stroke:#263238;stroke-linecap:round;stroke-linejoin:round"></path><path d="M405.89,264.94l2.53,3.22,6.92,2.08,3.92-1.62,2.07-5.53.92-6.91s1.62-3,.23-5.54-1.15-2.76-2.76-3.69-5.07-.46-5.77,0-1.84,1.39-1.84,1.39Z" style="fill:#b2b2b2;stroke:#263238;stroke-linecap:round;stroke-linejoin:round"></path><path d="M419.26,268.62l5.3,3.46s3.23.69,4.15.23a9.36,9.36,0,0,0,3.22-2.76c.47-.93,2.77-5.07,2.77-5.07a39.36,39.36,0,0,0,.92-5.31,9.46,9.46,0,0,0-1.15-3.45s-3.23-1.62-3.92-1.85-.23-.46-2.07-.92,0-.46-1.85-.46a34.31,34.31,0,0,0-3.69.23Z" style="fill:#7a7a7a;stroke:#263238;stroke-linecap:round;stroke-linejoin:round"></path><path d="M428.71,272.31l3,3.92,6.92,1.15,4.61-2.76.46-7.38s2.08-3.46,2.08-4.38-2.08-3.23-2.08-3.23a6.44,6.44,0,0,0-2.3-1.15,22.46,22.46,0,0,0-4.15-.69,1.66,1.66,0,0,0-1.62,1.38Z" style="fill:#b2b2b2;stroke:#263238;stroke-linecap:round;stroke-linejoin:round"></path><path d="M443.23,274.62l-.23,5.3,8.07,5.07,3.69-6.68,4.61-4.61-.46-4.61-2.31-1.85c-3.23-1.15-6.22-2.3-6.22-2.3s-3.46,7.37-5.31,8.53Z" style="fill:#7a7a7a;stroke:#263238;stroke-linecap:round;stroke-linejoin:round"></path><path d="M188.24,244.58s-13.07-1-15.3-.25-3.94,4.69-2.71,5.18,16.29.5,17.27,0S188.24,244.58,188.24,244.58Z" style="fill:none;stroke:#263238;stroke-linecap:round;stroke-linejoin:round"></path><path d="M168.75,244.82s-.25,3.21-2,3.46-3.46-.25-3.71-1.23,0-2.47,1-2.72S168.75,244.82,168.75,244.82Z" style="fill:none;stroke:#263238;stroke-linecap:round;stroke-linejoin:round"></path><path d="M183.31,251.73l-8.39.74s-2,1.49.25,2,17.52,0,17.52,0,2.22-3.21.49-3.21S183.31,251.73,183.31,251.73Z" style="fill:none;stroke:#263238;stroke-linecap:round;stroke-linejoin:round"></path><path d="M199.1,244.33s-6.17,0-6.41,1-.5,2.22.74,2.22a50.9,50.9,0,0,0,6.41-.25c.74-.24,4.69-2.22,3.7-2.71S199.1,244.33,199.1,244.33Z" style="fill:none;stroke:#263238;stroke-linecap:round;stroke-linejoin:round"></path><path d="M213.21,233.61a40.15,40.15,0,0,1-6.21-.38c-1-.5-.74-3.46.25-3.71s16.53-.49,17.27-.49" style="fill:none;stroke:#263238;stroke-linecap:round;stroke-linejoin:round"></path><path d="M224,233.72s-2.25,0-5.12,0" style="fill:none;stroke:#263238;stroke-linecap:round;stroke-linejoin:round"></path><path d="M261.54,234.21s-10.12.5-10.86,1-2.22,1.73-1,2.22a19.35,19.35,0,0,0,5.18,1h5.93S264.25,235,261.54,234.21Z" style="fill:none;stroke:#263238;stroke-linecap:round;stroke-linejoin:round"></path><path d="M263.76,234.71s10.61-.5,11.1,1.23,1.73,3.46.74,3.7a24.51,24.51,0,0,1-8.14.5,23.47,23.47,0,0,1-4.44-1S262.52,234.46,263.76,234.71Z" style="fill:none;stroke:#263238;stroke-linecap:round;stroke-linejoin:round"></path><path d="M337.51,255.31c-5-.78-11.84-1.73-12.31-1.11a6.68,6.68,0,0,0-1,4.94c.49,1.48-.74,4.44,1.23,5.18s17.52,1.48,18.51,1,1.23-4.45,1-5.43" style="fill:none;stroke:#263238;stroke-linecap:round;stroke-linejoin:round"></path><path d="M342.72,256.18s-1.32-.24-3.24-.55" style="fill:none;stroke:#263238;stroke-linecap:round;stroke-linejoin:round"></path><path d="M365,267.44c2.95.19,5.15.33,5.38.33.74,0,.74-8.63-1-9.37s-18-1.48-19.24-1.48" style="fill:none;stroke:#263238;stroke-linecap:round;stroke-linejoin:round"></path><path d="M348.15,266.29l12.27.84" style="fill:none;stroke:#263238;stroke-linecap:round;stroke-linejoin:round"></path><path d="M351.11,268s-3,4.44.5,5.43,28.87,3.21,29.12,2,2-5.18.74-5.92-11.11-1.73-11.11-1.73" style="fill:none;stroke:#263238;stroke-linecap:round;stroke-linejoin:round"></path><path d="M349.63,272.71s-11.6,2-13.57,0-.25-6.17-.25-6.17" style="fill:none;stroke:#263238;stroke-linecap:round;stroke-linejoin:round"></path><line x1="322.24" y1="263.58" x2="308.18" y2="263.58" style="fill:none;stroke:#263238;stroke-linecap:round;stroke-linejoin:round"></line><line x1="322.49" y1="254.45" x2="302.25" y2="253.96" style="fill:none;stroke:#263238;stroke-linecap:round;stroke-linejoin:round"></line><polyline points="299.05 246.31 308.92 246.55 309.41 240.14" style="fill:none;stroke:#263238;stroke-linecap:round;stroke-linejoin:round"></polyline><polyline points="310.89 246.31 317.31 246.55 317.36 238.66" style="fill:none;stroke:#263238;stroke-linecap:round;stroke-linejoin:round"></polyline><path d="M317.31,246.55c2.22,0,16.78,3.46,18,2.72s1-5.19,1-5.19" style="fill:none;stroke:#263238;stroke-linecap:round;stroke-linejoin:round"></path><path d="M403.68,278.88s-17-2-17.28-1,.5,4.2.5,4.2h17.52" style="fill:none;stroke:#263238;stroke-linecap:round;stroke-linejoin:round"></path><path d="M405.9,279.13s-.5-3.46.74-3.71,14.8,1,14.8,1" style="fill:none;stroke:#263238;stroke-linecap:round;stroke-linejoin:round"></path><polyline points="461.17 295.66 466.6 303.56 468.58 309.48" style="fill:none;stroke:#263238;stroke-linecap:round;stroke-linejoin:round"></polyline><path d="M416.29,304.17l-.52-5.8s-1.24-7.89-1.24-9.62,14.56-11.6,14.56-11.6l9.53.23,10.71,10.88,8.11,5.07" style="fill:none;stroke:#263238;stroke-linecap:round;stroke-linejoin:round"></path><line x1="417" y1="311.95" x2="416.6" y2="307.53" style="fill:none;stroke:#263238;stroke-linecap:round;stroke-linejoin:round"></line><path d="M374.81,316.33,363,312.44c-.74-.25,1-19.74,1-19.74S376,295.17,377,295.17c.56,0,4.29.55,7.82,1" style="fill:none;stroke:#263238;stroke-linecap:round;stroke-linejoin:round"></path><path d="M388.19,296.64c1.3.15,2.36.25,2.9.25,2.22,0,6.91,3,6.91,3v11.6l-3.7,3.7-15.55,2.47-.89-.29" style="fill:none;stroke:#263238;stroke-linecap:round;stroke-linejoin:round"></path><path d="M329.2,311.5l-7.45-.29s4.77-7.28,5-8.76-.83-13.21.16-14.69,6.17-2.71,6.17-2.71l9.13,2.22,15.3,2.22,4.44,3.95-3,18-4.44,2.47s-9.4-1.16-15.08-1.8" style="fill:none;stroke:#263238;stroke-linecap:round;stroke-linejoin:round"></path><path d="M335.32,311.7c-.55,0-3.26-.1-6.12-.2" style="fill:none;stroke:#263238;stroke-linecap:round;stroke-linejoin:round"></path><line x1="415.77" y1="298.37" x2="400.96" y2="298.62" style="fill:none;stroke:#263238;stroke-linecap:round;stroke-linejoin:round"></line><line x1="391.58" y1="284.55" x2="391.09" y2="294.18" style="fill:none;stroke:#263238;stroke-linecap:round;stroke-linejoin:round"></line><path d="M383.19,282.58s-6.91.49-6.91,2.22,0,5.68.5,6.66,5.92,2.23,5.92,2.23" style="fill:none;stroke:#263238;stroke-linecap:round;stroke-linejoin:round"></path><path d="M376.28,284.8s-19.24-3.21-20-2.22-1.24,4.94-1.24,4.94" style="fill:none;stroke:#263238;stroke-linecap:round;stroke-linejoin:round"></path><path d="M133,271l-5.73-1.71a50.21,50.21,0,0,0-5.18.5c-.74.25-6.91,4.44-6.91,4.44" style="fill:none;stroke:#263238;stroke-linecap:round;stroke-linejoin:round"></path><path d="M158.46,269c-6.59-.07-13.65.46-13.65.46l-1.72,4.44-5.57-1.65" style="fill:none;stroke:#263238;stroke-linecap:round;stroke-linejoin:round"></path><path d="M141.6,280.85c-.24.74-.74,7.9-.74,9.13s1.49,1.24,3,1.48,15.54,2.72,17.52,3,3.94-2,4.19-2.72S167,287,167,287l4.69-1.72s3-2,3.21-3.46-3.7-7.65-5.43-10.86c-.54-1-3.15-1.52-6.48-1.76" style="fill:none;stroke:#263238;stroke-linecap:round;stroke-linejoin:round"></path><polyline points="128.53 257.41 149.75 254.69 150.24 250.99 147.03 248.03 151.97 248.28" style="fill:none;stroke:#263238;stroke-linecap:round;stroke-linejoin:round"></polyline><path d="M166.53,257.66s-15.3-1.73-15.79-1-2.23,3.21-1.24,3.45,18.76,1.48,18.76,1.48l1.23-2.71" style="fill:none;stroke:#263238;stroke-linecap:round;stroke-linejoin:round"></path><line x1="166.04" y1="250.25" x2="163.57" y2="255.44" style="fill:none;stroke:#263238;stroke-linecap:round;stroke-linejoin:round"></line><line x1="175.41" y1="259.14" x2="188.98" y2="258.89" style="fill:none;stroke:#263238;stroke-linecap:round;stroke-linejoin:round"></line><polyline points="197.13 237.67 185.28 239.15 185.04 242.85" style="fill:none;stroke:#263238;stroke-linecap:round;stroke-linejoin:round"></polyline><path d="M294.19,237.17h6.34l1.48-2.71" style="fill:none;stroke:#263238;stroke-linecap:round;stroke-linejoin:round"></path><path d="M289.24,228.51s-7,2.25-7.22,4-.74,4.68,0,4.68h7.23" style="fill:none;stroke:#263238;stroke-linecap:round;stroke-linejoin:round"></path></g><g id="freepik--Plants--inject-74"><path d="M227.48,363.12c1.48.41,4.87-.16,4.87-.16s-1-2.12-1.13-2.25c-1-1.45-3.71-3.69-5.6-3.15a2.32,2.32,0,0,0-1.42,3.14A4.8,4.8,0,0,0,227.48,363.12Z" style="fill:#263238"></path><path d="M262,358.88s.29-2.35.29-2.5c0-1.75-1.06-5.13-2.92-5.72a2.33,2.33,0,0,0-2.93,1.84,4.86,4.86,0,0,0,1.41,3.83C258.87,357.48,262,358.88,262,358.88Z" style="fill:#263238"></path><path d="M270.38,345.07c-2,.08-3.86,3.05-4.34,4.73,0,.15-.42,2.5-.39,2.49h.05c-.31.47-.63,1-1,1.53-.62,1-1.31,2.21-2,3.54a44.32,44.32,0,0,0-1.94,4.39,30.66,30.66,0,0,0-1.46,5.18V367c-.08-.57-.33-2.15-.37-2.27-.47-1.69-2.37-4.66-4.33-4.74a2.32,2.32,0,0,0-2.33,2.54,4.88,4.88,0,0,0,2.36,3.33,16.27,16.27,0,0,0,4.64,1.35,40.27,40.27,0,0,0-.51,5.45c0,1.07,0,2.14,0,3.22-.08-.49-.15-.93-.17-1-.47-1.69-2.37-4.66-4.33-4.74a2.31,2.31,0,0,0-2.33,2.54,4.85,4.85,0,0,0,2.36,3.33,15.53,15.53,0,0,0,4.5,1.33c0,.41,0,.82,0,1.24.05,2,.11,3.95.11,5.89,0,.68,0,1.36-.05,2-.07-.43-.13-.8-.15-.86-.47-1.68-2.37-4.66-4.33-4.73a2.31,2.31,0,0,0-2.33,2.54,4.81,4.81,0,0,0,2.36,3.32,14.61,14.61,0,0,0,4.37,1.31c0,.69-.09,1.38-.16,2.05-.06.45-.09.89-.18,1.34s-.15.9-.22,1.34c-.18.84-.35,1.71-.55,2.53-.12.57-.26,1.11-.39,1.65,0-.68,0-2,0-2.12a9.06,9.06,0,0,0-1.82-4.16,2.13,2.13,0,0,0-.11-.5,2.3,2.3,0,0,0-3.08-1.54c-1.8.77-2.52,4.23-2.35,6,0,.1.23,1.21.39,1.9-.15-.39-.3-.78-.46-1.18-.32-.8-.66-1.59-1-2.44l-.57-1.23c-.19-.41-.43-.82-.65-1.24-.51-1-1.09-1.91-1.68-2.85a15.09,15.09,0,0,0,4.09-2.25,4.83,4.83,0,0,0,1.6-3.74,2.31,2.31,0,0,0-2.82-2c-1.9.48-3.12,3.8-3.23,5.54,0,.11.06,1.37.11,2.07-.36-.57-.72-1.13-1.11-1.69-1.11-1.61-2.29-3.2-3.45-4.8l-1.06-1.47a16.11,16.11,0,0,0,4.24-2.31,4.83,4.83,0,0,0,1.6-3.75,2.32,2.32,0,0,0-2.82-2c-1.89.49-3.12,3.81-3.23,5.55,0,.13.09,2,.14,2.41-.77-1.08-1.54-2.16-2.25-3.26a41,41,0,0,1-2.6-4.62,16,16,0,0,0,4.27-2.31,4.86,4.86,0,0,0,1.6-3.75,2.32,2.32,0,0,0-2.82-2c-1.89.49-3.12,3.8-3.23,5.55,0,.11.07,1.49.12,2.15l-.11,0a29.8,29.8,0,0,1-1.73-5c-.25-.94-.44-1.86-.59-2.76a15.37,15.37,0,0,0,4.38-1.81,4.82,4.82,0,0,0,2-3.55,2.32,2.32,0,0,0-2.58-2.28c-1.94.27-3.53,3.43-3.82,5.16,0,.09-.08,1.06-.11,1.77-.06-.41-.14-.82-.19-1.22-.21-1.46-.32-2.82-.4-4,0-.68-.06-1.3-.07-1.88a15.86,15.86,0,0,0,3-3.61,4.83,4.83,0,0,0,.14-4.07,2.31,2.31,0,0,0-3.34-.84c-1.6,1.14-1.55,4.67-1,6.34,0,.14,1,2.31,1,2.29l0,0c0,.56,0,1.15,0,1.81,0,1.2.12,2.56.3,4a41.31,41.31,0,0,0,.81,4.74,29.46,29.46,0,0,0,1.64,5.12l0,.06c-.38-.44-1.47-1.62-1.56-1.7-1.32-1.15-4.55-2.58-6.23-1.56a2.31,2.31,0,0,0-.54,3.4,4.82,4.82,0,0,0,3.8,1.47,16.37,16.37,0,0,0,4.62-1.42,40.31,40.31,0,0,0,2.58,4.83c.56.9,1.15,1.8,1.75,2.69-.34-.37-.64-.69-.69-.73-1.32-1.15-4.55-2.58-6.22-1.57a2.33,2.33,0,0,0-.55,3.41,4.84,4.84,0,0,0,3.81,1.47,15.29,15.29,0,0,0,4.49-1.37l.7,1c1.13,1.62,2.27,3.24,3.34,4.86.37.57.72,1.14,1.08,1.72-.3-.33-.56-.6-.6-.63-1.32-1.15-4.55-2.58-6.23-1.57a2.32,2.32,0,0,0-.54,3.41,4.85,4.85,0,0,0,3.8,1.47,14.61,14.61,0,0,0,4.37-1.32c.35.6.69,1.2,1,1.8.19.41.42.79.59,1.21l.55,1.24c.32.8.65,1.63.94,2.41.21.55.4,1.07.59,1.6-.37-.57-1.12-1.67-1.19-1.76-1.13-1.33-4.11-3.24-5.92-2.49a2.33,2.33,0,0,0-1,3.29,4.89,4.89,0,0,0,3.54,2,16,16,0,0,0,4.75-.71c.31.88.6,1.73.87,2.54.92,2.78,1.58,5.13,2,6.79l1.31-.19,0-.11c-.48-1.67-1.21-4.05-2.2-6.86-.31-.89-.67-1.84-1-2.8a25.23,25.23,0,0,0,2.47-1.63,17.36,17.36,0,0,0,4.23,1.93c-.22.9-.45,1.77-.67,2.59-.77,2.83-1.52,5.15-2.07,6.78l1.44-.21c.5-1.61,1.12-3.74,1.75-6.27.23-.92.46-1.9.68-2.91a15.56,15.56,0,0,0,4.79-.32,4.81,4.81,0,0,0,3-2.73,2.32,2.32,0,0,0-1.72-3c-1.93-.35-4.43,2.15-5.26,3.69-.05.09-.47,1.14-.72,1.8.09-.41.18-.81.27-1.24.18-.84.33-1.69.49-2.6.07-.44.14-.88.2-1.33s.1-.93.15-1.4c.1-1.08.15-2.19.17-3.3a15.31,15.31,0,0,0,4.65.38,4.87,4.87,0,0,0,3.4-2.24,2.32,2.32,0,0,0-1.25-3.22c-1.85-.64-4.7,1.45-5.75,2.85-.07.09-.71,1.18-1.05,1.78,0-.67,0-1.34,0-2,0-1.95-.14-3.93-.23-5.91,0-.6,0-1.21-.07-1.81a16.06,16.06,0,0,0,4.81.42,4.85,4.85,0,0,0,3.4-2.25,2.32,2.32,0,0,0-1.25-3.21c-1.85-.64-4.7,1.45-5.75,2.85-.08.1-1,1.67-1.22,2.08-.05-1.33-.09-2.66-.07-4a39.69,39.69,0,0,1,.37-5.29c.12,0,3.37.75,4.84.43a4.87,4.87,0,0,0,3.41-2.25,2.32,2.32,0,0,0-1.26-3.21c-1.85-.64-4.7,1.45-5.75,2.85-.07.09-.77,1.28-1.09,1.86l-.11,0a29.73,29.73,0,0,1,1.33-5.16c.32-.92.67-1.79,1-2.63a15.49,15.49,0,0,0,4.66.92,4.85,4.85,0,0,0,3.63-1.86,2.32,2.32,0,0,0-.89-3.33c-1.77-.84-4.84.92-6,2.2-.06.07-.64.84-1.06,1.42.17-.38.34-.77.51-1.12.63-1.34,1.29-2.53,1.89-3.58.34-.59.66-1.12,1-1.61a15.41,15.41,0,0,0,4.53-1.33,4.86,4.86,0,0,0,2.37-3.32A2.32,2.32,0,0,0,270.38,345.07Z" style="fill:#263238"></path><path d="M369.52,385.3c2.85.79,9.4-.31,9.41-.31s-2-4.1-2.2-4.34c-1.88-2.81-7.16-7.13-10.8-6.09a4.48,4.48,0,0,0-2.75,6.07C364.17,383.11,367.08,384.64,369.52,385.3Z" style="fill:#263238"></path><path d="M436.18,377.11c.07,0,.56-4.54.56-4.83,0-3.38-2-9.89-5.65-11a4.48,4.48,0,0,0-5.64,3.54c-.54,2.62,1.05,5.5,2.71,7.4C430.11,374.42,436.18,377.11,436.18,377.11Z" style="fill:#263238"></path><path d="M452.34,350.46c-3.78.14-7.46,5.88-8.38,9.13-.08.28-.81,4.82-.74,4.81l.08,0c-.59.91-1.21,1.88-1.87,3-1.2,2-2.53,4.27-3.82,6.84a78.55,78.55,0,0,0-3.75,8.48,58.41,58.41,0,0,0-2.81,10s0,.08,0,.12c-.14-1.1-.64-4.16-.7-4.39-.91-3.25-4.58-9-8.36-9.15a4.49,4.49,0,0,0-4.51,4.91c.17,2.67,2.46,5,4.56,6.42,2.38,1.57,8.47,2.54,9,2.62a80,80,0,0,0-1,10.52c-.07,2.06-.07,4.13-.05,6.2-.15-.94-.3-1.79-.33-1.9-.91-3.26-4.58-9-8.36-9.15a4.47,4.47,0,0,0-4.5,4.91c.16,2.66,2.45,5,4.56,6.41s7.31,2.35,8.68,2.58c0,.79,0,1.59.05,2.39.09,3.82.21,7.63.2,11.37,0,1.32-.05,2.62-.09,3.92-.14-.84-.26-1.54-.29-1.65-.91-3.25-4.58-9-8.36-9.15a4.48,4.48,0,0,0-4.51,4.91c.17,2.66,2.46,5,4.57,6.41s6.8,2.26,8.43,2.54c-.08,1.33-.17,2.66-.31,3.94-.12.88-.17,1.73-.34,2.6s-.29,1.73-.43,2.58c-.34,1.62-.68,3.31-1.05,4.88-.25,1.1-.51,2.15-.76,3.2,0-1.31,0-3.88,0-4.1a17.33,17.33,0,0,0-3.52-8,4.65,4.65,0,0,0-.2-1,4.47,4.47,0,0,0-6-3c-3.48,1.48-4.85,8.16-4.54,11.53,0,.2.46,2.33.76,3.67-.3-.77-.58-1.51-.89-2.29-.61-1.54-1.27-3.06-2-4.71l-1.1-2.36c-.36-.8-.83-1.6-1.24-2.41-1-1.85-2.11-3.68-3.26-5.49,1.35-.54,6.13-2.52,7.89-4.34s3.5-4.6,3.1-7.24a4.47,4.47,0,0,0-5.44-3.84c-3.66.95-6,7.34-6.23,10.71,0,.21.11,2.65.21,4-.7-1.09-1.4-2.18-2.14-3.26-2.15-3.11-4.42-6.18-6.67-9.27-.69-.94-1.37-1.89-2.05-2.84.48-.18,6.2-2.42,8.18-4.45,1.76-1.81,3.5-4.6,3.1-7.24a4.47,4.47,0,0,0-5.44-3.84c-3.66.95-6,7.34-6.23,10.71,0,.26.17,3.76.26,4.65-1.5-2.09-3-4.18-4.34-6.3a79.3,79.3,0,0,1-5-8.91c.22-.08,6.21-2.39,8.23-4.47,1.76-1.8,3.51-4.6,3.1-7.24a4.47,4.47,0,0,0-5.44-3.84c-3.66.95-6,7.34-6.23,10.71,0,.23.13,2.9.22,4.16l-.21.06a58.1,58.1,0,0,1-3.35-9.72c-.48-1.83-.83-3.61-1.14-5.34,1.16-.31,6.44-1.81,8.47-3.48s4-4.19,3.87-6.86a4.46,4.46,0,0,0-5-4.41c-3.75.53-6.8,6.63-7.37,10,0,.18-.15,2.06-.21,3.42-.12-.78-.27-1.59-.38-2.34-.4-2.84-.6-5.45-.75-7.77-.08-1.32-.13-2.52-.16-3.64,1-.9,4.87-4.58,5.88-7s1.61-5.55.28-7.87a4.48,4.48,0,0,0-6.46-1.62c-3.07,2.2-3,9-1.95,12.24.09.28,2,4.47,2,4.42l.06-.05c0,1.07,0,2.23.07,3.49.11,2.33.25,5,.59,7.81a80.92,80.92,0,0,0,1.55,9.14,58.36,58.36,0,0,0,3.17,9.89l.06.11c-.73-.84-2.83-3.12-3-3.28-2.55-2.21-8.79-5-12-3a4.48,4.48,0,0,0-1.05,6.58c1.61,2.13,4.82,2.83,7.35,2.84,2.84,0,8.46-2.55,8.9-2.76a78.72,78.72,0,0,0,5,9.33c1.07,1.75,2.21,3.48,3.38,5.2-.65-.71-1.24-1.34-1.33-1.41-2.55-2.22-8.78-5-12-3a4.47,4.47,0,0,0-1.05,6.57c1.61,2.14,4.82,2.84,7.35,2.84s7.39-2.08,8.66-2.64c.45.65.9,1.31,1.36,2,2.18,3.14,4.38,6.26,6.44,9.38.73,1.1,1.4,2.21,2.08,3.32-.57-.62-1.06-1.15-1.15-1.22-2.55-2.21-8.78-5-12-3a4.48,4.48,0,0,0-1.05,6.58c1.61,2.13,4.83,2.84,7.35,2.84s6.92-1.88,8.43-2.55c.66,1.16,1.33,2.32,1.92,3.47.38.79.81,1.53,1.15,2.35l1.06,2.39c.61,1.55,1.26,3.13,1.82,4.66.4,1.05.76,2.06,1.13,3.08-.71-1.1-2.15-3.23-2.29-3.4-2.19-2.57-7.93-6.25-11.43-4.8a4.48,4.48,0,0,0-2,6.34c1.27,2.35,4.34,3.53,6.83,3.92,2.74.42,8.46-1.16,9.17-1.36.6,1.69,1.17,3.33,1.68,4.9,1.77,5.36,3,9.9,3.89,13.11l2.54-.37-.06-.21c-.93-3.23-2.33-7.83-4.25-13.26-.6-1.71-1.28-3.54-2-5.4a49.37,49.37,0,0,0,4.76-3.15c2.22,1.8,7.48,3.51,8.16,3.73-.43,1.74-.86,3.43-1.3,5-1.48,5.46-2.92,9.94-4,13.09l2.78-.41c.95-3.1,2.15-7.23,3.37-12.11.44-1.76.88-3.66,1.32-5.61.72.05,6.65.38,9.25-.61,2.36-.91,5.1-2.71,5.85-5.28a4.47,4.47,0,0,0-3.34-5.76c-3.72-.68-8.55,4.13-10.14,7.11-.1.18-.91,2.19-1.39,3.48.17-.8.34-1.57.51-2.4.34-1.62.64-3.25,1-5,.13-.85.25-1.71.38-2.58s.19-1.79.29-2.69c.19-2.1.28-4.23.32-6.38,1.43.29,6.5,1.27,9,.73s5.45-1.9,6.57-4.32a4.47,4.47,0,0,0-2.42-6.21c-3.57-1.23-9.08,2.79-11.1,5.5-.13.16-1.37,2.27-2,3.43,0-1.29,0-2.58,0-3.89-.08-3.78-.28-7.6-.46-11.41-.05-1.17-.09-2.33-.14-3.5.51.11,6.51,1.41,9.29.8,2.46-.53,5.45-1.9,6.57-4.33a4.47,4.47,0,0,0-2.42-6.2c-3.57-1.23-9.08,2.79-11.11,5.49-.15.21-1.92,3.23-2.34,4-.1-2.57-.17-5.13-.14-7.66a78.71,78.71,0,0,1,.72-10.19c.24.05,6.5,1.43,9.34.81,2.46-.54,5.45-1.9,6.57-4.33a4.47,4.47,0,0,0-2.41-6.2c-3.58-1.24-9.09,2.79-11.11,5.49-.14.18-1.49,2.48-2.11,3.6l-.2-.08a57.7,57.7,0,0,1,2.56-9.95c.61-1.79,1.29-3.47,2-5.08,1.14.37,6.36,2,9,1.76s5.63-1.29,7-3.57a4.48,4.48,0,0,0-1.72-6.44c-3.42-1.62-9.33,1.78-11.64,4.24-.13.14-1.26,1.64-2.06,2.75.32-.73.65-1.48,1-2.17,1.22-2.58,2.5-4.88,3.65-6.9.66-1.14,1.29-2.16,1.88-3.11,1.31-.21,6.58-1.14,8.74-2.57s4.4-3.74,4.58-6.4A4.49,4.49,0,0,0,452.34,350.46Z" style="fill:#263238"></path><path d="M326.46,465.34c2.05-1.07,5.2-5.18,5.21-5.18s-3.34-1.26-3.56-1.31c-2.57-.61-7.88-.27-9.41,2.25a3.5,3.5,0,0,0,1.65,4.93C322.24,466.92,324.71,466.25,326.46,465.34Z" style="fill:#263238"></path><path d="M360.21,425.25c.05,0-2.09-2.89-2.25-3.06-1.8-1.92-6.42-4.57-9.08-3.31a3.49,3.49,0,0,0-1.35,5c1.08,1.79,3.52,2.59,5.48,2.79C355.3,426.93,360.2,425.25,360.21,425.25Z" style="fill:#263238"></path><path d="M355.29,401.43c-2.09,2.09-1.14,7.33.06,9.67.1.21,2.09,3.19,2.12,3.15l0-.05c.15.82.31,1.71.51,2.67.37,1.78.82,3.79,1.45,5.94a60.69,60.69,0,0,0,2.36,6.84,46,46,0,0,0,3.7,7.2l.06.08c-.67-.55-2.58-2-2.73-2.14-2.25-1.37-7.4-2.71-9.64-.78a3.49,3.49,0,0,0,0,5.19c1.51,1.44,4.07,1.57,6,1.25,2.19-.36,6.19-3,6.51-3.26a60,60,0,0,0,5,6.54c1.05,1.21,2.15,2.4,3.26,3.57-.59-.46-1.12-.87-1.2-.91-2.25-1.38-7.4-2.72-9.63-.79a3.48,3.48,0,0,0,0,5.19c1.51,1.44,4.07,1.57,6,1.25s5.43-2.54,6.33-3.14c.44.44.86.89,1.3,1.34,2.08,2.13,4.17,4.25,6.16,6.39.7.76,1.36,1.53,2,2.29-.52-.4-1-.74-1-.79-2.25-1.37-7.4-2.71-9.63-.79a3.49,3.49,0,0,0,0,5.2c1.51,1.44,4.07,1.57,6,1.25s5.09-2.33,6.17-3c.66.81,1.32,1.61,1.92,2.42.39.57.82,1.08,1.18,1.67l1.12,1.7c.67,1.11,1.37,2.25,2,3.35.44.76.85,1.5,1.26,2.23-.69-.76-2.07-2.21-2.19-2.32a13.58,13.58,0,0,0-6.28-2.72,4.53,4.53,0,0,0-.63-.45,3.49,3.49,0,0,0-5,1.47c-1.2,2.69,1.57,7.24,3.53,9,.12.1,1.5,1.08,2.38,1.69L384.2,478c-1.17-.56-2.35-1.08-3.62-1.65l-1.89-.76c-.63-.27-1.32-.48-2-.72-1.55-.53-3.15-1-4.78-1.41.49-1,2.16-4.69,2.21-6.67s-.44-4.49-2.07-5.78a3.49,3.49,0,0,0-5.15.69c-1.6,2.49.45,7.4,2.12,9.43.11.13,1.47,1.46,2.24,2.17-1-.25-1.95-.51-2.95-.73-2.88-.63-5.82-1.18-8.74-1.75l-2.68-.53c.18-.37,2.26-4.68,2.32-6.9,0-2-.45-4.48-2.08-5.78a3.49,3.49,0,0,0-5.15.7c-1.59,2.48.45,7.4,2.13,9.43.12.15,2.09,2.05,2.62,2.51-2-.39-3.92-.8-5.83-1.29a63.05,63.05,0,0,1-7.6-2.42c.08-.17,2.28-4.67,2.33-6.93.05-2-.44-4.49-2.07-5.79a3.5,3.5,0,0,0-5.15.7c-1.6,2.48.45,7.4,2.12,9.43.11.14,1.61,1.59,2.34,2.26l-.09.14a45.6,45.6,0,0,1-7.08-3.77c-1.24-.79-2.39-1.62-3.48-2.45.49-.79,2.71-4.45,3-6.49s0-4.51-1.43-6a3.5,3.5,0,0,0-5.2.12c-1.85,2.3-.36,7.41,1.08,9.61.08.12,1,1.25,1.7,2.07-.49-.38-1-.77-1.46-1.14-1.73-1.41-3.24-2.8-4.56-4-.74-.72-1.4-1.37-2-2,.07-1,.34-5.2-.34-7.1s-2-4-4-4.64a3.5,3.5,0,0,0-4.56,2.5c-.59,2.89,3.09,6.74,5.39,8,.2.11,3.5,1.5,3.51,1.45v-.06c.58.61,1.2,1.26,1.9,1.95,1.29,1.28,2.77,2.71,4.48,4.15a63,63,0,0,0,5.75,4.41,45.4,45.4,0,0,0,7.06,4l.09,0c-.86-.1-3.27-.29-3.46-.28-2.63.09-7.67,1.82-8.47,4.66a3.49,3.49,0,0,0,2.89,4.32c2.05.36,4.26-.94,5.7-2.28,1.63-1.51,3.49-5.95,3.63-6.31a60.67,60.67,0,0,0,7.8,2.68c1.55.43,3.12.82,4.7,1.18-.75-.06-1.41-.11-1.51-.1-2.63.09-7.67,1.82-8.47,4.66a3.48,3.48,0,0,0,2.89,4.31c2.05.37,4.26-.94,5.71-2.28s3.12-5.11,3.54-6.11l1.82.41c2.92.63,5.83,1.24,8.67,1.93,1,.25,2,.52,2.95.79-.66,0-1.22-.09-1.3-.08-2.64.09-7.67,1.82-8.48,4.66a3.49,3.49,0,0,0,2.9,4.31c2.05.37,4.26-.94,5.7-2.28s3-4.74,3.47-5.93c1,.31,2,.62,2.94,1,.64.25,1.27.45,1.9.74l1.88.8c1.17.56,2.38,1.12,3.51,1.69.79.39,1.53.78,2.28,1.17-1-.26-2.94-.71-3.11-.73-2.62-.31-7.86.64-9.08,3.32a3.5,3.5,0,0,0,2.2,4.71c2,.67,4.36-.29,6-1.39,1.79-1.22,4.22-5.16,4.52-5.65,1.24.65,2.44,1.29,3.56,1.91,3.86,2.13,7,4,9.19,5.42l1.25-1.55-.14-.09c-2.25-1.35-5.49-3.24-9.47-5.32-1.26-.66-2.61-1.34-4-2a37,37,0,0,0,1.05-4.33c2.22-.15,6.14-2,6.65-2.2.67,1.22,1.32,2.41,1.91,3.55,2.05,3.91,3.61,7.24,4.68,9.6l1.37-1.71c-1.1-2.28-2.61-5.28-4.51-8.72-.68-1.24-1.43-2.56-2.22-3.9.44-.36,4-3.32,5-5.27.87-1.76,1.48-4.26.54-6.12a3.49,3.49,0,0,0-5-1.52c-2.49,1.59-2.69,6.9-2,9.45,0,.15.65,1.74,1.05,2.73-.32-.55-.63-1.08-1-1.64-.67-1.11-1.37-2.2-2.12-3.38L390.94,464c-.38-.57-.84-1.12-1.26-1.69-1-1.3-2.09-2.56-3.21-3.82,1-.58,4.39-2.72,5.52-4.34s2.11-4,1.46-6a3.49,3.49,0,0,0-4.68-2.26c-2.7,1.2-3.7,6.42-3.43,9,0,.17.43,2,.67,3-.68-.75-1.35-1.5-2.06-2.23-2.05-2.12-4.19-4.2-6.32-6.28l-1.94-1.93c.35-.2,4.47-2.65,5.73-4.47,1.13-1.61,2.11-4,1.46-6a3.5,3.5,0,0,0-4.68-2.26c-2.69,1.2-3.7,6.42-3.42,9,0,.2.61,2.87.79,3.55-1.42-1.42-2.82-2.84-4.15-4.3a62.36,62.36,0,0,1-5-6.21c.16-.1,4.48-2.64,5.77-4.5,1.13-1.61,2.11-4,1.46-6a3.49,3.49,0,0,0-4.68-2.27c-2.7,1.2-3.7,6.42-3.43,9,0,.17.47,2.2.71,3.17l-.16.07a45.61,45.61,0,0,1-3.82-7.06c-.6-1.34-1.1-2.66-1.56-4,.85-.39,4.72-2.22,6.08-3.76s2.53-3.73,2.1-5.77a3.48,3.48,0,0,0-4.4-2.76c-2.81.89-4.39,6-4.4,8.6,0,.15.15,1.61.28,2.67-.2-.59-.41-1.2-.59-1.76-.68-2.13-1.16-4.12-1.58-5.89-.23-1-.41-1.92-.58-2.77.64-.82,3.16-4.15,3.64-6.11s.52-4.48-.79-6.09A3.5,3.5,0,0,0,355.29,401.43Z" style="fill:#263238"></path><path d="M269.39,377.32a12.54,12.54,0,0,0,3.33,1.44s0-1.76-.05-1.87c-.19-1.29-1.32-3.66-2.76-3.9a1.72,1.72,0,0,0-2,1.66A3.59,3.59,0,0,0,269.39,377.32Z" style="fill:#263238"></path><path d="M294,385.43s.95-1.49,1-1.59c.55-1.18.92-3.78-.15-4.77a1.72,1.72,0,0,0-2.55.3,3.59,3.59,0,0,0-.27,3A12.3,12.3,0,0,0,294,385.43Z" style="fill:#263238"></path><path d="M304,378.8c-1.34-.57-3.56.82-4.42,1.81-.07.08-1.07,1.54-1.05,1.55h0c-.35.22-.73.46-1.13.73-.75.5-1.58,1.07-2.45,1.75a30.66,30.66,0,0,0-2.71,2.34,23.57,23.57,0,0,0-2.62,3l0,.05c.13-.41.46-1.56.48-1.65.21-1.28-.12-3.89-1.41-4.56a1.73,1.73,0,0,0-2.38,1,3.58,3.58,0,0,0,.54,3,12.07,12.07,0,0,0,2.68,2.39,31.6,31.6,0,0,0-2.07,3.5c-.36.7-.7,1.42-1,2.15.11-.35.19-.67.2-.72.22-1.28-.11-3.88-1.4-4.56a1.73,1.73,0,0,0-2.38,1,3.63,3.63,0,0,0,.53,3,11.58,11.58,0,0,0,2.6,2.32l-.37.84c-.6,1.35-1.19,2.69-1.8,4-.22.46-.45.91-.68,1.35.09-.31.17-.58.17-.62.22-1.28-.11-3.89-1.41-4.56a1.72,1.72,0,0,0-2.37,1,3.61,3.61,0,0,0,.53,3,10.68,10.68,0,0,0,2.53,2.27c-.25.45-.5.9-.76,1.32s-.35.58-.55.85l-.57.83c-.39.51-.78,1-1.17,1.53l-.79,1c.22-.46.63-1.36.66-1.44a6.74,6.74,0,0,0,.1-3.37,1.63,1.63,0,0,0,.08-.37,1.72,1.72,0,0,0-1.58-2c-1.46-.05-3,2.05-3.48,3.27,0,.07-.22.89-.34,1.4,0-.31.05-.61.07-.94,0-.64.06-1.27.09-2v-1c0-.33,0-.69,0-1,0-.81-.12-1.63-.22-2.45a11.21,11.21,0,0,0,3.46-.21,3.59,3.59,0,0,0,2.26-2,1.71,1.71,0,0,0-1.26-2.23c-1.43-.28-3.31,1.56-3.93,2.7,0,.07-.4.94-.58,1.42-.07-.49-.13-1-.21-1.48-.24-1.44-.52-2.88-.8-4.33-.09-.44-.17-.88-.25-1.32a11.89,11.89,0,0,0,3.58-.21,3.58,3.58,0,0,0,2.27-2,1.72,1.72,0,0,0-1.26-2.23c-1.43-.27-3.31,1.57-3.93,2.71-.05.08-.56,1.33-.67,1.66-.18-1-.35-1.95-.48-2.91a29.43,29.43,0,0,1-.28-3.93,12.07,12.07,0,0,0,3.6-.2,3.63,3.63,0,0,0,2.27-2,1.72,1.72,0,0,0-1.27-2.23c-1.43-.28-3.3,1.56-3.93,2.7,0,.08-.43,1-.6,1.49l-.08,0a21.4,21.4,0,0,1,.43-3.93c.13-.72.3-1.39.48-2.05a11.54,11.54,0,0,0,3.52.18,3.59,3.59,0,0,0,2.47-1.75,1.71,1.71,0,0,0-1-2.36c-1.39-.43-3.46,1.19-4.2,2.26,0,.06-.39.69-.64,1.16.09-.3.17-.6.26-.88.32-1.05.69-2,1-2.83.19-.47.37-.9.55-1.29A11.63,11.63,0,0,0,278,372a3.62,3.62,0,0,0,1.39-2.69,1.72,1.72,0,0,0-2-1.63c-1.44.26-2.53,2.65-2.7,3.94,0,.11,0,1.88,0,1.87h0c-.17.37-.35.78-.54,1.22-.35.83-.73,1.77-1.08,2.82a30.81,30.81,0,0,0-1,3.44,23.38,23.38,0,0,0-.52,4V385c-.11-.41-.47-1.55-.5-1.64-.53-1.19-2.25-3.17-3.69-3a1.71,1.71,0,0,0-1.45,2.11,3.61,3.61,0,0,0,2.09,2.2,12.26,12.26,0,0,0,3.55.51,31.12,31.12,0,0,0,.21,4.06c.08.79.2,1.58.32,2.37-.11-.35-.21-.67-.23-.71-.53-1.19-2.24-3.18-3.69-3a1.73,1.73,0,0,0-1.45,2.12,3.58,3.58,0,0,0,2.1,2.19,11.11,11.11,0,0,0,3.45.51c.05.3.09.6.15.91.24,1.45.49,2.89.7,4.32.07.5.12,1,.18,1.5l-.2-.61c-.53-1.19-2.24-3.18-3.69-3a1.73,1.73,0,0,0-1.45,2.12,3.59,3.59,0,0,0,2.09,2.19,10.87,10.87,0,0,0,3.36.5c0,.51.08,1,.1,1.52,0,.34,0,.67,0,1l0,1c0,.64-.07,1.3-.13,1.92,0,.43-.07.84-.11,1.26-.07-.5-.22-1.48-.24-1.56-.34-1.26-1.73-3.48-3.19-3.55a1.73,1.73,0,0,0-1.75,1.87,3.62,3.62,0,0,0,1.74,2.49,11.46,11.46,0,0,0,3.41,1c-.07.69-.14,1.36-.22,2-.26,2.16-.57,3.95-.8,5.21l.95.29V415c.21-1.27.48-3.1.7-5.31.07-.7.14-1.44.19-2.21a16.75,16.75,0,0,0,2.18-.31,12.84,12.84,0,0,0,2.23,2.64c-.44.53-.86,1.05-1.28,1.53-1.41,1.65-2.65,3-3.54,3.9l1,.32c.84-.93,1.94-2.17,3.16-3.67.45-.54.91-1.12,1.38-1.73a12.12,12.12,0,0,0,3.33,1.3,3.57,3.57,0,0,0,2.9-.87,1.73,1.73,0,0,0-.21-2.56c-1.19-.84-3.66,0-4.7.81-.07.05-.68.62-1.06,1,.19-.24.38-.48.57-.74.39-.51.76-1,1.16-1.59l.56-.84c.19-.27.36-.59.54-.89.41-.7.79-1.42,1.16-2.17a11,11,0,0,0,3,1.73,3.6,3.6,0,0,0,3-.42,1.72,1.72,0,0,0,.17-2.56c-1-1-3.62-.52-4.77.09l-1.27.86c.22-.44.44-.89.65-1.35.59-1.33,1.15-2.69,1.72-4.05.17-.42.35-.83.52-1.24a12,12,0,0,0,3.1,1.8,3.58,3.58,0,0,0,3-.42,1.72,1.72,0,0,0,.18-2.56c-1-1-3.62-.52-4.77.09-.09,0-1.2.81-1.48,1,.39-.91.79-1.81,1.21-2.69a32.37,32.37,0,0,1,1.93-3.43,12,12,0,0,0,3.12,1.82,3.6,3.6,0,0,0,3-.42,1.73,1.73,0,0,0,.18-2.56c-1-1-3.62-.52-4.77.08-.08,0-.93.62-1.33.91l-.06-.06a22.66,22.66,0,0,1,2.53-3c.51-.53,1-1,1.53-1.45a11.73,11.73,0,0,0,2.84,2.1,3.6,3.6,0,0,0,3-.1,1.72,1.72,0,0,0,.46-2.52c-.93-1.13-3.55-.91-4.75-.44l-1.17.62.69-.59c.86-.7,1.68-1.29,2.41-1.81.42-.28.8-.54,1.17-.77a11.57,11.57,0,0,0,3.46.54,3.59,3.59,0,0,0,2.65-1.48A1.72,1.72,0,0,0,304,378.8Z" style="fill:#263238"></path><path d="M424.16,291a7.11,7.11,0,0,0,2.13.38s-.26-1-.29-1.08c-.29-.72-1.27-1.94-2.13-1.88a1,1,0,0,0-.91,1.23A2.12,2.12,0,0,0,424.16,291Z" style="fill:#263238"></path><path d="M439.53,292.35s.35-1,.36-1.06c.16-.76,0-2.32-.74-2.75a1,1,0,0,0-1.44.53,2.15,2.15,0,0,0,.26,1.79A7.19,7.19,0,0,0,439.53,292.35Z" style="fill:#263238"></path><path d="M444.44,287.14c-.85-.15-2,1-2.32,1.65,0,.06-.41,1-.4,1h0l-.56.58c-.36.39-.77.84-1.18,1.35a17.56,17.56,0,0,0-1.25,1.73,12.74,12.74,0,0,0-1.11,2.11v0c0-.26.05-1,.05-1-.05-.78-.6-2.25-1.44-2.46A1,1,0,0,0,435,293a2.13,2.13,0,0,0,.72,1.66,7.06,7.06,0,0,0,1.89,1,18.32,18.32,0,0,0-.73,2.31c-.11.46-.21.93-.31,1.4,0-.22,0-.42,0-.45-.05-.77-.6-2.24-1.44-2.45a1,1,0,0,0-1.25.88,2.13,2.13,0,0,0,.72,1.66,6.87,6.87,0,0,0,1.83,1c0,.18-.07.36-.11.54-.16.86-.31,1.72-.49,2.56l-.21.88c0-.19,0-.36,0-.38-.05-.78-.6-2.25-1.44-2.46a1,1,0,0,0-1.25.89,2.16,2.16,0,0,0,.72,1.66,6.42,6.42,0,0,0,1.78,1c-.09.29-.17.59-.26.87s-.12.38-.2.57-.15.37-.22.56l-.47,1-.33.68c.07-.3.19-.88.19-.92a3.9,3.9,0,0,0-.41-2,.88.88,0,0,0,0-.23,1,1,0,0,0-1.19-.95c-.86.17-1.48,1.6-1.58,2.37v.87l-.09-.56c-.06-.38-.14-.75-.22-1.15,0-.2-.09-.39-.13-.59s-.11-.4-.17-.6c-.13-.46-.29-.93-.46-1.39a6.81,6.81,0,0,0,2-.6,2.15,2.15,0,0,0,1-1.47,1,1,0,0,0-1-1.13c-.87,0-1.71,1.36-1.91,2.11,0,.05-.1.6-.15.91-.1-.28-.21-.56-.32-.84-.34-.8-.7-1.6-1.06-2.4l-.32-.74a7,7,0,0,0,2.05-.61,2.12,2.12,0,0,0,1-1.47,1,1,0,0,0-1-1.13c-.86,0-1.7,1.36-1.91,2.11,0,.06-.14.85-.16,1.06-.24-.54-.47-1.08-.68-1.63a18.67,18.67,0,0,1-.7-2.24,7.34,7.34,0,0,0,2.07-.61,2.17,2.17,0,0,0,1-1.48,1,1,0,0,0-1-1.12c-.87,0-1.71,1.36-1.91,2.11,0,0-.11.65-.15.94h-.05a13.11,13.11,0,0,1-.29-2.35c0-.43,0-.85,0-1.25a7.08,7.08,0,0,0,2.07-.38,2.16,2.16,0,0,0,1.2-1.36,1,1,0,0,0-.91-1.23c-.87-.06-1.85,1.17-2.14,1.89,0,0-.13.45-.21.76l0-.55c.05-.65.13-1.25.2-1.78.05-.3.1-.57.14-.82a6.75,6.75,0,0,0,1.66-1.29,2.14,2.14,0,0,0,.44-1.75,1,1,0,0,0-1.38-.68c-.79.35-1.1,1.89-1,2.66,0,.07.23,1.1.24,1.09h0c-.05.24-.1.5-.15.79-.09.53-.18,1.13-.24,1.78a18.09,18.09,0,0,0-.09,2.13,12.47,12.47,0,0,0,.24,2.38v0c-.12-.22-.48-.83-.51-.88-.47-.61-1.74-1.54-2.56-1.25a1,1,0,0,0-.55,1.43,2.17,2.17,0,0,0,1.51,1,7.62,7.62,0,0,0,2.14-.19,17.42,17.42,0,0,0,.67,2.33c.16.44.33.89.51,1.33-.11-.19-.21-.36-.23-.38-.47-.62-1.74-1.54-2.56-1.25a1,1,0,0,0-.55,1.42,2.14,2.14,0,0,0,1.52,1,6.48,6.48,0,0,0,2.07-.18l.21.51c.34.81.69,1.62,1,2.42.11.28.21.56.31.84-.1-.16-.18-.31-.2-.33-.47-.61-1.74-1.54-2.56-1.25a1,1,0,0,0-.55,1.43,2.17,2.17,0,0,0,1.52,1,6.43,6.43,0,0,0,2-.17c.09.29.18.58.26.87s.11.38.15.58l.12.59c.06.38.13.77.19,1.14s.07.5.1.74l-.35-.87c-.37-.68-1.48-1.79-2.34-1.63a1,1,0,0,0-.76,1.33,2.17,2.17,0,0,0,1.35,1.21,7.32,7.32,0,0,0,2.13.13c.05.41.1.81.14,1.18.14,1.29.21,2.38.25,3.14l.58,0v-.05c0-.78-.15-1.87-.32-3.19,0-.41-.12-.85-.19-1.31a11.21,11.21,0,0,0,1.22-.48,7.75,7.75,0,0,0,1.66,1.23l-.53,1.07c-.6,1.15-1.14,2.09-1.53,2.75l.65,0c.36-.65.83-1.52,1.34-2.56.18-.38.37-.78.56-1.2a7.25,7.25,0,0,0,2.11.3,2.16,2.16,0,0,0,1.57-.9,1,1,0,0,0-.48-1.46c-.8-.33-2.12.52-2.62,1.12,0,0-.31.45-.48.71.08-.17.16-.33.23-.51.16-.35.3-.7.46-1.08l.21-.57c.07-.18.13-.39.19-.59.15-.46.27-.93.38-1.41a7,7,0,0,0,2,.59,2.16,2.16,0,0,0,1.69-.66,1,1,0,0,0-.25-1.51c-.74-.45-2.17.2-2.76.71,0,0-.41.44-.62.67.07-.29.13-.58.19-.87.16-.86.3-1.72.45-2.59,0-.27.09-.53.13-.79a7.3,7.3,0,0,0,2.05.62,2.16,2.16,0,0,0,1.69-.66,1,1,0,0,0-.25-1.51c-.75-.45-2.18.2-2.76.71-.05,0-.59.63-.72.79.1-.58.21-1.16.33-1.73a19.74,19.74,0,0,1,.65-2.26,6.9,6.9,0,0,0,2.06.63,2.15,2.15,0,0,0,1.69-.65,1,1,0,0,0-.25-1.51c-.74-.45-2.17.19-2.76.7,0,0-.45.49-.64.71l-.05,0a13.11,13.11,0,0,1,1.06-2.12c.22-.37.45-.71.69-1a7.08,7.08,0,0,0,1.93.83,2.19,2.19,0,0,0,1.75-.47,1,1,0,0,0-.08-1.53c-.69-.53-2.18-.05-2.82.39l-.59.52.32-.44c.4-.52.8-1,1.15-1.37l.57-.61a7.26,7.26,0,0,0,2.09-.16,2.16,2.16,0,0,0,1.34-1.22A1,1,0,0,0,444.44,287.14Z" style="fill:#263238"></path><path d="M422.62,215.11a4.84,4.84,0,0,0,1.46.26s-.18-.7-.2-.74c-.2-.5-.87-1.34-1.46-1.3a.71.71,0,0,0-.63.85A1.45,1.45,0,0,0,422.62,215.11Z" style="fill:#263238"></path><path d="M433.18,216s.24-.68.25-.73c.1-.52,0-1.59-.51-1.89a.71.71,0,0,0-1,.36,1.48,1.48,0,0,0,.17,1.23A5.14,5.14,0,0,0,433.18,216Z" style="fill:#263238"></path><path d="M436.55,212.45c-.59-.1-1.34.67-1.59,1.14,0,0-.29.72-.28.72h0l-.39.39c-.25.27-.53.58-.81.93a13.07,13.07,0,0,0-.86,1.19,8.62,8.62,0,0,0-.76,1.45v0c0-.18,0-.67,0-.7,0-.54-.41-1.54-1-1.69a.7.7,0,0,0-.86.61,1.46,1.46,0,0,0,.49,1.14,5.16,5.16,0,0,0,1.3.7,12.83,12.83,0,0,0-.5,1.59q-.12.48-.21,1c0-.15,0-.29,0-.31,0-.53-.41-1.54-1-1.69a.72.72,0,0,0-.86.61,1.51,1.51,0,0,0,.5,1.15,4.9,4.9,0,0,0,1.25.68c0,.12-.05.25-.07.37-.11.59-.22,1.18-.34,1.76,0,.21-.1.41-.14.6,0-.13,0-.24,0-.26,0-.53-.42-1.54-1-1.69a.71.71,0,0,0-.86.61,1.46,1.46,0,0,0,.49,1.14,4.52,4.52,0,0,0,1.22.67c-.06.2-.11.41-.18.6s-.08.26-.13.39-.11.26-.16.38-.21.49-.32.72-.15.32-.22.47c0-.2.12-.6.13-.63a2.82,2.82,0,0,0-.28-1.36V225a.71.71,0,0,0-.82-.66c-.59.12-1,1.1-1.08,1.63,0,0,0,.38,0,.59l-.06-.38c0-.26-.09-.51-.15-.79L427,225c0-.14-.08-.28-.11-.41q-.15-.48-.33-1a4.83,4.83,0,0,0,1.37-.41,1.45,1.45,0,0,0,.71-1,.7.7,0,0,0-.71-.77c-.6,0-1.18.94-1.32,1.45,0,0-.07.41-.1.62-.07-.19-.14-.38-.22-.57-.23-.55-.48-1.1-.72-1.65l-.23-.51a5,5,0,0,0,1.41-.41,1.5,1.5,0,0,0,.72-1,.7.7,0,0,0-.71-.77c-.6,0-1.18.93-1.32,1.45,0,0-.1.58-.11.72-.16-.37-.32-.74-.46-1.11a11.9,11.9,0,0,1-.49-1.54,5.28,5.28,0,0,0,1.42-.42,1.51,1.51,0,0,0,.72-1,.71.71,0,0,0-.72-.77c-.59,0-1.17.93-1.31,1.45,0,0-.08.45-.1.65h0a9.27,9.27,0,0,1-.19-1.61,8.22,8.22,0,0,1,0-.86,4.83,4.83,0,0,0,1.42-.26,1.51,1.51,0,0,0,.82-.93.71.71,0,0,0-.62-.85c-.6,0-1.27.8-1.47,1.3,0,0-.09.31-.14.52,0-.13,0-.26,0-.38,0-.45.09-.86.14-1.22,0-.21.07-.39.1-.57a5,5,0,0,0,1.14-.88,1.47,1.47,0,0,0,.3-1.21.71.71,0,0,0-.95-.46c-.54.24-.75,1.3-.7,1.83,0,0,.16.75.17.75h0c0,.17-.07.35-.1.54-.06.36-.13.78-.17,1.23a13.47,13.47,0,0,0-.06,1.46,9.36,9.36,0,0,0,.16,1.63v0l-.36-.61c-.32-.42-1.19-1.05-1.76-.86a.71.71,0,0,0-.37,1,1.43,1.43,0,0,0,1,.68,4.57,4.57,0,0,0,1.46-.13,12.68,12.68,0,0,0,.47,1.61c.1.3.22.61.35.91l-.16-.26c-.32-.43-1.19-1.06-1.76-.86a.71.71,0,0,0-.38,1,1.51,1.51,0,0,0,1,.68,4.71,4.71,0,0,0,1.43-.13c0,.12.09.24.14.35.24.56.47,1.11.69,1.66.08.2.14.39.21.58l-.13-.22c-.33-.43-1.2-1.06-1.76-.86a.7.7,0,0,0-.38,1,1.51,1.51,0,0,0,1,.68,4.35,4.35,0,0,0,1.39-.12c.06.2.13.4.18.6s.07.26.1.4l.08.41c0,.25.1.52.13.77s.05.35.07.52c-.07-.2-.22-.57-.24-.6-.25-.47-1-1.23-1.6-1.12a.71.71,0,0,0-.53.91,1.48,1.48,0,0,0,.93.83,4.62,4.62,0,0,0,1.46.09c0,.28.07.56.1.82.1.88.14,1.63.17,2.15l.4,0v0c0-.53-.1-1.28-.22-2.19,0-.28-.08-.59-.13-.9a5.87,5.87,0,0,0,.84-.33,5.27,5.27,0,0,0,1.14.85l-.37.73c-.41.79-.78,1.44-1,1.89l.44,0c.25-.45.57-1.05.92-1.76.12-.26.25-.54.39-.82a5.12,5.12,0,0,0,1.44.21,1.52,1.52,0,0,0,1.08-.63.71.71,0,0,0-.32-1c-.56-.22-1.46.36-1.8.77a4.8,4.8,0,0,0-.33.49l.15-.35c.11-.24.21-.49.32-.75s.09-.25.14-.38.09-.27.13-.41c.1-.32.19-.64.26-1a4.84,4.84,0,0,0,1.37.41,1.49,1.49,0,0,0,1.15-.46.69.69,0,0,0-.17-1c-.51-.31-1.49.13-1.89.48,0,0-.29.3-.43.46.05-.2.09-.39.13-.6.11-.58.21-1.18.31-1.78l.09-.54a5.17,5.17,0,0,0,1.41.43,1.51,1.51,0,0,0,1.16-.45.71.71,0,0,0-.17-1c-.51-.31-1.5.13-1.9.48l-.49.55c.07-.4.14-.8.23-1.19a12.14,12.14,0,0,1,.44-1.55,5,5,0,0,0,1.42.43,1.47,1.47,0,0,0,1.16-.45.71.71,0,0,0-.17-1c-.51-.31-1.5.14-1.9.49,0,0-.31.33-.44.48l0,0a9.79,9.79,0,0,1,.72-1.45c.15-.26.32-.49.48-.72a4.4,4.4,0,0,0,1.33.57,1.48,1.48,0,0,0,1.2-.32.71.71,0,0,0-.06-1.05c-.47-.37-1.5,0-1.94.27l-.4.36c.07-.11.15-.21.22-.31.27-.36.55-.67.79-.94l.39-.42a4.73,4.73,0,0,0,1.44-.11,1.43,1.43,0,0,0,.91-.84A.7.7,0,0,0,436.55,212.45Z" style="fill:#263238"></path><path d="M109.58,200.58a5.19,5.19,0,0,0,1.46.26s-.18-.7-.2-.74c-.19-.5-.87-1.34-1.46-1.3a.71.71,0,0,0-.63.85A1.5,1.5,0,0,0,109.58,200.58Z" style="fill:#263238"></path><path d="M120.14,201.51s.24-.69.25-.73c.1-.52,0-1.6-.51-1.89a.71.71,0,0,0-1,.36,1.49,1.49,0,0,0,.17,1.23A5.14,5.14,0,0,0,120.14,201.51Z" style="fill:#263238"></path><path d="M123.51,197.92c-.58-.1-1.34.66-1.59,1.14,0,0-.29.71-.27.71h0l-.39.4c-.25.27-.53.57-.81.93a12.26,12.26,0,0,0-.86,1.19,8.62,8.62,0,0,0-.76,1.45v0c0-.18,0-.67,0-.71,0-.53-.41-1.54-1-1.68a.7.7,0,0,0-.86.61,1.53,1.53,0,0,0,.49,1.14,5.16,5.16,0,0,0,1.3.7,12.83,12.83,0,0,0-.5,1.59c-.08.31-.15.63-.21,1,0-.15,0-.28,0-.3,0-.53-.41-1.54-1-1.69a.72.72,0,0,0-.86.61,1.47,1.47,0,0,0,.5,1.14,4.67,4.67,0,0,0,1.25.69c0,.12,0,.24-.07.37-.11.59-.22,1.18-.34,1.76,0,.2-.09.4-.14.6,0-.13,0-.25,0-.26,0-.54-.41-1.54-1-1.69a.7.7,0,0,0-.86.61,1.46,1.46,0,0,0,.49,1.14,4.52,4.52,0,0,0,1.22.67q-.08.3-.18.6c0,.13-.08.26-.13.39l-.16.38c-.1.24-.21.49-.32.72s-.15.32-.22.47c0-.2.13-.6.13-.63a2.8,2.8,0,0,0-.28-1.36.85.85,0,0,0,0-.16.7.7,0,0,0-.82-.65c-.59.11-1,1.1-1.08,1.63,0,0,0,.37,0,.59l-.06-.38c0-.26-.09-.52-.15-.79l-.09-.4c0-.14-.08-.28-.11-.42-.1-.32-.21-.63-.32-.95a4.87,4.87,0,0,0,1.36-.41,1.47,1.47,0,0,0,.71-1,.7.7,0,0,0-.71-.77c-.6,0-1.17.93-1.32,1.45,0,0-.06.41-.09.62l-.23-.57c-.23-.55-.48-1.1-.72-1.65l-.23-.51a4.78,4.78,0,0,0,1.41-.42,1.43,1.43,0,0,0,.72-1,.71.71,0,0,0-.71-.78c-.6,0-1.18.94-1.32,1.45,0,0-.09.59-.11.73-.16-.37-.32-.74-.46-1.12a13.06,13.06,0,0,1-.49-1.54,4.62,4.62,0,0,0,1.42-.42,1.46,1.46,0,0,0,.72-1,.7.7,0,0,0-.71-.77c-.6,0-1.18.93-1.32,1.44,0,0-.07.46-.1.65h0a9.27,9.27,0,0,1-.19-1.62,8.22,8.22,0,0,1,0-.86,4.77,4.77,0,0,0,1.42-.26,1.46,1.46,0,0,0,.82-.93.7.7,0,0,0-.62-.84c-.6,0-1.27.8-1.47,1.29,0,0-.09.32-.14.52,0-.12,0-.25,0-.37,0-.45.08-.86.13-1.23,0-.2.07-.39.1-.56a5,5,0,0,0,1.14-.88,1.48,1.48,0,0,0,.3-1.21.71.71,0,0,0-.94-.46c-.55.24-.76,1.29-.71,1.82,0,.05.16.76.17.75h0c0,.16-.07.34-.1.54-.06.36-.13.77-.17,1.22a13.77,13.77,0,0,0-.06,1.47,9.36,9.36,0,0,0,.16,1.63v0c-.09-.16-.33-.58-.36-.61-.32-.42-1.19-1.06-1.75-.86a.7.7,0,0,0-.38,1,1.47,1.47,0,0,0,1,.68,4.57,4.57,0,0,0,1.46-.13,13.81,13.81,0,0,0,.47,1.6c.11.31.22.61.35.92l-.16-.26c-.32-.43-1.19-1.06-1.76-.87a.73.73,0,0,0-.38,1,1.53,1.53,0,0,0,1,.68,4.64,4.64,0,0,0,1.42-.13c0,.12.1.23.14.35.24.56.48,1.11.69,1.66.08.19.15.39.21.58l-.13-.22c-.33-.43-1.2-1.06-1.76-.87a.72.72,0,0,0-.38,1,1.46,1.46,0,0,0,1,.67,4.36,4.36,0,0,0,1.39-.11c.06.2.13.4.18.6s.07.26.1.4l.09.4c0,.26.09.53.12.78s.05.35.08.52c-.08-.2-.23-.58-.25-.61-.25-.46-1-1.22-1.6-1.11a.7.7,0,0,0-.52.91,1.46,1.46,0,0,0,.92.83,5,5,0,0,0,1.46.09c0,.28.07.55.1.81.1.89.14,1.63.17,2.16l.4,0v0c0-.53-.1-1.29-.22-2.19,0-.28-.08-.59-.13-.9a7.5,7.5,0,0,0,.84-.33,5.27,5.27,0,0,0,1.14.85c-.12.25-.25.5-.37.73-.41.79-.78,1.44-1,1.89l.44,0c.25-.45.57-1.05.92-1.76.13-.26.26-.54.39-.83a4.8,4.8,0,0,0,1.45.21,1.47,1.47,0,0,0,1.07-.62.7.7,0,0,0-.32-1c-.55-.23-1.46.36-1.8.76l-.33.5.16-.36.31-.74.14-.39c0-.12.09-.27.14-.4.09-.32.18-.65.26-1a4.47,4.47,0,0,0,1.36.41,1.47,1.47,0,0,0,1.16-.45.72.72,0,0,0-.17-1c-.52-.31-1.5.14-1.9.49,0,0-.29.3-.43.46.05-.2.1-.4.13-.6.12-.59.21-1.18.31-1.78l.09-.54a5.17,5.17,0,0,0,1.41.43,1.5,1.5,0,0,0,1.16-.46.69.69,0,0,0-.17-1c-.51-.31-1.5.13-1.9.48l-.49.54c.07-.4.14-.79.23-1.18a12.14,12.14,0,0,1,.44-1.55,5.39,5.39,0,0,0,1.42.43,1.49,1.49,0,0,0,1.16-.45.71.71,0,0,0-.17-1c-.51-.31-1.5.13-1.9.48l-.44.49,0,0a9.33,9.33,0,0,1,.72-1.45q.24-.39.48-.72a5,5,0,0,0,1.33.57,1.49,1.49,0,0,0,1.2-.33.7.7,0,0,0-.06-1.05c-.47-.36-1.5,0-1.93.28,0,0-.25.21-.41.35l.22-.3c.27-.36.55-.67.79-.94l.39-.42a4.73,4.73,0,0,0,1.44-.11,1.53,1.53,0,0,0,.92-.84A.71.71,0,0,0,123.51,197.92Z" style="fill:#263238"></path></g><g id="freepik--Rocks--inject-74"><path d="M281.78,404.31l-56.29-10.19s-39.79-4.85-42.7-4.37S161,397,155.13,399.46s-47.56,20.38-53.87,22.32-17.47,14.07-17.47,14.07l-4.37,16.5S91.56,462.54,95,464.48s44.16,15,55.81,16.5,64.05-2.42,66-2.91,37.36-25.72,44.15-29.6,17-12.13,17-12.13,5.34-18.93,7.28-23.3S281.78,404.31,281.78,404.31Z" style="fill:#cfcfcf;stroke:#263238;stroke-linecap:round;stroke-linejoin:round"></path><path d="M241.5,417.41c-1.45,0-14.07,2.91-14.07,2.91L243,439.25a49.28,49.28,0,0,0-6.31,5.82C234.71,447.5,225,455.26,225,455.26l-13.58,11.16-14.08,8.25H179.87c-1.94,0-23.29-2.91-23.29-2.91l-24.75-6.31L127,466.91s-6.79-9.71-11.65-8.25c-4.3,1.29-10.5,6.77-12.87,8.67,13.16,4.52,39.34,12.53,48.3,13.65,11.64,1.46,64.05-2.42,66-2.91s37.36-25.72,44.15-29.6,17-12.13,17-12.13,5.34-18.93,7.28-23.3c0,0-28.63,1.46-30.09,1.46S243,417.41,241.5,417.41Z" style="fill:#b0b0b0;stroke:#263238;stroke-linecap:round;stroke-linejoin:round"></path><path d="M171.15,381.81s-24.51-18.7-28.67-19.11S128.77,364,128.77,364l-15,6.64-19.53,3.74s-15,6.24-15.38,7.48-4.15,6.24-4.15,6.24l4.15,5.4s14.55,3.74,17.87,3.74h44.05c5.82,0,16.62-5,16.62-5s4.57-2.49,8.31-4.57A13.83,13.83,0,0,0,171.15,381.81Z" style="fill:#cfcfcf;stroke:#263238;stroke-linecap:round;stroke-linejoin:round"></path><path d="M96.77,397.19h44.05c5.82,0,16.62-5,16.62-5s4.57-2.49,8.31-4.57a13.83,13.83,0,0,0,5.4-5.82s-1.84-1.4-4.59-3.45l-1.22,1-6.65,7.48-17.46,3.32-22-.41s-18.7-1.66-17.45,0,12.88,2.91,12.88,2.91l-20.36,1.24L83.47,392.2l-8.72-4.15,4.15,5.4S93.45,397.19,96.77,397.19Z" style="fill:#b0b0b0;stroke:#263238;stroke-linecap:round;stroke-linejoin:round"></path></g></svg>
