<svg xmlns="http://www.w3.org/2000/svg" width="153" height="191" viewBox="0 0 153 191">
  <g fill="none" fill-rule="evenodd" transform="translate(-3)">
    <path stroke="#515B75" stroke-linecap="round" stroke-width="2.451" d="M123.820654,63.1765453 C127.54706,69.5221725 129.371841,76.0193934 129.294998,82.6682081" opacity=".993"/>
    <path stroke="#515B75" stroke-width="2.451" d="M103.163553,90.8124305 C116.116677,116.408034 115.319918,137.739213 100.773278,154.805969 C86.2266372,171.872724 68.3877615,180.01592 47.2566508,179.235557" transform="scale(-1 1) rotate(52 0 -28.536)"/>
    <path fill="#FFF" stroke="#515B75" stroke-linejoin="round" stroke-width="2.451" d="M38.3793433,107.559604 C37.5028762,110.295322 33.606016,113.006159 26.6887628,115.692117 C15.4504557,120.035618 8.62805481,121.279346 6.2215602,119.423303 C8.63097334,114.359259 11.1339418,110.718508 13.7304654,108.50105 C17.625251,105.174863 31.2742683,102.012733 31.9280203,101.679233 C32.3638549,101.4569 34.5142959,103.417023 38.3793433,107.559604 Z" transform="scale(-1 1) rotate(52 0 65.237)"/>
    <path fill="#FFF" stroke="#515B75" stroke-width="2.451" d="M19.673781,97.410268 C17.6320958,93.8270104 16.2675186,91.3428732 15.5800495,89.9578564 C14.5488458,87.8803313 16.653243,83.3756397 19.08756,86.7396986 C20.710438,88.9824044 22.3909383,91.7491379 24.129061,95.0398988 L19.673781,97.410268 Z" transform="scale(-1 1) rotate(52 0 51.038)"/>
    <path fill="#FFF" stroke="#515B75" stroke-width="2.451" d="M7.74428085,103.608455 C5.70259563,100.025197 4.33801845,97.5410603 3.6505493,96.1560435 C2.61934558,94.0785183 4.72374281,89.5738268 7.1580598,92.9378856 C8.78093779,95.1805915 10.4614381,97.9473249 12.1995608,101.238086 L7.74428085,103.608455 Z" transform="scale(-1 1) rotate(52 0 81.695)"/>
    <path fill="#FFF" stroke="#515B75" stroke-width="2.451" d="M3.14784764,107.566991 C5.84281619,103.832462 10.8962737,100.614103 18.3082201,97.9119137 C26.7005059,94.85232 32.4480962,95.5102601 35.550991,99.885734 L38.1602016,106.699019 C38.2059173,106.818393 38.1462049,106.952225 38.0268303,106.997941 C37.9758161,107.017477 37.9195359,107.01834 37.8679466,107.000378 C32.0705432,104.98179 25.9816458,105.258833 19.6012543,107.831506 C9.77016862,111.795552 7.08771497,116.539581 5.90768858,118.469091 C5.17534548,119.666575 4.05436462,117.035859 2.54474598,110.576943 L2.5447563,110.57694 C2.30090523,109.533621 2.52086631,108.435824 3.14784764,107.566991 Z" transform="scale(-1 1) rotate(52 0 65.706)"/>
    <path fill="#FFF" stroke="#515B75" stroke-linejoin="round" stroke-width="2.451" d="M25.8730381,129.002341 C29.3832918,130.934693 40.1469814,128.29033 41.0958913,123.294191 C41.7155091,120.03182 40.7757345,114.92234 38.2765675,107.96575 L38.2765173,107.965768 C38.1803562,107.698097 37.9306713,107.516142 37.6464123,107.506585 C34.0325439,107.385092 30.6321129,107.876535 27.4451192,108.980915 C24.3516465,110.052888 21.1850189,111.785218 17.9452364,114.177906 L17.9452512,114.177926 C17.5144553,114.496083 17.3582301,115.068261 17.5675682,115.561198 C20.8446722,123.277926 23.6131621,127.758307 25.8730381,129.002341 Z" transform="scale(-1 1) rotate(52 0 58.258)"/>
    <path stroke="#515B75" stroke-linecap="round" stroke-linejoin="round" stroke-width="2.474" d="M87.5134799,25.4709073 L102.3232,37.2747078"/>
    <path stroke="#515B75" stroke-linecap="round" stroke-width="2.474" d="M58.0633849,105.11676 C47.1055595,100.13967 42.0504859,92.0993645 42.8981641,80.9958431" transform="rotate(2 50.435 93.056)"/>
    <polygon fill="#FFF" points="109.567 70.336 120.777 82.597 132.369 130.442 136.49 140.656 136.49 145.379 119.308 137.431" transform="rotate(2 123.029 107.858)"/>
    <path stroke="#515B75" stroke-linecap="round" stroke-width="4.759" d="M94.8579921,172.604014 L70.8717939,188.349493 C70.3823477,188.670784 69.7251149,188.534468 69.4038233,188.045022 C69.2973146,187.88277 69.2373931,187.694392 69.2305913,187.500424 L69.1082431,184.011407" transform="rotate(2 81.983 180.447)"/>
    <path stroke="#515B75" stroke-linecap="round" stroke-width="4.759" d="M70.6898756,165.157197 L45.4427334,168.764068 C45.0563372,168.81927 44.6983514,168.550783 44.6431499,168.164387 C44.6395891,168.139463 44.6373628,168.114366 44.6364804,168.089203 L44.5234925,164.867117" transform="rotate(2 57.607 166.805)"/>
    <path fill="#FFF" stroke="#515B75" stroke-linecap="round" stroke-linejoin="round" stroke-width="2.451" d="M103.802071,174.383673 C81.6479572,174.182883 65.1714133,168.398055 61.5874756,149.131707 C58.0035379,129.865358 59.4542418,109.11823 59.6673691,88.427963 C59.8804963,67.7376959 57.4504685,46.227162 55.2100172,33.0812914 C52.9695658,19.9354207 48.1807399,11.5468833 58.3918896,5.82386245 C68.6030393,0.100841605 76.6737636,2.26984037 80.4963254,7.64523799 C84.3188872,13.0206356 87.6825062,28.8812492 90.6950536,37.7833209 C93.707601,46.6853926 95.1675459,52.942321 98.9703143,52.942321 C101.505493,52.942321 109.078921,52.942321 121.690598,52.942321 L110.993178,65.9914564 C115.191623,71.5846985 118.172576,75.041195 119.936038,76.3609456 C121.6995,77.6806963 129.20442,77.4197093 142.4508,75.5779845 C134.846759,84.8042193 131.130543,91.8642333 131.302152,96.7580265 C131.473761,101.65182 133.611217,115.847742 137.714519,139.345794 C139.492181,135.854652 142.721684,134.523237 147.403028,135.351547 C154.425045,136.594013 157.817696,140.337847 156.192452,150.967745 C154.567208,161.597643 144.647846,162.281042 138.480613,161.192565 C138.480613,161.192565 125.956185,174.584463 103.802071,174.383673 Z" transform="rotate(2 104.353 88.414)"/>
    <polyline stroke="#515B75" stroke-linecap="round" stroke-width="2.474" points="38.818 83.025 43.315 86.024 48.241 82.45" transform="rotate(2 43.53 84.237)"/>
    <polyline stroke="#515B75" stroke-linecap="round" stroke-width="2.474" points="146.831 125.782 140.549 127.209 142.513 133.375" transform="rotate(2 143.69 129.579)"/>
    <ellipse cx="107.297" cy="78.529" fill="#515B75" rx="3.59" ry="3.35" transform="rotate(2 107.297 78.53)"/>
    <path fill="#515B75" stroke="#515B75" stroke-width=".5" d="M57.5150558,33.069967 L89.1189812,23.6804478 C87.0710401,12.4006567 83.6891417,5.72432752 78.9732858,3.65146024 C71.899502,0.542159312 61.5380025,3.35509619 56.5905013,6.70436238 C53.2921672,8.93720652 53.6003521,17.7257414 57.5150558,33.069967 Z" transform="rotate(2 71.724 17.688)"/>
    <path stroke="#515B75" stroke-linecap="round" stroke-width="2.474" d="M122.963913,119.886746 C127.748406,121.02023 131.311899,122.114939 133.654391,123.170873 C135.996883,124.226808 140.360798,126.705568 146.746136,130.607154" transform="rotate(2 134.855 125.247)"/>
    <path stroke="#515B75" stroke-width="2.451" d="M54.9792113,35.3942003 C46.0116012,39.036043 42.5588946,45.4614428 44.6210915,54.6703997 C47.7143868,68.4838351 88.2391989,84.2442841 119.598336,94.8133872 C140.504427,101.859456 146.235513,114.078154 136.791594,131.469482" transform="rotate(2 92.621 83.432)"/>
    <path stroke="#515B75" stroke-width="2.474" d="M58.0690474,84.8714373 C53.2296737,84.7838413 48.6609832,89.3616945 52.8549216,94.1674731 C57.04886,98.9732517 82.8334071,110.88032 97.1634895,124.716882 C106.716878,133.941257 114.502337,149.567934 120.519866,171.596912"/>
    <path stroke="#515B75" stroke-linecap="round" stroke-width="2.042" d="M100.929049 43.5489529L101.17089 47.5329283M105.148393 42.5159217L107.580571 45.8773824M107.741763 38.9003126L111.555893 40.4637054"/>
    <path stroke="#515B75" stroke-width="2.451" d="M136.038021,139.64103 C121.725182,136.294765 107.586563,135.470246 93.6221632,137.167476 C79.6577632,138.864705 68.0393009,137.158087 58.7667761,132.04762 C53.2560754,128.740798 50.7578679,124.872002 51.2721536,120.44123 C51.7864393,116.010459 53.8287061,113.795073 57.3989539,113.795073" opacity=".993"/>
    <path stroke="#979797" stroke-width=".5"/>
    <path stroke="#525C76" stroke-width="2.451" d="M139.337016,162.789997 C130.229265,174.204347 117.295719,172.843594 100.536378,158.707737 C83.7770381,144.571881 71.1372891,144.977562 62.6171316,159.924782"/>
  </g>
</svg>
