<svg xmlns="http://www.w3.org/2000/svg" viewBox="0 0 64 64"><defs><style>.a{fill:#4dc8ed;}</style></defs><path d="M32 37.58a5.64 5.64 0 1 0-5.64-5.64A5.64 5.64 0 0 0 32 37.58zm28.3-11.26a25.66 25.66 0 0 0-8-4.2q-1-.35-2-.65.18-.7.33-1.4c1.57-7.6.45-13.52-2.9-15.46-1.64-.9-3.9-.9-6.5 0a25.66 25.66 0 0 0-7.62 4.8l-1.5 1.5-1.1-1c-5.8-5.1-11.5-7.1-14.8-5.2-1.6 1-2.7 2.9-3.2 5.7a25.66 25.66 0 0 0 .3 9q.2 1.1.5 2.1l-2.3.8c-6.9 2.4-11 6-11 9.8 0 1.96 1.16 4 3.3 5.8a25.48 25.48 0 0 0 8.2 4.3q.84.3 1.7.56L13.2 45c-1.34 7.1-.2 12.5 3 14.3a6 6 0 0 0 3 .7 11.1 11.1 0 0 0 3.67-.8 25.48 25.48 0 0 0 7.94-4.97l1.34-1.2q.85.8 1.7 1.54c4 3.5 7.93 5.34 11 5.34a5.84 5.84 0 0 0 3-.73c1.7-1 2.85-3 3.38-5.8a25.48 25.48 0 0 0-.3-9.37l-.4-1.7 1.2-.37c7.3-2.45 11.9-6.3 11.9-10.2-.03-2-1.15-3.9-3.28-5.7zm-25-14.86a23 23 0 0 1 6.8-4.3c1.8-.67 3.3-.74 4.22-.2s1.7 2 2 4a24.23 24.23 0 0 1-.32 8.6l-.28 1.24a64.6 64.6 0 0 0-8.43-1.34 63.78 63.78 0 0 0-5.4-6.66q.6-.7 1.4-1.33zM19.07 35.14q.84 1.63 1.8 3.27 1 1.7 2 3.3a56.7 56.7 0 0 1-5.87-.9c.6-1.7 1.3-3.6 2.1-5.5zm0-6.32c-.78-1.85-1.45-3.7-2-5.46 1.8-.4 3.73-.73 5.72-1q-1 1.55-2 3.16-1 1.68-1.8 3.3zm1.4 3.18c.8-1.7 1.7-3.4 2.68-5.1 1-1.68 2-3.3 3.06-4.86 1.9-.15 3.8-.22 5.8-.22s3.9.07 5.8.22c1.1 1.54 2.1 3.16 3 4.86s1.9 3.4 2.8 5.06q-1.2 2.52-2.7 5.04c-1 1.7-2 3.35-3 4.9-1.9.13-3.8.2-5.8.2s-3.8-.07-5.7-.2c-1-1.56-2.1-3.15-3.1-4.9-.9-1.6-1.8-3.3-2.7-5zm22.64 6.4q1-1.68 1.9-3.35a56.55 56.55 0 0 1 2 5.55 57.44 57.44 0 0 1-5.9 1.06q1-1.58 2-3.23zm1.9-9.58q-.8-1.62-1.8-3.3t-1.9-3.15a47.43 47.43 0 0 1 5.8 1.05q-.9 2.75-2 5.4zm-13-14.1a57.82 57.82 0 0 1 3.8 4.5q-1.8-.08-3.7-.08t-3.7.08a45.63 45.63 0 0 1 3.77-4.5zm-16.5-4c.4-1.82 1.1-3.15 2-3.72s2.5-.46 4.5.26A24.23 24.23 0 0 1 29.2 12c.32.27.63.57.95.87a64.63 64.63 0 0 0-5.37 6.65 65.26 65.26 0 0 0-8.43 1.3q-.24-1-.43-1.93a23 23 0 0 1-.36-8.2zM14.4 40.1q-.8-.24-1.57-.5a22.8 22.8 0 0 1-7.37-3.9C4 34.4 3.12 33 3.12 32c0-2.8 4.6-5.64 9.15-7.23.7-.24 1.42-.47 2.17-.68A64.64 64.64 0 0 0 17.5 32a65.06 65.06 0 0 0-3.1 8.1zM29 52.4C23.75 57 19.33 58 17.52 57c-2.4-1.4-2.6-6.8-1.7-11.53q.2-1.05.47-2.1a63 63 0 0 0 8.4 1.26 65 65 0 0 0 5.4 6.7zm3.1-3c-1.28-1.4-2.56-2.92-3.8-4.55q1.8.07 3.7.07t3.8-.08a56.7 56.7 0 0 1-3.72 4.54zM46.4 57c-2.4 1.4-7.17-1.15-10.82-4.3q-.8-.7-1.58-1.43a62.93 62.93 0 0 0 5.27-6.72 63.34 63.34 0 0 0 8.58-1.32q.2.78.34 1.53c1.3 6.92 0 11.2-1.8 12.25zm4.36-17.4l-1.05.33a62.8 62.8 0 0 0-3.1-8 63.67 63.67 0 0 0 3.1-7.88q1 .28 1.9.6a23 23 0 0 1 7.2 3.72c1.4 1.24 2.28 2.55 2.28 3.6 0 2.03-3.16 5.35-10.1 7.65z" class="a"/></svg>